<svg xmlns="http://www.w3.org/2000/svg" xmlns:xlink="http://www.w3.org/1999/xlink" width="1633" zoomAndPan="magnify" viewBox="0 0 1224.75 1373.249998" height="1831" preserveAspectRatio="xMidYMid meet" version="1.0"><defs><filter x="0%" y="0%" width="100%" height="100%" id="6e0d3d487e"><feColorMatrix values="0 0 0 0 1 0 0 0 0 1 0 0 0 0 1 0 0 0 1 0" color-interpolation-filters="sRGB"/></filter><g/><clipPath id="72316499b1"><path d="M 0.210938 0 L 1224.289062 0 L 1224.289062 1372.5 L 0.210938 1372.5 Z M 0.210938 0 " clip-rule="nonzero"/></clipPath><mask id="103588f1ac"><g filter="url(#6e0d3d487e)"><rect x="-122.475" width="1469.7" fill="#000000" y="-137.325" height="1647.899998" fill-opacity="0.59"/></g></mask><clipPath id="df6ae61cbe"><path d="M 0.628906 0.496094 L 1223.960938 0.496094 L 1223.960938 1372.042969 L 0.628906 1372.042969 Z M 0.628906 0.496094 " clip-rule="nonzero"/></clipPath><clipPath id="e71f7ab1d5"><rect x="0" width="1225" y="0" height="1373"/></clipPath><clipPath id="15454476e1"><path d="M 307.671875 34.480469 L 620.878906 34.480469 L 620.878906 137.808594 L 307.671875 137.808594 Z M 307.671875 34.480469 " clip-rule="nonzero"/></clipPath><clipPath id="b1798693f2"><path d="M 359.335938 34.480469 L 569.140625 34.480469 C 597.671875 34.480469 620.804688 57.613281 620.804688 86.144531 C 620.804688 114.675781 597.671875 137.808594 569.140625 137.808594 L 359.335938 137.808594 C 330.800781 137.808594 307.671875 114.675781 307.671875 86.144531 C 307.671875 57.613281 330.800781 34.480469 359.335938 34.480469 Z M 359.335938 34.480469 " clip-rule="nonzero"/></clipPath><clipPath id="f051ad2210"><path d="M 307.6875 34.480469 L 620.785156 34.480469 L 620.785156 137.925781 L 307.6875 137.925781 Z M 307.6875 34.480469 " clip-rule="nonzero"/></clipPath><clipPath id="c00ea69680"><path d="M 359.34375 34.480469 L 569.128906 34.480469 C 597.65625 34.480469 620.785156 57.609375 620.785156 86.136719 C 620.785156 114.667969 597.65625 137.796875 569.128906 137.796875 L 359.34375 137.796875 C 330.816406 137.796875 307.6875 114.667969 307.6875 86.136719 C 307.6875 57.609375 330.816406 34.480469 359.34375 34.480469 Z M 359.34375 34.480469 " clip-rule="nonzero"/></clipPath><clipPath id="9f6cd1625b"><path d="M 316.175781 214.382812 L 612.457031 214.382812 L 612.457031 337.511719 L 316.175781 337.511719 Z M 316.175781 214.382812 " clip-rule="nonzero"/></clipPath><clipPath id="c721f0ec1c"><path d="M 334.167969 214.382812 L 594.304688 214.382812 C 604.242188 214.382812 612.296875 222.4375 612.296875 232.375 L 612.296875 319.519531 C 612.296875 329.457031 604.242188 337.511719 594.304688 337.511719 L 334.167969 337.511719 C 324.230469 337.511719 316.175781 329.457031 316.175781 319.519531 L 316.175781 232.375 C 316.175781 222.4375 324.230469 214.382812 334.167969 214.382812 Z M 334.167969 214.382812 " clip-rule="nonzero"/></clipPath><clipPath id="fa5b422767"><path d="M 316.183594 214.382812 L 612.265625 214.382812 L 612.265625 337.316406 L 316.183594 337.316406 Z M 316.183594 214.382812 " clip-rule="nonzero"/></clipPath><clipPath id="da92267fbc"><path d="M 334.171875 214.382812 L 594.292969 214.382812 C 604.230469 214.382812 612.28125 222.4375 612.28125 232.371094 L 612.28125 319.515625 C 612.28125 329.449219 604.230469 337.503906 594.292969 337.503906 L 334.171875 337.503906 C 324.238281 337.503906 316.183594 329.449219 316.183594 319.515625 L 316.183594 232.371094 C 316.183594 222.4375 324.238281 214.382812 334.171875 214.382812 Z M 334.171875 214.382812 " clip-rule="nonzero"/></clipPath><clipPath id="704937f547"><path d="M 316.175781 442.257812 L 612.457031 442.257812 L 612.457031 565.386719 L 316.175781 565.386719 Z M 316.175781 442.257812 " clip-rule="nonzero"/></clipPath><clipPath id="c4bed28869"><path d="M 334.167969 442.257812 L 594.304688 442.257812 C 604.242188 442.257812 612.296875 450.3125 612.296875 460.25 L 612.296875 547.398438 C 612.296875 557.332031 604.242188 565.386719 594.304688 565.386719 L 334.167969 565.386719 C 324.230469 565.386719 316.175781 557.332031 316.175781 547.398438 L 316.175781 460.25 C 316.175781 450.3125 324.230469 442.257812 334.167969 442.257812 Z M 334.167969 442.257812 " clip-rule="nonzero"/></clipPath><clipPath id="7e85b066af"><path d="M 316.183594 442.257812 L 612.265625 442.257812 L 612.265625 565.191406 L 316.183594 565.191406 Z M 316.183594 442.257812 " clip-rule="nonzero"/></clipPath><clipPath id="4c6a40aced"><path d="M 334.171875 442.257812 L 594.292969 442.257812 C 604.230469 442.257812 612.28125 450.3125 612.28125 460.246094 L 612.28125 547.390625 C 612.28125 557.324219 604.230469 565.378906 594.292969 565.378906 L 334.171875 565.378906 C 324.238281 565.378906 316.183594 557.324219 316.183594 547.390625 L 316.183594 460.246094 C 316.183594 450.3125 324.238281 442.257812 334.171875 442.257812 Z M 334.171875 442.257812 " clip-rule="nonzero"/></clipPath><clipPath id="6bf4858ff9"><path d="M 225.707031 686 L 702.929688 686 L 702.929688 987 L 225.707031 987 Z M 225.707031 686 " clip-rule="nonzero"/></clipPath><clipPath id="20ffdf3e2f"><path d="M 479.484375 690.652344 L 697.234375 826.988281 C 700.523438 829.046875 702.519531 832.652344 702.519531 836.535156 C 702.519531 840.414062 700.523438 844.023438 697.234375 846.082031 L 479.484375 982.417969 C 470.160156 988.257812 458.316406 988.257812 448.988281 982.417969 L 231.242188 846.082031 C 227.953125 844.023438 225.953125 840.414062 225.953125 836.535156 C 225.953125 832.652344 227.953125 829.046875 231.242188 826.988281 L 448.988281 690.652344 C 458.316406 684.8125 470.160156 684.8125 479.484375 690.652344 Z M 479.484375 690.652344 " clip-rule="nonzero"/></clipPath><clipPath id="7233ee7961"><path d="M 225 686 L 703 686 L 703 987 L 225 987 Z M 225 686 " clip-rule="nonzero"/></clipPath><clipPath id="5d59672397"><path d="M 479.484375 690.648438 L 697.226562 826.984375 C 700.515625 829.042969 702.515625 832.652344 702.515625 836.53125 C 702.515625 840.414062 700.515625 844.019531 697.226562 846.078125 L 479.484375 982.414062 C 470.15625 988.253906 458.316406 988.253906 448.988281 982.414062 L 231.246094 846.078125 C 227.957031 844.019531 225.957031 840.414062 225.957031 836.53125 C 225.957031 832.652344 227.957031 829.042969 231.246094 826.984375 L 448.988281 690.648438 C 458.316406 684.8125 470.15625 684.8125 479.484375 690.648438 Z M 479.484375 690.648438 " clip-rule="nonzero"/></clipPath><clipPath id="30da913397"><path d="M 882.949219 784.871094 L 1196.15625 784.871094 L 1196.15625 888.199219 L 882.949219 888.199219 Z M 882.949219 784.871094 " clip-rule="nonzero"/></clipPath><clipPath id="50803ecbc8"><path d="M 934.609375 784.871094 L 1144.417969 784.871094 C 1172.949219 784.871094 1196.082031 808.003906 1196.082031 836.535156 C 1196.082031 865.066406 1172.949219 888.199219 1144.417969 888.199219 L 934.609375 888.199219 C 906.078125 888.199219 882.949219 865.066406 882.949219 836.535156 C 882.949219 808.003906 906.078125 784.871094 934.609375 784.871094 Z M 934.609375 784.871094 " clip-rule="nonzero"/></clipPath><clipPath id="cbda3e4266"><path d="M 882.964844 784.871094 L 1196.0625 784.871094 L 1196.0625 888.316406 L 882.964844 888.316406 Z M 882.964844 784.871094 " clip-rule="nonzero"/></clipPath><clipPath id="88c282f433"><path d="M 934.621094 784.871094 L 1144.40625 784.871094 C 1172.933594 784.871094 1196.0625 808 1196.0625 836.527344 C 1196.0625 865.058594 1172.933594 888.1875 1144.40625 888.1875 L 934.621094 888.1875 C 906.09375 888.1875 882.964844 865.058594 882.964844 836.527344 C 882.964844 808 906.09375 784.871094 934.621094 784.871094 Z M 934.621094 784.871094 " clip-rule="nonzero"/></clipPath><clipPath id="dafbf39df9"><path d="M 307.671875 1206.433594 L 620.878906 1206.433594 L 620.878906 1309.757812 L 307.671875 1309.757812 Z M 307.671875 1206.433594 " clip-rule="nonzero"/></clipPath><clipPath id="d08f54a055"><path d="M 359.335938 1206.433594 L 569.140625 1206.433594 C 597.671875 1206.433594 620.804688 1229.5625 620.804688 1258.09375 C 620.804688 1286.628906 597.671875 1309.757812 569.140625 1309.757812 L 359.335938 1309.757812 C 330.800781 1309.757812 307.671875 1286.628906 307.671875 1258.09375 C 307.671875 1229.5625 330.800781 1206.433594 359.335938 1206.433594 Z M 359.335938 1206.433594 " clip-rule="nonzero"/></clipPath><clipPath id="852229a065"><path d="M 307.6875 1206.433594 L 620.785156 1206.433594 L 620.785156 1309.875 L 307.6875 1309.875 Z M 307.6875 1206.433594 " clip-rule="nonzero"/></clipPath><clipPath id="4285170783"><path d="M 359.34375 1206.433594 L 569.128906 1206.433594 C 597.65625 1206.433594 620.785156 1229.558594 620.785156 1258.089844 C 620.785156 1286.617188 597.65625 1309.746094 569.128906 1309.746094 L 359.34375 1309.746094 C 330.816406 1309.746094 307.6875 1286.617188 307.6875 1258.089844 C 307.6875 1229.558594 330.816406 1206.433594 359.34375 1206.433594 Z M 359.34375 1206.433594 " clip-rule="nonzero"/></clipPath><clipPath id="4b8718e312"><path d="M 105 488 L 329 488 L 329 852 L 105 852 Z M 105 488 " clip-rule="nonzero"/></clipPath><clipPath id="9c70a4a055"><path d="M 74.664062 488.832031 L 328.171875 488.832031 L 191.34375 599.804688 L 86.660156 599.804688 L 86.660156 650.328125 L 191.34375 650.328125 L 328.171875 851.527344 L 74.664062 851.527344 Z M 328.171875 488.832031 L 328.171875 851.527344 L 191.34375 650.328125 L 191.34375 599.804688 Z M 328.171875 488.832031 " clip-rule="nonzero"/></clipPath><clipPath id="8ab41effbf"><path d="M 298 491 L 317 491 L 317 516 L 298 516 Z M 298 491 " clip-rule="nonzero"/></clipPath><clipPath id="d559b34ff2"><path d="M 74.664062 488.832031 L 328.171875 488.832031 L 191.34375 599.804688 L 86.660156 599.804688 L 86.660156 650.328125 L 191.34375 650.328125 L 328.171875 851.527344 L 74.664062 851.527344 Z M 328.171875 488.832031 L 328.171875 851.527344 L 191.34375 650.328125 L 191.34375 599.804688 Z M 328.171875 488.832031 " clip-rule="nonzero"/></clipPath><clipPath id="203ccc9001"><path d="M 864.957031 833 L 882.949219 833 L 882.949219 833.535156 L 864.957031 833.535156 Z M 831.289062 833.535156 L 882.949219 833.535156 L 882.949219 839.53125 L 831.289062 839.53125 Z M 702.519531 833.535156 L 754.175781 833.535156 L 754.175781 839.53125 L 702.519531 839.53125 Z M 864.957031 839.53125 L 882.949219 839.53125 L 882.949219 840 L 864.957031 840 Z M 864.957031 839.53125 " clip-rule="nonzero"/></clipPath><clipPath id="a898684998"><path d="M 864.957031 824.542969 L 882.949219 824.542969 L 882.949219 833.535156 L 864.957031 833.535156 Z M 864 833.535156 L 882.949219 833.535156 L 882.949219 839.53125 L 864 839.53125 Z M 864.957031 839.53125 L 882.949219 839.53125 L 882.949219 848.527344 L 864.957031 848.527344 Z M 864.957031 839.53125 " clip-rule="nonzero"/></clipPath><clipPath id="c6c01e3f53"><path d="M 461.234375 986.796875 L 467.230469 986.796875 L 467.230469 1054.601562 L 461.234375 1054.601562 Z M 461.234375 1138.625 L 467.230469 1138.625 L 467.230469 1188.441406 L 461.234375 1188.441406 Z M 461 1188.441406 L 468 1188.441406 L 468 1206.429688 L 461 1206.429688 Z M 461 1188.441406 " clip-rule="nonzero"/></clipPath><clipPath id="54541e4bb1"><path d="M 461.234375 1188 L 467.230469 1188 L 467.230469 1188.441406 L 461.234375 1188.441406 Z M 452.238281 1188.441406 L 476.226562 1188.441406 L 476.226562 1206.429688 L 452.238281 1206.429688 Z M 452.238281 1188.441406 " clip-rule="nonzero"/></clipPath></defs><g clip-path="url(#72316499b1)"><g mask="url(#103588f1ac)"><g transform="matrix(1, 0, 0, 1, 0, -0.000000000000136946)"><g clip-path="url(#e71f7ab1d5)"><g clip-path="url(#df6ae61cbe)"><path fill="#e4c7e6" d="M 0.628906 0.496094 L 1223.78125 0.496094 L 1223.78125 1372.042969 L 0.628906 1372.042969 Z M 0.628906 0.496094 " fill-opacity="1" fill-rule="nonzero"/></g></g></g></g></g><g clip-path="url(#15454476e1)"><g clip-path="url(#b1798693f2)"><path fill="#ffccd2" d="M 307.671875 34.480469 L 620.878906 34.480469 L 620.878906 137.808594 L 307.671875 137.808594 Z M 307.671875 34.480469 " fill-opacity="1" fill-rule="nonzero"/></g></g><g clip-path="url(#f051ad2210)"><g clip-path="url(#c00ea69680)"><path stroke-linecap="butt" transform="matrix(0.749591, 0, 0, 0.749591, 307.687234, 34.481207)" fill="none" stroke-linejoin="miter" d="M 68.91297 -0.000984355 L 348.779271 -0.000984355 C 386.836503 -0.000984355 417.691886 30.854399 417.691886 68.91163 C 417.691886 106.974073 386.836503 137.829456 348.779271 137.829456 L 68.91297 137.829456 C 30.855739 137.829456 0.000355473 106.974073 0.000355473 68.91163 C 0.000355473 30.854399 30.855739 -0.000984355 68.91297 -0.000984355 Z M 68.91297 -0.000984355 " stroke="#000000" stroke-width="8" stroke-opacity="1" stroke-miterlimit="4"/></g></g><g fill="#232122" fill-opacity="1"><g transform="translate(414.276758, 99.695587)"><g><path d="M 8.457031 -26.265625 L 2.445312 -26.265625 L 2.445312 0 L 8.457031 0 Z M 8.457031 -26.265625 "/></g></g></g><g fill="#232122" fill-opacity="1"><g transform="translate(425.178831, 99.695587)"><g><path d="M 13.996094 -19.539062 C 10.613281 -19.539062 7.988281 -17.667969 6.980469 -13.492188 L 5.21875 -19.070312 L 2.339844 -19.070312 L 2.339844 0 L 8.132812 0 L 8.132812 -9.246094 C 8.132812 -12.84375 9.75 -14.464844 12.089844 -14.464844 C 14.355469 -14.464844 15.472656 -13.347656 15.472656 -10.144531 L 15.472656 0 L 21.191406 0 L 21.191406 -10.972656 C 21.191406 -16.621094 18.277344 -19.539062 13.996094 -19.539062 Z M 13.996094 -19.539062 "/></g></g></g><g fill="#232122" fill-opacity="1"><g transform="translate(448.278255, 99.695587)"><g><path d="M 8.417969 -24.609375 C 8.417969 -22.738281 7.195312 -21.550781 5.21875 -21.550781 C 3.203125 -21.550781 1.980469 -22.738281 1.980469 -24.609375 C 1.980469 -26.445312 3.203125 -27.667969 5.21875 -27.667969 C 7.195312 -27.667969 8.417969 -26.445312 8.417969 -24.609375 Z M 8.09375 0 L 8.09375 -19.070312 L 2.339844 -19.070312 L 2.339844 0 Z M 8.09375 0 "/></g></g></g><g fill="#232122" fill-opacity="1"><g transform="translate(458.712578, 99.695587)"><g><path d="M 1.117188 -9.175781 C 1.117188 -3.347656 4.964844 0.46875 11.332031 0.46875 C 17.234375 0.46875 20.652344 -2.625 21.226562 -7.628906 L 15.328125 -7.628906 C 14.859375 -5.433594 13.566406 -4.390625 11.261719 -4.390625 C 8.5625 -4.390625 6.910156 -6.042969 6.910156 -9.535156 C 6.910156 -13.023438 8.5625 -14.679688 11.261719 -14.679688 C 13.566406 -14.679688 14.859375 -13.636719 15.292969 -11.441406 L 21.191406 -11.441406 C 20.617188 -16.441406 17.199219 -19.539062 11.332031 -19.539062 C 4.964844 -19.539062 1.117188 -15.722656 1.117188 -9.894531 Z M 1.117188 -9.175781 "/></g></g></g><g fill="#232122" fill-opacity="1"><g transform="translate(481.020435, 99.695587)"><g><path d="M 8.417969 -24.609375 C 8.417969 -22.738281 7.195312 -21.550781 5.21875 -21.550781 C 3.203125 -21.550781 1.980469 -22.738281 1.980469 -24.609375 C 1.980469 -26.445312 3.203125 -27.667969 5.21875 -27.667969 C 7.195312 -27.667969 8.417969 -26.445312 8.417969 -24.609375 Z M 8.09375 0 L 8.09375 -19.070312 L 2.339844 -19.070312 L 2.339844 0 Z M 8.09375 0 "/></g></g></g><g fill="#232122" fill-opacity="1"><g transform="translate(491.454758, 99.695587)"><g><path d="M 11.371094 0.46875 C 17.773438 0.46875 21.589844 -3.347656 21.589844 -9.140625 L 21.589844 -9.929688 C 21.589844 -15.722656 17.773438 -19.539062 11.371094 -19.539062 C 4.964844 -19.539062 1.117188 -15.722656 1.117188 -9.929688 L 1.117188 -9.140625 C 1.117188 -3.347656 4.964844 0.46875 11.371094 0.46875 Z M 11.371094 -4.355469 C 8.5625 -4.355469 6.910156 -6.042969 6.910156 -9.570312 C 6.910156 -13.023438 8.5625 -14.714844 11.371094 -14.714844 C 14.140625 -14.714844 15.832031 -13.023438 15.832031 -9.570312 C 15.832031 -6.042969 14.140625 -4.355469 11.371094 -4.355469 Z M 11.371094 -4.355469 "/></g></g></g><path stroke-linecap="butt" transform="matrix(0, 0.749591, -0.749591, 0, 467.235281, 137.807509)" fill="none" stroke-linejoin="miter" d="M 0.00144721 3.998182 L 98.153986 3.998182 " stroke="#000000" stroke-width="8" stroke-opacity="1" stroke-miterlimit="4"/><path stroke-linecap="round" transform="matrix(0, 0.749591, -0.749591, 0, 467.235281, 137.807509)" fill="none" stroke-linejoin="round" d="M 82.15567 -7.99795 L 98.153986 3.998182 L 82.15567 15.999525 " stroke="#000000" stroke-width="8" stroke-opacity="1" stroke-miterlimit="4"/><g clip-path="url(#9f6cd1625b)"><g clip-path="url(#c721f0ec1c)"><path fill="#d398d8" d="M 316.175781 214.382812 L 612.457031 214.382812 L 612.457031 337.511719 L 316.175781 337.511719 Z M 316.175781 214.382812 " fill-opacity="1" fill-rule="nonzero"/></g></g><g clip-path="url(#fa5b422767)"><g clip-path="url(#da92267fbc)"><path stroke-linecap="butt" transform="matrix(0.749591, 0, 0, 0.749591, 316.18346, 214.382946)" fill="none" stroke-linejoin="miter" d="M 23.997652 -0.000177538 L 371.01519 -0.000177538 C 384.272426 -0.000177538 395.012663 10.745271 395.012663 23.997296 L 395.012663 140.253461 C 395.012663 153.505486 384.272426 164.250934 371.01519 164.250934 L 23.997652 164.250934 C 10.745627 164.250934 0.000178213 153.505486 0.000178213 140.253461 L 0.000178213 23.997296 C 0.000178213 10.745271 10.745627 -0.000177538 23.997652 -0.000177538 Z M 23.997652 -0.000177538 " stroke="#000000" stroke-width="4" stroke-opacity="1" stroke-miterlimit="4"/></g></g><g fill="#000000" fill-opacity="1"><g transform="translate(384.975644, 269.103058)"><g><path d="M 7.515625 -23.34375 L 2.175781 -23.34375 L 2.175781 0 L 7.515625 0 Z M 7.515625 -23.34375 "/></g></g></g><g fill="#000000" fill-opacity="1"><g transform="translate(394.663967, 269.103058)"><g><path d="M 12.4375 -17.363281 C 9.433594 -17.363281 7.097656 -15.699219 6.203125 -11.992188 L 4.636719 -16.949219 L 2.078125 -16.949219 L 2.078125 0 L 7.226562 0 L 7.226562 -8.21875 C 7.226562 -11.414062 8.664062 -12.855469 10.746094 -12.855469 C 12.757812 -12.855469 13.75 -11.863281 13.75 -9.019531 L 13.75 0 L 18.835938 0 L 18.835938 -9.753906 C 18.835938 -14.773438 16.246094 -17.363281 12.4375 -17.363281 Z M 12.4375 -17.363281 "/></g></g></g><g fill="#000000" fill-opacity="1"><g transform="translate(415.191707, 269.103058)"><g><path d="M 7.484375 -21.871094 C 7.484375 -20.210938 6.394531 -19.15625 4.636719 -19.15625 C 2.847656 -19.15625 1.757812 -20.210938 1.757812 -21.871094 C 1.757812 -23.503906 2.847656 -24.589844 4.636719 -24.589844 C 6.394531 -24.589844 7.484375 -23.503906 7.484375 -21.871094 Z M 7.195312 0 L 7.195312 -16.949219 L 2.078125 -16.949219 L 2.078125 0 Z M 7.195312 0 "/></g></g></g><g fill="#000000" fill-opacity="1"><g transform="translate(424.464367, 269.103058)"><g><path d="M 0.992188 -8.152344 C 0.992188 -2.972656 4.414062 0.414062 10.074219 0.414062 C 15.316406 0.414062 18.355469 -2.335938 18.867188 -6.777344 L 13.621094 -6.777344 C 13.207031 -4.828125 12.054688 -3.902344 10.007812 -3.902344 C 7.609375 -3.902344 6.140625 -5.371094 6.140625 -8.472656 C 6.140625 -11.574219 7.609375 -13.046875 10.007812 -13.046875 C 12.054688 -13.046875 13.207031 -12.121094 13.589844 -10.167969 L 18.835938 -10.167969 C 18.324219 -14.613281 15.285156 -17.363281 10.074219 -17.363281 C 4.414062 -17.363281 0.992188 -13.972656 0.992188 -8.792969 Z M 0.992188 -8.152344 "/></g></g></g><g fill="#000000" fill-opacity="1"><g transform="translate(444.288668, 269.103058)"><g><path d="M 7.484375 -21.871094 C 7.484375 -20.210938 6.394531 -19.15625 4.636719 -19.15625 C 2.847656 -19.15625 1.757812 -20.210938 1.757812 -21.871094 C 1.757812 -23.503906 2.847656 -24.589844 4.636719 -24.589844 C 6.394531 -24.589844 7.484375 -23.503906 7.484375 -21.871094 Z M 7.195312 0 L 7.195312 -16.949219 L 2.078125 -16.949219 L 2.078125 0 Z M 7.195312 0 "/></g></g></g><g fill="#000000" fill-opacity="1"><g transform="translate(453.561328, 269.103058)"><g><path d="M 9.882812 -17.363281 C 4.507812 -17.363281 2.015625 -14.804688 1.535156 -11.097656 L 6.683594 -11.097656 C 6.972656 -12.472656 7.835938 -13.335938 9.847656 -13.335938 C 11.800781 -13.335938 12.726562 -12.597656 12.984375 -10.777344 L 10.039062 -10.359375 C 3.871094 -9.464844 1.152344 -7.417969 1.152344 -3.964844 C 1.152344 -1.535156 3.132812 0.414062 6.621094 0.414062 C 10.359375 0.414062 13.078125 -1.472656 14.132812 -4.667969 L 15.574219 0 L 18.097656 0 L 18.097656 -9.242188 C 18.097656 -14.675781 15.382812 -17.363281 9.882812 -17.363281 Z M 8.347656 -3.550781 C 7.003906 -3.550781 6.363281 -4.1875 6.363281 -5.019531 C 6.363281 -6.269531 7.867188 -7.226562 11.414062 -7.769531 L 13.144531 -7.996094 C 13.144531 -5.597656 11.0625 -3.550781 8.347656 -3.550781 Z M 8.347656 -3.550781 "/></g></g></g><g fill="#000000" fill-opacity="1"><g transform="translate(473.2897, 269.103058)"><g><path d="M 7.226562 -23.34375 L 2.140625 -23.34375 L 2.140625 0 L 7.226562 0 Z M 7.226562 -23.34375 "/></g></g></g><g fill="#000000" fill-opacity="1"><g transform="translate(482.658279, 269.103058)"><g><path d="M 7.484375 -21.871094 C 7.484375 -20.210938 6.394531 -19.15625 4.636719 -19.15625 C 2.847656 -19.15625 1.757812 -20.210938 1.757812 -21.871094 C 1.757812 -23.503906 2.847656 -24.589844 4.636719 -24.589844 C 6.394531 -24.589844 7.484375 -23.503906 7.484375 -21.871094 Z M 7.195312 0 L 7.195312 -16.949219 L 2.078125 -16.949219 L 2.078125 0 Z M 7.195312 0 "/></g></g></g><g fill="#000000" fill-opacity="1"><g transform="translate(491.930939, 269.103058)"><g><path d="M 16.5 -13.238281 L 16.5 -16.949219 L 1.566406 -16.949219 L 1.566406 -12.886719 L 10.199219 -12.886719 L 1.183594 -3.710938 L 1.183594 0 L 16.628906 0 L 16.628906 -4.0625 L 7.515625 -4.0625 Z M 16.5 -13.238281 "/></g></g></g><g fill="#000000" fill-opacity="1"><g transform="translate(509.77281, 269.103058)"><g><path d="M 9.882812 -17.363281 C 4.507812 -17.363281 2.015625 -14.804688 1.535156 -11.097656 L 6.683594 -11.097656 C 6.972656 -12.472656 7.835938 -13.335938 9.847656 -13.335938 C 11.800781 -13.335938 12.726562 -12.597656 12.984375 -10.777344 L 10.039062 -10.359375 C 3.871094 -9.464844 1.152344 -7.417969 1.152344 -3.964844 C 1.152344 -1.535156 3.132812 0.414062 6.621094 0.414062 C 10.359375 0.414062 13.078125 -1.472656 14.132812 -4.667969 L 15.574219 0 L 18.097656 0 L 18.097656 -9.242188 C 18.097656 -14.675781 15.382812 -17.363281 9.882812 -17.363281 Z M 8.347656 -3.550781 C 7.003906 -3.550781 6.363281 -4.1875 6.363281 -5.019531 C 6.363281 -6.269531 7.867188 -7.226562 11.414062 -7.769531 L 13.144531 -7.996094 C 13.144531 -5.597656 11.0625 -3.550781 8.347656 -3.550781 Z M 8.347656 -3.550781 "/></g></g></g><g fill="#000000" fill-opacity="1"><g transform="translate(529.501182, 269.103058)"><g><path d="M 11.289062 -17.363281 C 9.050781 -17.363281 7.035156 -15.894531 6.203125 -11.832031 L 4.636719 -16.949219 L 2.078125 -16.949219 L 2.078125 0 L 7.226562 0 L 7.226562 -6.8125 C 7.226562 -10.519531 8.347656 -11.894531 10.9375 -11.894531 C 11.960938 -11.894531 12.757812 -11.800781 13.398438 -11.734375 L 13.398438 -17.074219 C 12.984375 -17.203125 12.28125 -17.363281 11.289062 -17.363281 Z M 11.289062 -17.363281 "/></g></g></g><g fill="#000000" fill-opacity="1"><g transform="translate(391.089492, 307.332177)"><g><path d="M 8.890625 -6.875 L 5.019531 -16.949219 L -0.222656 -16.949219 L 6.683594 0 L 11.03125 0 L 17.972656 -16.949219 L 12.757812 -16.949219 Z M 8.890625 -6.875 "/></g></g></g><g fill="#000000" fill-opacity="1"><g transform="translate(408.835434, 307.332177)"><g><path d="M 9.882812 -17.363281 C 4.507812 -17.363281 2.015625 -14.804688 1.535156 -11.097656 L 6.683594 -11.097656 C 6.972656 -12.472656 7.835938 -13.335938 9.847656 -13.335938 C 11.800781 -13.335938 12.726562 -12.597656 12.984375 -10.777344 L 10.039062 -10.359375 C 3.871094 -9.464844 1.152344 -7.417969 1.152344 -3.964844 C 1.152344 -1.535156 3.132812 0.414062 6.621094 0.414062 C 10.359375 0.414062 13.078125 -1.472656 14.132812 -4.667969 L 15.574219 0 L 18.097656 0 L 18.097656 -9.242188 C 18.097656 -14.675781 15.382812 -17.363281 9.882812 -17.363281 Z M 8.347656 -3.550781 C 7.003906 -3.550781 6.363281 -4.1875 6.363281 -5.019531 C 6.363281 -6.269531 7.867188 -7.226562 11.414062 -7.769531 L 13.144531 -7.996094 C 13.144531 -5.597656 11.0625 -3.550781 8.347656 -3.550781 Z M 8.347656 -3.550781 "/></g></g></g><g fill="#000000" fill-opacity="1"><g transform="translate(428.563805, 307.332177)"><g><path d="M 11.289062 -17.363281 C 9.050781 -17.363281 7.035156 -15.894531 6.203125 -11.832031 L 4.636719 -16.949219 L 2.078125 -16.949219 L 2.078125 0 L 7.226562 0 L 7.226562 -6.8125 C 7.226562 -10.519531 8.347656 -11.894531 10.9375 -11.894531 C 11.960938 -11.894531 12.757812 -11.800781 13.398438 -11.734375 L 13.398438 -17.074219 C 12.984375 -17.203125 12.28125 -17.363281 11.289062 -17.363281 Z M 11.289062 -17.363281 "/></g></g></g><g fill="#000000" fill-opacity="1"><g transform="translate(442.536734, 307.332177)"><g><path d="M 7.484375 -21.871094 C 7.484375 -20.210938 6.394531 -19.15625 4.636719 -19.15625 C 2.847656 -19.15625 1.757812 -20.210938 1.757812 -21.871094 C 1.757812 -23.503906 2.847656 -24.589844 4.636719 -24.589844 C 6.394531 -24.589844 7.484375 -23.503906 7.484375 -21.871094 Z M 7.195312 0 L 7.195312 -16.949219 L 2.078125 -16.949219 L 2.078125 0 Z M 7.195312 0 "/></g></g></g><g fill="#000000" fill-opacity="1"><g transform="translate(451.809394, 307.332177)"><g><path d="M 8.027344 -19.25 L 10.488281 -24.71875 L 15.476562 -24.71875 L 11.574219 -19.25 Z M 9.882812 -17.363281 C 4.507812 -17.363281 2.015625 -14.804688 1.535156 -11.097656 L 6.683594 -11.097656 C 6.972656 -12.472656 7.835938 -13.335938 9.847656 -13.335938 C 11.800781 -13.335938 12.726562 -12.597656 12.984375 -10.777344 L 10.039062 -10.359375 C 3.871094 -9.464844 1.152344 -7.417969 1.152344 -3.964844 C 1.152344 -1.535156 3.132812 0.414062 6.621094 0.414062 C 10.359375 0.414062 13.078125 -1.472656 14.132812 -4.667969 L 15.574219 0 L 18.097656 0 L 18.097656 -9.242188 C 18.097656 -14.675781 15.382812 -17.363281 9.882812 -17.363281 Z M 8.347656 -3.550781 C 7.003906 -3.550781 6.363281 -4.1875 6.363281 -5.019531 C 6.363281 -6.269531 7.867188 -7.226562 11.414062 -7.769531 L 13.144531 -7.996094 C 13.144531 -5.597656 11.0625 -3.550781 8.347656 -3.550781 Z M 8.347656 -3.550781 "/></g></g></g><g fill="#000000" fill-opacity="1"><g transform="translate(471.537766, 307.332177)"><g><path d="M 8.890625 -6.875 L 5.019531 -16.949219 L -0.222656 -16.949219 L 6.683594 0 L 11.03125 0 L 17.972656 -16.949219 L 12.757812 -16.949219 Z M 8.890625 -6.875 "/></g></g></g><g fill="#000000" fill-opacity="1"><g transform="translate(489.283708, 307.332177)"><g><path d="M 18.867188 -9.496094 C 18.867188 -14.070312 15.574219 -17.363281 10.136719 -17.363281 C 4.414062 -17.363281 0.992188 -13.972656 0.992188 -8.792969 L 0.992188 -8.152344 C 0.992188 -2.972656 4.414062 0.414062 10.039062 0.414062 C 15.382812 0.414062 18.066406 -2.429688 18.578125 -5.660156 L 13.269531 -5.660156 C 12.789062 -4.476562 11.925781 -3.613281 9.785156 -3.613281 C 7.609375 -3.613281 6.269531 -4.699219 5.980469 -7.355469 L 18.738281 -7.355469 C 18.835938 -8.058594 18.867188 -8.601562 18.867188 -9.496094 Z M 10.007812 -13.460938 C 12.183594 -13.460938 13.496094 -12.4375 13.75 -10.167969 L 6.011719 -10.167969 C 6.394531 -12.472656 7.769531 -13.460938 10.007812 -13.460938 Z M 10.007812 -13.460938 "/></g></g></g><g fill="#000000" fill-opacity="1"><g transform="translate(509.171957, 307.332177)"><g><path d="M 7.484375 -21.871094 C 7.484375 -20.210938 6.394531 -19.15625 4.636719 -19.15625 C 2.847656 -19.15625 1.757812 -20.210938 1.757812 -21.871094 C 1.757812 -23.503906 2.847656 -24.589844 4.636719 -24.589844 C 6.394531 -24.589844 7.484375 -23.503906 7.484375 -21.871094 Z M 7.195312 0 L 7.195312 -16.949219 L 2.078125 -16.949219 L 2.078125 0 Z M 7.195312 0 "/></g></g></g><g fill="#000000" fill-opacity="1"><g transform="translate(518.444618, 307.332177)"><g><path d="M 0.734375 -5.691406 C 1.121094 -2.109375 3.484375 0.414062 9.6875 0.414062 C 15.476562 0.414062 18.066406 -2.175781 18.066406 -4.796875 C 18.066406 -7.484375 16.371094 -9.371094 10.777344 -10.039062 C 6.554688 -10.550781 5.980469 -11.160156 5.980469 -12.023438 C 5.980469 -12.757812 6.714844 -13.558594 9.113281 -13.558594 C 11.609375 -13.558594 12.4375 -12.726562 12.664062 -11.320312 L 17.683594 -11.320312 C 17.332031 -14.742188 14.871094 -17.363281 9.050781 -17.363281 C 3.582031 -17.363281 1.054688 -14.871094 1.054688 -12.152344 C 1.054688 -9.402344 2.71875 -7.675781 8.472656 -6.972656 C 12.535156 -6.460938 13.109375 -5.851562 13.109375 -4.988281 C 13.109375 -4.222656 12.3125 -3.421875 9.6875 -3.421875 C 6.972656 -3.421875 6.042969 -4.347656 5.757812 -5.691406 Z M 0.734375 -5.691406 "/></g></g></g><path stroke-linecap="butt" transform="matrix(0.00000000130828, 0.749591, -0.749591, 0.00000000130828, 467.233626, 337.513213)" fill="none" stroke-linejoin="miter" d="M -0.00199305 4.001185 L 135.738774 4.001185 " stroke="#000000" stroke-width="8" stroke-opacity="1" stroke-miterlimit="4"/><path stroke-linecap="round" transform="matrix(0.00000000130828, 0.749591, -0.749591, 0.00000000130828, 467.233626, 337.513213)" fill="none" stroke-linejoin="round" d="M 119.740457 -8.000158 L 135.738774 4.001185 L 119.740457 16.002528 " stroke="#000000" stroke-width="8" stroke-opacity="1" stroke-miterlimit="4"/><g clip-path="url(#704937f547)"><g clip-path="url(#c4bed28869)"><path fill="#d398d8" d="M 316.175781 442.257812 L 612.457031 442.257812 L 612.457031 565.386719 L 316.175781 565.386719 Z M 316.175781 442.257812 " fill-opacity="1" fill-rule="nonzero"/></g></g><g clip-path="url(#7e85b066af)"><g clip-path="url(#4c6a40aced)"><path stroke-linecap="butt" transform="matrix(0.749591, 0, 0, 0.749591, 316.18346, 442.258482)" fill="none" stroke-linejoin="miter" d="M 23.997652 -0.000892628 L 371.01519 -0.000892628 C 384.272426 -0.000892628 395.012663 10.744556 395.012663 23.996581 L 395.012663 140.252745 C 395.012663 153.50477 384.272426 164.250219 371.01519 164.250219 L 23.997652 164.250219 C 10.745627 164.250219 0.000178213 153.50477 0.000178213 140.252745 L 0.000178213 23.996581 C 0.000178213 10.744556 10.745627 -0.000892628 23.997652 -0.000892628 Z M 23.997652 -0.000892628 " stroke="#000000" stroke-width="4" stroke-opacity="1" stroke-miterlimit="4"/></g></g><g fill="#000000" fill-opacity="1"><g transform="translate(360.403128, 496.978594)"><g><path d="M 8.441406 -18.675781 L 8.441406 0 L 13.78125 0 L 13.78125 -18.675781 L 21.554688 -18.675781 L 21.554688 -23.34375 L 0.640625 -23.34375 L 0.640625 -18.675781 Z M 8.441406 -18.675781 "/></g></g></g><g fill="#000000" fill-opacity="1"><g transform="translate(382.593553, 496.978594)"><g><path d="M 18.867188 -9.496094 C 18.867188 -14.070312 15.574219 -17.363281 10.136719 -17.363281 C 4.414062 -17.363281 0.992188 -13.972656 0.992188 -8.792969 L 0.992188 -8.152344 C 0.992188 -2.972656 4.414062 0.414062 10.039062 0.414062 C 15.382812 0.414062 18.066406 -2.429688 18.578125 -5.660156 L 13.269531 -5.660156 C 12.789062 -4.476562 11.925781 -3.613281 9.785156 -3.613281 C 7.609375 -3.613281 6.269531 -4.699219 5.980469 -7.355469 L 18.738281 -7.355469 C 18.835938 -8.058594 18.867188 -8.601562 18.867188 -9.496094 Z M 10.007812 -13.460938 C 12.183594 -13.460938 13.496094 -12.4375 13.75 -10.167969 L 6.011719 -10.167969 C 6.394531 -12.472656 7.769531 -13.460938 10.007812 -13.460938 Z M 10.007812 -13.460938 "/></g></g></g><g fill="#000000" fill-opacity="1"><g transform="translate(402.481803, 496.978594)"><g><path d="M 7.226562 -23.34375 L 2.140625 -23.34375 L 2.140625 0 L 7.226562 0 Z M 7.226562 -23.34375 "/></g></g></g><g fill="#000000" fill-opacity="1"><g transform="translate(411.850381, 496.978594)"><g><path d="M 9.882812 -17.363281 C 4.507812 -17.363281 2.015625 -14.804688 1.535156 -11.097656 L 6.683594 -11.097656 C 6.972656 -12.472656 7.835938 -13.335938 9.847656 -13.335938 C 11.800781 -13.335938 12.726562 -12.597656 12.984375 -10.777344 L 10.039062 -10.359375 C 3.871094 -9.464844 1.152344 -7.417969 1.152344 -3.964844 C 1.152344 -1.535156 3.132812 0.414062 6.621094 0.414062 C 10.359375 0.414062 13.078125 -1.472656 14.132812 -4.667969 L 15.574219 0 L 18.097656 0 L 18.097656 -9.242188 C 18.097656 -14.675781 15.382812 -17.363281 9.882812 -17.363281 Z M 8.347656 -3.550781 C 7.003906 -3.550781 6.363281 -4.1875 6.363281 -5.019531 C 6.363281 -6.269531 7.867188 -7.226562 11.414062 -7.769531 L 13.144531 -7.996094 C 13.144531 -5.597656 11.0625 -3.550781 8.347656 -3.550781 Z M 8.347656 -3.550781 "/></g></g></g><g fill="#000000" fill-opacity="1"><g transform="translate(431.578753, 496.978594)"><g/></g></g><g fill="#000000" fill-opacity="1"><g transform="translate(441.235107, 496.978594)"><g><path d="M 7.484375 -21.871094 C 7.484375 -20.210938 6.394531 -19.15625 4.636719 -19.15625 C 2.847656 -19.15625 1.757812 -20.210938 1.757812 -21.871094 C 1.757812 -23.503906 2.847656 -24.589844 4.636719 -24.589844 C 6.394531 -24.589844 7.484375 -23.503906 7.484375 -21.871094 Z M 7.195312 0 L 7.195312 -16.949219 L 2.078125 -16.949219 L 2.078125 0 Z M 7.195312 0 "/></g></g></g><g fill="#000000" fill-opacity="1"><g transform="translate(450.507768, 496.978594)"><g><path d="M 12.4375 -17.363281 C 9.433594 -17.363281 7.097656 -15.699219 6.203125 -11.992188 L 4.636719 -16.949219 L 2.078125 -16.949219 L 2.078125 0 L 7.226562 0 L 7.226562 -8.21875 C 7.226562 -11.414062 8.664062 -12.855469 10.746094 -12.855469 C 12.757812 -12.855469 13.75 -11.863281 13.75 -9.019531 L 13.75 0 L 18.835938 0 L 18.835938 -9.753906 C 18.835938 -14.773438 16.246094 -17.363281 12.4375 -17.363281 Z M 12.4375 -17.363281 "/></g></g></g><g fill="#000000" fill-opacity="1"><g transform="translate(471.035507, 496.978594)"><g><path d="M 7.484375 -21.871094 C 7.484375 -20.210938 6.394531 -19.15625 4.636719 -19.15625 C 2.847656 -19.15625 1.757812 -20.210938 1.757812 -21.871094 C 1.757812 -23.503906 2.847656 -24.589844 4.636719 -24.589844 C 6.394531 -24.589844 7.484375 -23.503906 7.484375 -21.871094 Z M 7.195312 0 L 7.195312 -16.949219 L 2.078125 -16.949219 L 2.078125 0 Z M 7.195312 0 "/></g></g></g><g fill="#000000" fill-opacity="1"><g transform="translate(480.308168, 496.978594)"><g><path d="M 0.992188 -8.152344 C 0.992188 -2.972656 4.414062 0.414062 10.074219 0.414062 C 15.316406 0.414062 18.355469 -2.335938 18.867188 -6.777344 L 13.621094 -6.777344 C 13.207031 -4.828125 12.054688 -3.902344 10.007812 -3.902344 C 7.609375 -3.902344 6.140625 -5.371094 6.140625 -8.472656 C 6.140625 -11.574219 7.609375 -13.046875 10.007812 -13.046875 C 12.054688 -13.046875 13.207031 -12.121094 13.589844 -10.167969 L 18.835938 -10.167969 C 18.324219 -14.613281 15.285156 -17.363281 10.074219 -17.363281 C 4.414062 -17.363281 0.992188 -13.972656 0.992188 -8.792969 Z M 0.992188 -8.152344 "/></g></g></g><g fill="#000000" fill-opacity="1"><g transform="translate(500.132469, 496.978594)"><g><path d="M 7.484375 -21.871094 C 7.484375 -20.210938 6.394531 -19.15625 4.636719 -19.15625 C 2.847656 -19.15625 1.757812 -20.210938 1.757812 -21.871094 C 1.757812 -23.503906 2.847656 -24.589844 4.636719 -24.589844 C 6.394531 -24.589844 7.484375 -23.503906 7.484375 -21.871094 Z M 7.195312 0 L 7.195312 -16.949219 L 2.078125 -16.949219 L 2.078125 0 Z M 7.195312 0 "/></g></g></g><g fill="#000000" fill-opacity="1"><g transform="translate(509.405129, 496.978594)"><g><path d="M 9.882812 -17.363281 C 4.507812 -17.363281 2.015625 -14.804688 1.535156 -11.097656 L 6.683594 -11.097656 C 6.972656 -12.472656 7.835938 -13.335938 9.847656 -13.335938 C 11.800781 -13.335938 12.726562 -12.597656 12.984375 -10.777344 L 10.039062 -10.359375 C 3.871094 -9.464844 1.152344 -7.417969 1.152344 -3.964844 C 1.152344 -1.535156 3.132812 0.414062 6.621094 0.414062 C 10.359375 0.414062 13.078125 -1.472656 14.132812 -4.667969 L 15.574219 0 L 18.097656 0 L 18.097656 -9.242188 C 18.097656 -14.675781 15.382812 -17.363281 9.882812 -17.363281 Z M 8.347656 -3.550781 C 7.003906 -3.550781 6.363281 -4.1875 6.363281 -5.019531 C 6.363281 -6.269531 7.867188 -7.226562 11.414062 -7.769531 L 13.144531 -7.996094 C 13.144531 -5.597656 11.0625 -3.550781 8.347656 -3.550781 Z M 8.347656 -3.550781 "/></g></g></g><g fill="#000000" fill-opacity="1"><g transform="translate(529.133501, 496.978594)"><g><path d="M 7.226562 -23.34375 L 2.140625 -23.34375 L 2.140625 0 L 7.226562 0 Z M 7.226562 -23.34375 "/></g></g></g><g fill="#000000" fill-opacity="1"><g transform="translate(538.502079, 496.978594)"><g/></g></g><g fill="#000000" fill-opacity="1"><g transform="translate(548.158434, 496.978594)"><g><path d="M 7.996094 -19.25 L 10.457031 -24.71875 L 15.445312 -24.71875 L 11.542969 -19.25 Z M 18.867188 -9.496094 C 18.867188 -14.070312 15.574219 -17.363281 10.136719 -17.363281 C 4.414062 -17.363281 0.992188 -13.972656 0.992188 -8.792969 L 0.992188 -8.152344 C 0.992188 -2.972656 4.414062 0.414062 10.039062 0.414062 C 15.382812 0.414062 18.066406 -2.429688 18.578125 -5.660156 L 13.269531 -5.660156 C 12.789062 -4.476562 11.925781 -3.613281 9.785156 -3.613281 C 7.609375 -3.613281 6.269531 -4.699219 5.980469 -7.355469 L 18.738281 -7.355469 C 18.835938 -8.058594 18.867188 -8.601562 18.867188 -9.496094 Z M 10.007812 -13.460938 C 12.183594 -13.460938 13.496094 -12.4375 13.75 -10.167969 L 6.011719 -10.167969 C 6.394531 -12.472656 7.769531 -13.460938 10.007812 -13.460938 Z M 10.007812 -13.460938 "/></g></g></g><g fill="#000000" fill-opacity="1"><g transform="translate(383.581874, 535.207713)"><g><path d="M 23.632812 -17.269531 C 21.199219 -17.269531 19.058594 -15.859375 17.972656 -12.949219 C 17.074219 -15.894531 14.933594 -17.363281 12.28125 -17.363281 C 9.371094 -17.363281 7.066406 -15.734375 6.171875 -12.023438 L 4.636719 -16.949219 L 2.078125 -16.949219 L 2.078125 0 L 7.226562 0 L 7.226562 -8.21875 C 7.226562 -11.414062 8.664062 -12.855469 10.519531 -12.855469 C 12.34375 -12.855469 13.335938 -11.863281 13.335938 -9.019531 L 13.335938 0 L 18.417969 0 L 18.417969 -8.21875 C 18.417969 -11.382812 19.921875 -12.855469 21.746094 -12.855469 C 23.566406 -12.855469 24.558594 -11.863281 24.558594 -9.113281 L 24.558594 0 L 29.644531 0 L 29.644531 -9.496094 C 29.644531 -14.710938 27.085938 -17.269531 23.632812 -17.269531 Z M 23.632812 -17.269531 "/></g></g></g><g fill="#000000" fill-opacity="1"><g transform="translate(414.91705, 535.207713)"><g><path d="M 10.105469 0.414062 C 15.796875 0.414062 19.1875 -2.972656 19.1875 -8.121094 L 19.1875 -8.824219 C 19.1875 -13.972656 15.796875 -17.363281 10.105469 -17.363281 C 4.414062 -17.363281 0.992188 -13.972656 0.992188 -8.824219 L 0.992188 -8.121094 C 0.992188 -2.972656 4.414062 0.414062 10.105469 0.414062 Z M 10.105469 -3.871094 C 7.609375 -3.871094 6.140625 -5.371094 6.140625 -8.507812 C 6.140625 -11.574219 7.609375 -13.078125 10.105469 -13.078125 C 12.566406 -13.078125 14.070312 -11.574219 14.070312 -8.507812 C 14.070312 -5.371094 12.566406 -3.871094 10.105469 -3.871094 Z M 10.105469 -3.871094 "/></g></g></g><g fill="#000000" fill-opacity="1"><g transform="translate(435.125045, 535.207713)"><g><path d="M 0.734375 -5.691406 C 1.121094 -2.109375 3.484375 0.414062 9.6875 0.414062 C 15.476562 0.414062 18.066406 -2.175781 18.066406 -4.796875 C 18.066406 -7.484375 16.371094 -9.371094 10.777344 -10.039062 C 6.554688 -10.550781 5.980469 -11.160156 5.980469 -12.023438 C 5.980469 -12.757812 6.714844 -13.558594 9.113281 -13.558594 C 11.609375 -13.558594 12.4375 -12.726562 12.664062 -11.320312 L 17.683594 -11.320312 C 17.332031 -14.742188 14.871094 -17.363281 9.050781 -17.363281 C 3.582031 -17.363281 1.054688 -14.871094 1.054688 -12.152344 C 1.054688 -9.402344 2.71875 -7.675781 8.472656 -6.972656 C 12.535156 -6.460938 13.109375 -5.851562 13.109375 -4.988281 C 13.109375 -4.222656 12.3125 -3.421875 9.6875 -3.421875 C 6.972656 -3.421875 6.042969 -4.347656 5.757812 -5.691406 Z M 0.734375 -5.691406 "/></g></g></g><g fill="#000000" fill-opacity="1"><g transform="translate(454.054049, 535.207713)"><g><path d="M 14.933594 -16.949219 L 9.113281 -16.949219 L 9.113281 -21.96875 L 6.109375 -21.96875 L 4.1875 -16.949219 L 0.640625 -16.949219 L 0.640625 -12.664062 L 4.027344 -12.664062 L 4.027344 -6.300781 C 4.027344 -1.695312 6.171875 0.414062 11 0.414062 C 12.855469 0.414062 14.167969 0.191406 14.964844 0 L 14.964844 -4.253906 C 14.199219 -4.125 13.175781 -3.964844 11.960938 -3.964844 C 9.753906 -3.964844 9.113281 -4.636719 9.113281 -7.003906 L 9.113281 -12.664062 L 14.933594 -12.664062 Z M 14.933594 -16.949219 "/></g></g></g><g fill="#000000" fill-opacity="1"><g transform="translate(470.233235, 535.207713)"><g><path d="M 11.289062 -17.363281 C 9.050781 -17.363281 7.035156 -15.894531 6.203125 -11.832031 L 4.636719 -16.949219 L 2.078125 -16.949219 L 2.078125 0 L 7.226562 0 L 7.226562 -6.8125 C 7.226562 -10.519531 8.347656 -11.894531 10.9375 -11.894531 C 11.960938 -11.894531 12.757812 -11.800781 13.398438 -11.734375 L 13.398438 -17.074219 C 12.984375 -17.203125 12.28125 -17.363281 11.289062 -17.363281 Z M 11.289062 -17.363281 "/></g></g></g><g fill="#000000" fill-opacity="1"><g transform="translate(484.206163, 535.207713)"><g><path d="M 9.882812 -17.363281 C 4.507812 -17.363281 2.015625 -14.804688 1.535156 -11.097656 L 6.683594 -11.097656 C 6.972656 -12.472656 7.835938 -13.335938 9.847656 -13.335938 C 11.800781 -13.335938 12.726562 -12.597656 12.984375 -10.777344 L 10.039062 -10.359375 C 3.871094 -9.464844 1.152344 -7.417969 1.152344 -3.964844 C 1.152344 -1.535156 3.132812 0.414062 6.621094 0.414062 C 10.359375 0.414062 13.078125 -1.472656 14.132812 -4.667969 L 15.574219 0 L 18.097656 0 L 18.097656 -9.242188 C 18.097656 -14.675781 15.382812 -17.363281 9.882812 -17.363281 Z M 8.347656 -3.550781 C 7.003906 -3.550781 6.363281 -4.1875 6.363281 -5.019531 C 6.363281 -6.269531 7.867188 -7.226562 11.414062 -7.769531 L 13.144531 -7.996094 C 13.144531 -5.597656 11.0625 -3.550781 8.347656 -3.550781 Z M 8.347656 -3.550781 "/></g></g></g><g fill="#000000" fill-opacity="1"><g transform="translate(503.934535, 535.207713)"><g><path d="M 14.039062 -13.71875 C 12.886719 -16.085938 10.746094 -17.363281 8.28125 -17.363281 C 4.285156 -17.363281 0.992188 -14.070312 0.992188 -8.792969 L 0.992188 -8.152344 C 0.992188 -2.878906 4.285156 0.414062 8.28125 0.414062 C 11.511719 0.414062 14.132812 -1.535156 14.996094 -4.988281 L 16.597656 0 L 19.121094 0 L 19.121094 -23.34375 L 14.039062 -23.34375 Z M 10.074219 -3.996094 C 7.609375 -3.996094 6.140625 -5.46875 6.140625 -8.441406 C 6.140625 -11.480469 7.609375 -12.949219 10.074219 -12.949219 C 12.472656 -12.949219 14.039062 -11.414062 14.039062 -8.441406 C 14.039062 -5.53125 12.472656 -3.996094 10.074219 -3.996094 Z M 10.074219 -3.996094 "/></g></g></g><g fill="#000000" fill-opacity="1"><g transform="translate(525.133745, 535.207713)"><g><path d="M 9.882812 -17.363281 C 4.507812 -17.363281 2.015625 -14.804688 1.535156 -11.097656 L 6.683594 -11.097656 C 6.972656 -12.472656 7.835938 -13.335938 9.847656 -13.335938 C 11.800781 -13.335938 12.726562 -12.597656 12.984375 -10.777344 L 10.039062 -10.359375 C 3.871094 -9.464844 1.152344 -7.417969 1.152344 -3.964844 C 1.152344 -1.535156 3.132812 0.414062 6.621094 0.414062 C 10.359375 0.414062 13.078125 -1.472656 14.132812 -4.667969 L 15.574219 0 L 18.097656 0 L 18.097656 -9.242188 C 18.097656 -14.675781 15.382812 -17.363281 9.882812 -17.363281 Z M 8.347656 -3.550781 C 7.003906 -3.550781 6.363281 -4.1875 6.363281 -5.019531 C 6.363281 -6.269531 7.867188 -7.226562 11.414062 -7.769531 L 13.144531 -7.996094 C 13.144531 -5.597656 11.0625 -3.550781 8.347656 -3.550781 Z M 8.347656 -3.550781 "/></g></g></g><g clip-path="url(#6bf4858ff9)"><g clip-path="url(#20ffdf3e2f)"><path fill="#e152cb" d="M 215.992188 681.101562 L 712.644531 681.101562 L 712.644531 991.964844 L 215.992188 991.964844 Z M 215.992188 681.101562 " fill-opacity="1" fill-rule="nonzero"/></g></g><g clip-path="url(#7233ee7961)"><g clip-path="url(#5d59672397)"><path stroke-linecap="butt" transform="matrix(0.749591, 0, 0, 0.749591, 215.997021, 681.103394)" fill="none" stroke-linejoin="miter" d="M 351.508358 12.733676 L 641.989847 194.614213 C 646.377659 197.360504 649.045782 202.175633 649.045782 207.350332 C 649.045782 212.530243 646.377659 217.340161 641.989847 220.086452 L 351.508358 401.966989 C 339.064065 409.757701 323.268984 409.757701 310.824691 401.966989 L 20.343202 220.086452 C 15.95539 217.340161 13.287267 212.530243 13.287267 207.350332 C 13.287267 202.175633 15.95539 197.360504 20.343202 194.614213 L 310.824691 12.733676 C 323.268984 4.948176 339.064065 4.948176 351.508358 12.733676 Z M 351.508358 12.733676 " stroke="#000000" stroke-width="8" stroke-opacity="1" stroke-miterlimit="4"/></g></g><g fill="#000000" fill-opacity="1"><g transform="translate(346.012075, 826.523967)"><g><path d="M 22.417969 -1.664062 C 21.746094 -1.664062 21.167969 -1.886719 20.65625 -2.300781 C 22.863281 -4.316406 24.078125 -7.324219 24.078125 -11.097656 L 24.078125 -12.246094 C 24.078125 -19.378906 19.699219 -23.757812 12.566406 -23.757812 C 5.402344 -23.757812 1.023438 -19.378906 1.023438 -12.246094 L 1.023438 -11.097656 C 1.023438 -3.964844 5.402344 0.414062 12.566406 0.414062 C 14.070312 0.414062 15.476562 0.222656 16.722656 -0.160156 C 17.8125 1.472656 19.378906 2.71875 22 2.71875 C 23.34375 2.71875 24.175781 2.558594 24.78125 2.367188 L 24.78125 -2.046875 C 24.367188 -1.886719 23.535156 -1.664062 22.417969 -1.664062 Z M 6.332031 -12.152344 C 6.332031 -16.757812 8.730469 -19.15625 12.566406 -19.15625 C 16.40625 -19.15625 18.804688 -16.757812 18.804688 -12.152344 L 18.804688 -11.191406 C 18.804688 -9.273438 18.386719 -7.769531 17.621094 -6.683594 C 16.246094 -8.953125 14.582031 -11.222656 11.574219 -11.222656 C 9.113281 -11.222656 7.675781 -9.59375 7.675781 -7.386719 C 7.675781 -7.035156 7.769531 -6.714844 7.898438 -6.394531 C 6.875 -7.449219 6.332031 -9.050781 6.332031 -11.191406 Z M 12.535156 -4.027344 C 10.710938 -4.027344 9.625 -5.117188 9.625 -6.652344 C 9.625 -7.800781 10.328125 -8.507812 11.382812 -8.507812 C 13.207031 -8.507812 14.007812 -6.621094 14.871094 -4.382812 C 14.199219 -4.15625 13.429688 -4.027344 12.535156 -4.027344 Z M 12.535156 -4.027344 "/></g></g></g><g fill="#000000" fill-opacity="1"><g transform="translate(371.240094, 826.523967)"><g><path d="M 13.269531 -8.730469 C 13.269531 -5.53125 11.832031 -4.09375 9.785156 -4.09375 C 7.738281 -4.09375 6.777344 -5.085938 6.777344 -7.929688 L 6.777344 -16.949219 L 1.695312 -16.949219 L 1.695312 -7.195312 C 1.695312 -2.175781 4.285156 0.414062 8.058594 0.414062 C 11.03125 0.414062 13.367188 -1.246094 14.261719 -4.925781 L 15.828125 0 L 18.386719 0 L 18.386719 -16.949219 L 13.269531 -16.949219 Z M 13.269531 -8.730469 "/></g></g></g><g fill="#000000" fill-opacity="1"><g transform="translate(391.703885, 826.523967)"><g><path d="M 9.882812 -17.363281 C 4.507812 -17.363281 2.015625 -14.804688 1.535156 -11.097656 L 6.683594 -11.097656 C 6.972656 -12.472656 7.835938 -13.335938 9.847656 -13.335938 C 11.800781 -13.335938 12.726562 -12.597656 12.984375 -10.777344 L 10.039062 -10.359375 C 3.871094 -9.464844 1.152344 -7.417969 1.152344 -3.964844 C 1.152344 -1.535156 3.132812 0.414062 6.621094 0.414062 C 10.359375 0.414062 13.078125 -1.472656 14.132812 -4.667969 L 15.574219 0 L 18.097656 0 L 18.097656 -9.242188 C 18.097656 -14.675781 15.382812 -17.363281 9.882812 -17.363281 Z M 8.347656 -3.550781 C 7.003906 -3.550781 6.363281 -4.1875 6.363281 -5.019531 C 6.363281 -6.269531 7.867188 -7.226562 11.414062 -7.769531 L 13.144531 -7.996094 C 13.144531 -5.597656 11.0625 -3.550781 8.347656 -3.550781 Z M 8.347656 -3.550781 "/></g></g></g><g fill="#000000" fill-opacity="1"><g transform="translate(411.432257, 826.523967)"><g><path d="M 7.226562 -23.34375 L 2.140625 -23.34375 L 2.140625 0 L 7.226562 0 Z M 7.226562 -23.34375 "/></g></g></g><g fill="#000000" fill-opacity="1"><g transform="translate(420.800835, 826.523967)"><g/></g></g><g fill="#000000" fill-opacity="1"><g transform="translate(430.45719, 826.523967)"><g><path d="M 12.949219 -17.363281 C 10.457031 -17.363281 8.347656 -16.085938 7.195312 -13.71875 L 7.195312 -23.34375 L 2.078125 -23.34375 L 2.078125 0 L 4.636719 0 L 6.203125 -4.988281 C 7.097656 -1.535156 9.6875 0.414062 12.949219 0.414062 C 16.917969 0.414062 20.210938 -2.878906 20.210938 -8.152344 L 20.210938 -8.792969 C 20.210938 -14.070312 16.917969 -17.363281 12.949219 -17.363281 Z M 11.160156 -3.996094 C 8.730469 -3.996094 7.195312 -5.53125 7.195312 -8.441406 C 7.195312 -11.414062 8.730469 -12.949219 11.160156 -12.949219 C 13.589844 -12.949219 15.09375 -11.480469 15.09375 -8.441406 C 15.09375 -5.46875 13.589844 -3.996094 11.160156 -3.996094 Z M 11.160156 -3.996094 "/></g></g></g><g fill="#000000" fill-opacity="1"><g transform="translate(451.6564, 826.523967)"><g><path d="M 10.105469 0.414062 C 15.796875 0.414062 19.1875 -2.972656 19.1875 -8.121094 L 19.1875 -8.824219 C 19.1875 -13.972656 15.796875 -17.363281 10.105469 -17.363281 C 4.414062 -17.363281 0.992188 -13.972656 0.992188 -8.824219 L 0.992188 -8.121094 C 0.992188 -2.972656 4.414062 0.414062 10.105469 0.414062 Z M 10.105469 -3.871094 C 7.609375 -3.871094 6.140625 -5.371094 6.140625 -8.507812 C 6.140625 -11.574219 7.609375 -13.078125 10.105469 -13.078125 C 12.566406 -13.078125 14.070312 -11.574219 14.070312 -8.507812 C 14.070312 -5.371094 12.566406 -3.871094 10.105469 -3.871094 Z M 10.105469 -3.871094 "/></g></g></g><g fill="#000000" fill-opacity="1"><g transform="translate(471.864395, 826.523967)"><g><path d="M 14.933594 -16.949219 L 9.113281 -16.949219 L 9.113281 -21.96875 L 6.109375 -21.96875 L 4.1875 -16.949219 L 0.640625 -16.949219 L 0.640625 -12.664062 L 4.027344 -12.664062 L 4.027344 -6.300781 C 4.027344 -1.695312 6.171875 0.414062 11 0.414062 C 12.855469 0.414062 14.167969 0.191406 14.964844 0 L 14.964844 -4.253906 C 14.199219 -4.125 13.175781 -3.964844 11.960938 -3.964844 C 9.753906 -3.964844 9.113281 -4.636719 9.113281 -7.003906 L 9.113281 -12.664062 L 14.933594 -12.664062 Z M 14.933594 -16.949219 "/></g></g></g><g fill="#000000" fill-opacity="1"><g transform="translate(488.04358, 826.523967)"><g><path d="M 3.515625 -19.25 C 3.515625 -23.3125 4.890625 -24.6875 7.164062 -24.6875 C 9.785156 -24.6875 11.449219 -22.03125 12.566406 -22.03125 C 13.269531 -22.03125 13.65625 -22.417969 13.65625 -24.558594 L 16.46875 -24.558594 C 16.46875 -20.496094 15.125 -19.121094 12.855469 -19.121094 C 10.167969 -19.121094 8.507812 -21.808594 7.449219 -21.808594 C 6.746094 -21.808594 6.363281 -21.394531 6.363281 -19.25 Z M 9.882812 -17.363281 C 4.507812 -17.363281 2.015625 -14.804688 1.535156 -11.097656 L 6.683594 -11.097656 C 6.972656 -12.472656 7.835938 -13.335938 9.847656 -13.335938 C 11.800781 -13.335938 12.726562 -12.597656 12.984375 -10.777344 L 10.039062 -10.359375 C 3.871094 -9.464844 1.152344 -7.417969 1.152344 -3.964844 C 1.152344 -1.535156 3.132812 0.414062 6.621094 0.414062 C 10.359375 0.414062 13.078125 -1.472656 14.132812 -4.667969 L 15.574219 0 L 18.097656 0 L 18.097656 -9.242188 C 18.097656 -14.675781 15.382812 -17.363281 9.882812 -17.363281 Z M 8.347656 -3.550781 C 7.003906 -3.550781 6.363281 -4.1875 6.363281 -5.019531 C 6.363281 -6.269531 7.867188 -7.226562 11.414062 -7.769531 L 13.144531 -7.996094 C 13.144531 -5.597656 11.0625 -3.550781 8.347656 -3.550781 Z M 8.347656 -3.550781 "/></g></g></g><g fill="#000000" fill-opacity="1"><g transform="translate(507.771952, 826.523967)"><g><path d="M 10.105469 0.414062 C 15.796875 0.414062 19.1875 -2.972656 19.1875 -8.121094 L 19.1875 -8.824219 C 19.1875 -13.972656 15.796875 -17.363281 10.105469 -17.363281 C 4.414062 -17.363281 0.992188 -13.972656 0.992188 -8.824219 L 0.992188 -8.121094 C 0.992188 -2.972656 4.414062 0.414062 10.105469 0.414062 Z M 10.105469 -3.871094 C 7.609375 -3.871094 6.140625 -5.371094 6.140625 -8.507812 C 6.140625 -11.574219 7.609375 -13.078125 10.105469 -13.078125 C 12.566406 -13.078125 14.070312 -11.574219 14.070312 -8.507812 C 14.070312 -5.371094 12.566406 -3.871094 10.105469 -3.871094 Z M 10.105469 -3.871094 "/></g></g></g><g fill="#000000" fill-opacity="1"><g transform="translate(527.979947, 826.523967)"><g/></g></g><g fill="#000000" fill-opacity="1"><g transform="translate(537.636301, 826.523967)"><g><path d="M 11.894531 -19.472656 C 13.078125 -19.472656 14.132812 -19.347656 14.804688 -19.28125 L 14.804688 -23.34375 C 14.070312 -23.535156 12.824219 -23.757812 10.96875 -23.757812 C 5.53125 -23.757812 4.125 -21.136719 4.125 -17.363281 L 4.125 -16.308594 L 0.640625 -16.308594 L 0.640625 -12.023438 L 4.125 -12.023438 L 4.125 0 L 9.242188 0 L 9.242188 -12.023438 L 14.804688 -12.023438 L 14.804688 -16.308594 L 9.144531 -16.308594 L 9.144531 -17.011719 C 9.144531 -18.835938 9.785156 -19.472656 11.894531 -19.472656 Z M 11.894531 -19.472656 "/></g></g></g><g fill="#000000" fill-opacity="1"><g transform="translate(552.95217, 826.523967)"><g><path d="M 10.105469 0.414062 C 15.796875 0.414062 19.1875 -2.972656 19.1875 -8.121094 L 19.1875 -8.824219 C 19.1875 -13.972656 15.796875 -17.363281 10.105469 -17.363281 C 4.414062 -17.363281 0.992188 -13.972656 0.992188 -8.824219 L 0.992188 -8.121094 C 0.992188 -2.972656 4.414062 0.414062 10.105469 0.414062 Z M 10.105469 -3.871094 C 7.609375 -3.871094 6.140625 -5.371094 6.140625 -8.507812 C 6.140625 -11.574219 7.609375 -13.078125 10.105469 -13.078125 C 12.566406 -13.078125 14.070312 -11.574219 14.070312 -8.507812 C 14.070312 -5.371094 12.566406 -3.871094 10.105469 -3.871094 Z M 10.105469 -3.871094 "/></g></g></g><g fill="#000000" fill-opacity="1"><g transform="translate(573.160165, 826.523967)"><g><path d="M 7.484375 -21.871094 C 7.484375 -20.210938 6.394531 -19.15625 4.636719 -19.15625 C 2.847656 -19.15625 1.757812 -20.210938 1.757812 -21.871094 C 1.757812 -23.503906 2.847656 -24.589844 4.636719 -24.589844 C 6.394531 -24.589844 7.484375 -23.503906 7.484375 -21.871094 Z M 7.195312 0 L 7.195312 -16.949219 L 2.078125 -16.949219 L 2.078125 0 Z M 7.195312 0 "/></g></g></g><g fill="#000000" fill-opacity="1"><g transform="translate(352.360171, 870.749811)"><g><path d="M 12.949219 -17.363281 C 9.6875 -17.363281 7.097656 -15.414062 6.203125 -11.960938 L 4.636719 -16.949219 L 2.078125 -16.949219 L 2.078125 6.394531 L 7.195312 6.394531 L 7.195312 -3.230469 C 8.347656 -0.863281 10.457031 0.414062 12.949219 0.414062 C 16.917969 0.414062 20.210938 -2.878906 20.210938 -8.152344 L 20.210938 -8.792969 C 20.210938 -14.070312 16.917969 -17.363281 12.949219 -17.363281 Z M 11.160156 -3.996094 C 8.730469 -3.996094 7.195312 -5.53125 7.195312 -8.507812 C 7.195312 -11.414062 8.730469 -12.949219 11.160156 -12.949219 C 13.589844 -12.949219 15.09375 -11.480469 15.09375 -8.507812 C 15.09375 -5.46875 13.589844 -3.996094 11.160156 -3.996094 Z M 11.160156 -3.996094 "/></g></g></g><g fill="#000000" fill-opacity="1"><g transform="translate(373.559381, 870.749811)"><g><path d="M 11.289062 -17.363281 C 9.050781 -17.363281 7.035156 -15.894531 6.203125 -11.832031 L 4.636719 -16.949219 L 2.078125 -16.949219 L 2.078125 0 L 7.226562 0 L 7.226562 -6.8125 C 7.226562 -10.519531 8.347656 -11.894531 10.9375 -11.894531 C 11.960938 -11.894531 12.757812 -11.800781 13.398438 -11.734375 L 13.398438 -17.074219 C 12.984375 -17.203125 12.28125 -17.363281 11.289062 -17.363281 Z M 11.289062 -17.363281 "/></g></g></g><g fill="#000000" fill-opacity="1"><g transform="translate(387.532309, 870.749811)"><g><path d="M 18.867188 -9.496094 C 18.867188 -14.070312 15.574219 -17.363281 10.136719 -17.363281 C 4.414062 -17.363281 0.992188 -13.972656 0.992188 -8.792969 L 0.992188 -8.152344 C 0.992188 -2.972656 4.414062 0.414062 10.039062 0.414062 C 15.382812 0.414062 18.066406 -2.429688 18.578125 -5.660156 L 13.269531 -5.660156 C 12.789062 -4.476562 11.925781 -3.613281 9.785156 -3.613281 C 7.609375 -3.613281 6.269531 -4.699219 5.980469 -7.355469 L 18.738281 -7.355469 C 18.835938 -8.058594 18.867188 -8.601562 18.867188 -9.496094 Z M 10.007812 -13.460938 C 12.183594 -13.460938 13.496094 -12.4375 13.75 -10.167969 L 6.011719 -10.167969 C 6.394531 -12.472656 7.769531 -13.460938 10.007812 -13.460938 Z M 10.007812 -13.460938 "/></g></g></g><g fill="#000000" fill-opacity="1"><g transform="translate(407.420559, 870.749811)"><g><path d="M 0.734375 -5.691406 C 1.121094 -2.109375 3.484375 0.414062 9.6875 0.414062 C 15.476562 0.414062 18.066406 -2.175781 18.066406 -4.796875 C 18.066406 -7.484375 16.371094 -9.371094 10.777344 -10.039062 C 6.554688 -10.550781 5.980469 -11.160156 5.980469 -12.023438 C 5.980469 -12.757812 6.714844 -13.558594 9.113281 -13.558594 C 11.609375 -13.558594 12.4375 -12.726562 12.664062 -11.320312 L 17.683594 -11.320312 C 17.332031 -14.742188 14.871094 -17.363281 9.050781 -17.363281 C 3.582031 -17.363281 1.054688 -14.871094 1.054688 -12.152344 C 1.054688 -9.402344 2.71875 -7.675781 8.472656 -6.972656 C 12.535156 -6.460938 13.109375 -5.851562 13.109375 -4.988281 C 13.109375 -4.222656 12.3125 -3.421875 9.6875 -3.421875 C 6.972656 -3.421875 6.042969 -4.347656 5.757812 -5.691406 Z M 0.734375 -5.691406 "/></g></g></g><g fill="#000000" fill-opacity="1"><g transform="translate(426.349563, 870.749811)"><g><path d="M 0.734375 -5.691406 C 1.121094 -2.109375 3.484375 0.414062 9.6875 0.414062 C 15.476562 0.414062 18.066406 -2.175781 18.066406 -4.796875 C 18.066406 -7.484375 16.371094 -9.371094 10.777344 -10.039062 C 6.554688 -10.550781 5.980469 -11.160156 5.980469 -12.023438 C 5.980469 -12.757812 6.714844 -13.558594 9.113281 -13.558594 C 11.609375 -13.558594 12.4375 -12.726562 12.664062 -11.320312 L 17.683594 -11.320312 C 17.332031 -14.742188 14.871094 -17.363281 9.050781 -17.363281 C 3.582031 -17.363281 1.054688 -14.871094 1.054688 -12.152344 C 1.054688 -9.402344 2.71875 -7.675781 8.472656 -6.972656 C 12.535156 -6.460938 13.109375 -5.851562 13.109375 -4.988281 C 13.109375 -4.222656 12.3125 -3.421875 9.6875 -3.421875 C 6.972656 -3.421875 6.042969 -4.347656 5.757812 -5.691406 Z M 0.734375 -5.691406 "/></g></g></g><g fill="#000000" fill-opacity="1"><g transform="translate(445.278567, 870.749811)"><g><path d="M 7.484375 -21.871094 C 7.484375 -20.210938 6.394531 -19.15625 4.636719 -19.15625 C 2.847656 -19.15625 1.757812 -20.210938 1.757812 -21.871094 C 1.757812 -23.503906 2.847656 -24.589844 4.636719 -24.589844 C 6.394531 -24.589844 7.484375 -23.503906 7.484375 -21.871094 Z M 7.195312 0 L 7.195312 -16.949219 L 2.078125 -16.949219 L 2.078125 0 Z M 7.195312 0 "/></g></g></g><g fill="#000000" fill-opacity="1"><g transform="translate(454.551227, 870.749811)"><g><path d="M 10.105469 0.414062 C 15.796875 0.414062 19.1875 -2.972656 19.1875 -8.121094 L 19.1875 -8.824219 C 19.1875 -13.972656 15.796875 -17.363281 10.105469 -17.363281 C 4.414062 -17.363281 0.992188 -13.972656 0.992188 -8.824219 L 0.992188 -8.121094 C 0.992188 -2.972656 4.414062 0.414062 10.105469 0.414062 Z M 10.105469 -3.871094 C 7.609375 -3.871094 6.140625 -5.371094 6.140625 -8.507812 C 6.140625 -11.574219 7.609375 -13.078125 10.105469 -13.078125 C 12.566406 -13.078125 14.070312 -11.574219 14.070312 -8.507812 C 14.070312 -5.371094 12.566406 -3.871094 10.105469 -3.871094 Z M 10.105469 -3.871094 "/></g></g></g><g fill="#000000" fill-opacity="1"><g transform="translate(474.759222, 870.749811)"><g><path d="M 12.4375 -17.363281 C 9.433594 -17.363281 7.097656 -15.699219 6.203125 -11.992188 L 4.636719 -16.949219 L 2.078125 -16.949219 L 2.078125 0 L 7.226562 0 L 7.226562 -8.21875 C 7.226562 -11.414062 8.664062 -12.855469 10.746094 -12.855469 C 12.757812 -12.855469 13.75 -11.863281 13.75 -9.019531 L 13.75 0 L 18.835938 0 L 18.835938 -9.753906 C 18.835938 -14.773438 16.246094 -17.363281 12.4375 -17.363281 Z M 12.4375 -17.363281 "/></g></g></g><g fill="#000000" fill-opacity="1"><g transform="translate(495.286962, 870.749811)"><g><path d="M 9.882812 -17.363281 C 4.507812 -17.363281 2.015625 -14.804688 1.535156 -11.097656 L 6.683594 -11.097656 C 6.972656 -12.472656 7.835938 -13.335938 9.847656 -13.335938 C 11.800781 -13.335938 12.726562 -12.597656 12.984375 -10.777344 L 10.039062 -10.359375 C 3.871094 -9.464844 1.152344 -7.417969 1.152344 -3.964844 C 1.152344 -1.535156 3.132812 0.414062 6.621094 0.414062 C 10.359375 0.414062 13.078125 -1.472656 14.132812 -4.667969 L 15.574219 0 L 18.097656 0 L 18.097656 -9.242188 C 18.097656 -14.675781 15.382812 -17.363281 9.882812 -17.363281 Z M 8.347656 -3.550781 C 7.003906 -3.550781 6.363281 -4.1875 6.363281 -5.019531 C 6.363281 -6.269531 7.867188 -7.226562 11.414062 -7.769531 L 13.144531 -7.996094 C 13.144531 -5.597656 11.0625 -3.550781 8.347656 -3.550781 Z M 8.347656 -3.550781 "/></g></g></g><g fill="#000000" fill-opacity="1"><g transform="translate(515.015334, 870.749811)"><g><path d="M 14.039062 -13.71875 C 12.886719 -16.085938 10.746094 -17.363281 8.28125 -17.363281 C 4.285156 -17.363281 0.992188 -14.070312 0.992188 -8.792969 L 0.992188 -8.152344 C 0.992188 -2.878906 4.285156 0.414062 8.28125 0.414062 C 11.511719 0.414062 14.132812 -1.535156 14.996094 -4.988281 L 16.597656 0 L 19.121094 0 L 19.121094 -23.34375 L 14.039062 -23.34375 Z M 10.074219 -3.996094 C 7.609375 -3.996094 6.140625 -5.46875 6.140625 -8.441406 C 6.140625 -11.480469 7.609375 -12.949219 10.074219 -12.949219 C 12.472656 -12.949219 14.039062 -11.414062 14.039062 -8.441406 C 14.039062 -5.53125 12.472656 -3.996094 10.074219 -3.996094 Z M 10.074219 -3.996094 "/></g></g></g><g fill="#000000" fill-opacity="1"><g transform="translate(536.214544, 870.749811)"><g><path d="M 10.105469 0.414062 C 15.796875 0.414062 19.1875 -2.972656 19.1875 -8.121094 L 19.1875 -8.824219 C 19.1875 -13.972656 15.796875 -17.363281 10.105469 -17.363281 C 4.414062 -17.363281 0.992188 -13.972656 0.992188 -8.824219 L 0.992188 -8.121094 C 0.992188 -2.972656 4.414062 0.414062 10.105469 0.414062 Z M 10.105469 -3.871094 C 7.609375 -3.871094 6.140625 -5.371094 6.140625 -8.507812 C 6.140625 -11.574219 7.609375 -13.078125 10.105469 -13.078125 C 12.566406 -13.078125 14.070312 -11.574219 14.070312 -8.507812 C 14.070312 -5.371094 12.566406 -3.871094 10.105469 -3.871094 Z M 10.105469 -3.871094 "/></g></g></g><g fill="#000000" fill-opacity="1"><g transform="translate(556.422527, 870.749811)"><g><path d="M 6.714844 -9.816406 C 6.683594 -8.539062 7.164062 -7.578125 7.515625 -7.003906 L 12.535156 -7.003906 C 12.28125 -7.484375 11.925781 -8.089844 11.925781 -8.859375 C 11.925781 -11.320312 19.25 -10.457031 19.25 -16.757812 C 19.25 -20.5625 16.050781 -23.757812 10.074219 -23.757812 C 3.390625 -23.757812 0.253906 -20.464844 0 -15.414062 L 5.402344 -15.414062 C 5.660156 -17.78125 6.90625 -19.15625 9.945312 -19.15625 C 12.726562 -19.15625 13.878906 -17.972656 13.878906 -16.660156 C 13.878906 -13.429688 6.8125 -14.359375 6.714844 -9.816406 Z M 13.175781 -2.527344 C 13.175781 -0.765625 11.992188 0.414062 10.167969 0.414062 C 8.3125 0.414062 7.132812 -0.765625 7.132812 -2.527344 C 7.132812 -4.285156 8.3125 -5.46875 10.167969 -5.46875 C 11.992188 -5.46875 13.175781 -4.285156 13.175781 -2.527344 Z M 13.175781 -2.527344 "/></g></g></g><path stroke-linecap="butt" transform="matrix(0, 0.749591, -0.749591, 0, 467.235065, 565.387334)" fill="none" stroke-linejoin="miter" d="M -0.000820133 3.997894 L 157.267323 3.997894 " stroke="#000000" stroke-width="8" stroke-opacity="1" stroke-miterlimit="4"/><path stroke-linecap="round" transform="matrix(0, 0.749591, -0.749591, 0, 467.235065, 565.387334)" fill="none" stroke-linejoin="round" d="M 141.263795 -7.998238 L 157.267323 3.997894 L 141.263795 15.999237 " stroke="#000000" stroke-width="8" stroke-opacity="1" stroke-miterlimit="4"/><g clip-path="url(#30da913397)"><g clip-path="url(#50803ecbc8)"><path fill="#ffccd2" d="M 882.949219 784.871094 L 1196.15625 784.871094 L 1196.15625 888.199219 L 882.949219 888.199219 Z M 882.949219 784.871094 " fill-opacity="1" fill-rule="nonzero"/></g></g><g clip-path="url(#cbda3e4266)"><g clip-path="url(#88c282f433)"><path stroke-linecap="butt" transform="matrix(0.749591, 0, 0, 0.749591, 882.9645, 784.871677)" fill="none" stroke-linejoin="miter" d="M 68.913073 -0.000777755 L 348.779374 -0.000777755 C 386.836605 -0.000777755 417.691989 30.854606 417.691989 68.911837 C 417.691989 106.974279 386.836605 137.829663 348.779374 137.829663 L 68.913073 137.829663 C 30.855841 137.829663 0.000457991 106.974279 0.000457991 68.911837 C 0.000457991 30.854606 30.855841 -0.000777755 68.913073 -0.000777755 Z M 68.913073 -0.000777755 " stroke="#000000" stroke-width="8" stroke-opacity="1" stroke-miterlimit="4"/></g></g><g fill="#232122" fill-opacity="1"><g transform="translate(1005.201704, 850.086057)"><g><path d="M 21.984375 -26.265625 L 2.410156 -26.265625 L 2.410156 0 L 8.417969 0 L 8.417969 -10.433594 L 20.6875 -10.433594 L 20.6875 -15.542969 L 8.417969 -15.542969 L 8.417969 -21.15625 L 21.984375 -21.15625 Z M 21.984375 -26.265625 "/></g></g></g><g fill="#232122" fill-opacity="1"><g transform="translate(1028.121234, 850.086057)"><g><path d="M 8.417969 -24.609375 C 8.417969 -22.738281 7.195312 -21.550781 5.21875 -21.550781 C 3.203125 -21.550781 1.980469 -22.738281 1.980469 -24.609375 C 1.980469 -26.445312 3.203125 -27.667969 5.21875 -27.667969 C 7.195312 -27.667969 8.417969 -26.445312 8.417969 -24.609375 Z M 8.09375 0 L 8.09375 -19.070312 L 2.339844 -19.070312 L 2.339844 0 Z M 8.09375 0 "/></g></g></g><g fill="#232122" fill-opacity="1"><g transform="translate(1038.555557, 850.086057)"><g><path d="M 26.589844 -19.429688 C 23.855469 -19.429688 21.445312 -17.847656 20.222656 -14.570312 C 19.214844 -17.882812 16.804688 -19.539062 13.816406 -19.539062 C 10.542969 -19.539062 7.953125 -17.703125 6.945312 -13.527344 L 5.21875 -19.070312 L 2.339844 -19.070312 L 2.339844 0 L 8.132812 0 L 8.132812 -9.246094 C 8.132812 -12.84375 9.75 -14.464844 11.835938 -14.464844 C 13.886719 -14.464844 15.003906 -13.347656 15.003906 -10.144531 L 15.003906 0 L 20.726562 0 L 20.726562 -9.246094 C 20.726562 -12.808594 22.414062 -14.464844 24.464844 -14.464844 C 26.515625 -14.464844 27.632812 -13.347656 27.632812 -10.253906 L 27.632812 0 L 33.355469 0 L 33.355469 -10.6875 C 33.355469 -16.550781 30.476562 -19.429688 26.589844 -19.429688 Z M 26.589844 -19.429688 "/></g></g></g><g clip-path="url(#dafbf39df9)"><g clip-path="url(#d08f54a055)"><path fill="#ffccd2" d="M 307.671875 1206.433594 L 620.878906 1206.433594 L 620.878906 1309.757812 L 307.671875 1309.757812 Z M 307.671875 1206.433594 " fill-opacity="1" fill-rule="nonzero"/></g></g><g clip-path="url(#852229a065)"><g clip-path="url(#4285170783)"><path stroke-linecap="butt" transform="matrix(0.749591, 0, 0, 0.749591, 307.687234, 1206.431992)" fill="none" stroke-linejoin="miter" d="M 68.91297 0.00213744 L 348.779271 0.00213744 C 386.836503 0.00213744 417.691886 30.85231 417.691886 68.914752 C 417.691886 106.971983 386.836503 137.827367 348.779271 137.827367 L 68.91297 137.827367 C 30.855739 137.827367 0.000355473 106.971983 0.000355473 68.914752 C 0.000355473 30.85231 30.855739 0.00213744 68.91297 0.00213744 Z M 68.91297 0.00213744 " stroke="#000000" stroke-width="8" stroke-opacity="1" stroke-miterlimit="4"/></g></g><g fill="#232122" fill-opacity="1"><g transform="translate(340.723182, 1271.646372)"><g><path d="M 8.457031 -26.265625 L 2.445312 -26.265625 L 2.445312 0 L 8.457031 0 Z M 8.457031 -26.265625 "/></g></g></g><g fill="#232122" fill-opacity="1"><g transform="translate(351.625255, 1271.646372)"><g><path d="M 13.996094 -19.539062 C 10.613281 -19.539062 7.988281 -17.667969 6.980469 -13.492188 L 5.21875 -19.070312 L 2.339844 -19.070312 L 2.339844 0 L 8.132812 0 L 8.132812 -9.246094 C 8.132812 -12.84375 9.75 -14.464844 12.089844 -14.464844 C 14.355469 -14.464844 15.472656 -13.347656 15.472656 -10.144531 L 15.472656 0 L 21.191406 0 L 21.191406 -10.972656 C 21.191406 -16.621094 18.277344 -19.539062 13.996094 -19.539062 Z M 13.996094 -19.539062 "/></g></g></g><g fill="#232122" fill-opacity="1"><g transform="translate(374.72468, 1271.646372)"><g><path d="M 3.023438 -21.660156 L 5.792969 -27.8125 L 11.40625 -27.8125 L 7.015625 -21.660156 Z M 8.09375 0 L 8.09375 -19.070312 L 2.339844 -19.070312 L 2.339844 0 Z M 8.09375 0 "/></g></g></g><g fill="#232122" fill-opacity="1"><g transform="translate(385.159002, 1271.646372)"><g><path d="M 1.117188 -9.175781 C 1.117188 -3.347656 4.964844 0.46875 11.332031 0.46875 C 17.234375 0.46875 20.652344 -2.625 21.226562 -7.628906 L 15.328125 -7.628906 C 14.859375 -5.433594 13.566406 -4.390625 11.261719 -4.390625 C 8.5625 -4.390625 6.910156 -6.042969 6.910156 -9.535156 C 6.910156 -13.023438 8.5625 -14.679688 11.261719 -14.679688 C 13.566406 -14.679688 14.859375 -13.636719 15.292969 -11.441406 L 21.191406 -11.441406 C 20.617188 -16.441406 17.199219 -19.539062 11.332031 -19.539062 C 4.964844 -19.539062 1.117188 -15.722656 1.117188 -9.894531 Z M 1.117188 -9.175781 "/></g></g></g><g fill="#232122" fill-opacity="1"><g transform="translate(407.46686, 1271.646372)"><g><path d="M 8.417969 -24.609375 C 8.417969 -22.738281 7.195312 -21.550781 5.21875 -21.550781 C 3.203125 -21.550781 1.980469 -22.738281 1.980469 -24.609375 C 1.980469 -26.445312 3.203125 -27.667969 5.21875 -27.667969 C 7.195312 -27.667969 8.417969 -26.445312 8.417969 -24.609375 Z M 8.09375 0 L 8.09375 -19.070312 L 2.339844 -19.070312 L 2.339844 0 Z M 8.09375 0 "/></g></g></g><g fill="#232122" fill-opacity="1"><g transform="translate(417.901182, 1271.646372)"><g><path d="M 11.371094 0.46875 C 17.773438 0.46875 21.589844 -3.347656 21.589844 -9.140625 L 21.589844 -9.929688 C 21.589844 -15.722656 17.773438 -19.539062 11.371094 -19.539062 C 4.964844 -19.539062 1.117188 -15.722656 1.117188 -9.929688 L 1.117188 -9.140625 C 1.117188 -3.347656 4.964844 0.46875 11.371094 0.46875 Z M 11.371094 -4.355469 C 8.5625 -4.355469 6.910156 -6.042969 6.910156 -9.570312 C 6.910156 -13.023438 8.5625 -14.714844 11.371094 -14.714844 C 14.140625 -14.714844 15.832031 -13.023438 15.832031 -9.570312 C 15.832031 -6.042969 14.140625 -4.355469 11.371094 -4.355469 Z M 11.371094 -4.355469 "/></g></g></g><g fill="#232122" fill-opacity="1"><g transform="translate(440.640807, 1271.646372)"><g/></g></g><g fill="#232122" fill-opacity="1"><g transform="translate(451.506896, 1271.646372)"><g><path d="M 15.796875 -15.4375 C 14.5 -18.097656 12.089844 -19.539062 9.320312 -19.539062 C 4.820312 -19.539062 1.117188 -15.832031 1.117188 -9.894531 L 1.117188 -9.175781 C 1.117188 -3.238281 4.820312 0.46875 9.320312 0.46875 C 12.953125 0.46875 15.902344 -1.726562 16.875 -5.613281 L 18.671875 0 L 21.515625 0 L 21.515625 -26.265625 L 15.796875 -26.265625 Z M 11.332031 -4.496094 C 8.5625 -4.496094 6.910156 -6.152344 6.910156 -9.5 C 6.910156 -12.917969 8.5625 -14.570312 11.332031 -14.570312 C 14.03125 -14.570312 15.796875 -12.84375 15.796875 -9.5 C 15.796875 -6.222656 14.03125 -4.496094 11.332031 -4.496094 Z M 11.332031 -4.496094 "/></g></g></g><g fill="#232122" fill-opacity="1"><g transform="translate(475.361916, 1271.646372)"><g><path d="M 11.371094 0.46875 C 17.773438 0.46875 21.589844 -3.347656 21.589844 -9.140625 L 21.589844 -9.929688 C 21.589844 -15.722656 17.773438 -19.539062 11.371094 -19.539062 C 4.964844 -19.539062 1.117188 -15.722656 1.117188 -9.929688 L 1.117188 -9.140625 C 1.117188 -3.347656 4.964844 0.46875 11.371094 0.46875 Z M 11.371094 -4.355469 C 8.5625 -4.355469 6.910156 -6.042969 6.910156 -9.570312 C 6.910156 -13.023438 8.5625 -14.714844 11.371094 -14.714844 C 14.140625 -14.714844 15.832031 -13.023438 15.832031 -9.570312 C 15.832031 -6.042969 14.140625 -4.355469 11.371094 -4.355469 Z M 11.371094 -4.355469 "/></g></g></g><g fill="#232122" fill-opacity="1"><g transform="translate(498.101541, 1271.646372)"><g/></g></g><g fill="#232122" fill-opacity="1"><g transform="translate(508.967631, 1271.646372)"><g><path d="M 8.636719 -24.609375 C 8.636719 -22.738281 7.410156 -21.550781 5.433594 -21.550781 C 3.417969 -21.550781 2.195312 -22.738281 2.195312 -24.609375 C 2.195312 -26.445312 3.417969 -27.667969 5.433594 -27.667969 C 7.410156 -27.667969 8.636719 -26.445312 8.636719 -24.609375 Z M 2.589844 -19.070312 L 2.589844 0 C 2.589844 1.980469 1.835938 2.734375 0.144531 2.734375 C -0.648438 2.734375 -1.4375 2.664062 -2.160156 2.554688 L -2.160156 7.195312 C -1.296875 7.410156 -0.144531 7.628906 1.1875 7.628906 C 5.9375 7.628906 8.347656 5.21875 8.347656 0.109375 L 8.347656 -19.070312 Z M 2.589844 -19.070312 "/></g></g></g><g fill="#232122" fill-opacity="1"><g transform="translate(519.653814, 1271.646372)"><g><path d="M 11.371094 0.46875 C 17.773438 0.46875 21.589844 -3.347656 21.589844 -9.140625 L 21.589844 -9.929688 C 21.589844 -15.722656 17.773438 -19.539062 11.371094 -19.539062 C 4.964844 -19.539062 1.117188 -15.722656 1.117188 -9.929688 L 1.117188 -9.140625 C 1.117188 -3.347656 4.964844 0.46875 11.371094 0.46875 Z M 11.371094 -4.355469 C 8.5625 -4.355469 6.910156 -6.042969 6.910156 -9.570312 C 6.910156 -13.023438 8.5625 -14.714844 11.371094 -14.714844 C 14.140625 -14.714844 15.832031 -13.023438 15.832031 -9.570312 C 15.832031 -6.042969 14.140625 -4.355469 11.371094 -4.355469 Z M 11.371094 -4.355469 "/></g></g></g><g fill="#232122" fill-opacity="1"><g transform="translate(542.393427, 1271.646372)"><g><path d="M 22.488281 0.613281 C 22.488281 -2.625 20.472656 -4.75 15.363281 -4.75 L 8.636719 -4.75 C 6.800781 -4.75 6.332031 -5.144531 6.332031 -5.863281 C 6.332031 -6.585938 6.800781 -7.050781 8.527344 -7.050781 L 11.261719 -7.050781 C 18.277344 -7.050781 20.976562 -9.75 20.976562 -13.167969 L 20.976562 -13.347656 C 20.976562 -16.121094 19.320312 -18.351562 15.253906 -19.175781 C 15.652344 -20.113281 16.621094 -20.6875 18.457031 -20.6875 C 19.359375 -20.6875 20.292969 -20.582031 20.90625 -20.472656 L 20.90625 -25.546875 C 20.402344 -25.691406 19.824219 -25.832031 18.890625 -25.832031 C 15.976562 -25.832031 13.457031 -23.496094 13.167969 -19.464844 C 12.558594 -19.5 11.945312 -19.539062 11.261719 -19.539062 C 4.28125 -19.539062 1.582031 -16.839844 1.582031 -13.347656 L 1.582031 -13.203125 C 1.582031 -11.011719 2.664062 -9.140625 5.253906 -8.023438 C 2.589844 -7.375 1.476562 -5.828125 1.476562 -3.992188 C 1.476562 -2.121094 2.914062 -0.503906 5.613281 -0.0703125 C 3.128906 0.394531 1.941406 1.726562 1.941406 3.488281 C 1.941406 5.613281 3.671875 7.628906 11.152344 7.628906 C 19.574219 7.628906 22.488281 4.714844 22.488281 0.613281 Z M 11.261719 -15.867188 C 14.320312 -15.867188 15.363281 -14.789062 15.363281 -13.277344 C 15.363281 -11.800781 14.320312 -10.722656 11.261719 -10.722656 C 8.238281 -10.722656 7.195312 -11.800781 7.195312 -13.277344 C 7.195312 -14.789062 8.238281 -15.867188 11.261719 -15.867188 Z M 11.835938 3.886719 C 7.628906 3.886719 6.835938 2.949219 6.835938 1.800781 C 6.835938 0.613281 7.59375 -0.289062 12.628906 -0.289062 C 16.765625 -0.289062 17.488281 0.503906 17.488281 1.582031 C 17.488281 2.734375 16.371094 3.886719 11.835938 3.886719 Z M 11.835938 3.886719 "/></g></g></g><g fill="#232122" fill-opacity="1"><g transform="translate(564.989118, 1271.646372)"><g><path d="M 11.371094 0.46875 C 17.773438 0.46875 21.589844 -3.347656 21.589844 -9.140625 L 21.589844 -9.929688 C 21.589844 -15.722656 17.773438 -19.539062 11.371094 -19.539062 C 4.964844 -19.539062 1.117188 -15.722656 1.117188 -9.929688 L 1.117188 -9.140625 C 1.117188 -3.347656 4.964844 0.46875 11.371094 0.46875 Z M 11.371094 -4.355469 C 8.5625 -4.355469 6.910156 -6.042969 6.910156 -9.570312 C 6.910156 -13.023438 8.5625 -14.714844 11.371094 -14.714844 C 14.140625 -14.714844 15.832031 -13.023438 15.832031 -9.570312 C 15.832031 -6.042969 14.140625 -4.355469 11.371094 -4.355469 Z M 11.371094 -4.355469 "/></g></g></g><g clip-path="url(#4b8718e312)"><g clip-path="url(#9c70a4a055)"><path stroke-linecap="butt" transform="matrix(0.749591, 0, 0, 0.749591, 86.659103, 500.824413)" fill="none" stroke-linejoin="miter" d="M 185.826804 447.858808 L 93.828666 447.858808 C 80.571429 447.858808 69.82598 437.113358 69.82598 423.856121 L 69.82598 27.9994 C 69.82598 14.747374 80.571429 4.001925 93.828666 4.001925 L 302.192411 4.001925 " stroke="#000000" stroke-width="8" stroke-opacity="1" stroke-miterlimit="4"/></g></g><g clip-path="url(#8ab41effbf)"><g clip-path="url(#d559b34ff2)"><path stroke-linecap="round" transform="matrix(0.749591, 0, 0, 0.749591, 86.659103, 500.824413)" fill="none" stroke-linejoin="round" d="M 286.188883 -7.999418 L 302.192411 4.001925 L 286.188883 15.998057 " stroke="#000000" stroke-width="8" stroke-opacity="1" stroke-miterlimit="4"/></g></g><g fill="#000000" fill-opacity="1"><g transform="translate(90.781851, 638.149407)"><g><path d="M 26.015625 0 L 19.09375 0 L 7.921875 -19.4375 L 7.765625 -19.4375 C 7.984375 -16 8.09375 -13.550781 8.09375 -12.09375 L 8.09375 0 L 3.234375 0 L 3.234375 -25.6875 L 10.109375 -25.6875 L 21.265625 -6.453125 L 21.390625 -6.453125 C 21.210938 -9.785156 21.125 -12.144531 21.125 -13.53125 L 21.125 -25.6875 L 26.015625 -25.6875 Z M 26.015625 0 "/></g></g><g transform="translate(120.033452, 638.149407)"><g><path d="M 7.078125 -9.859375 C 7.078125 -7.910156 7.394531 -6.4375 8.03125 -5.4375 C 8.675781 -4.445312 9.71875 -3.953125 11.15625 -3.953125 C 12.582031 -3.953125 13.609375 -4.445312 14.234375 -5.4375 C 14.867188 -6.425781 15.1875 -7.898438 15.1875 -9.859375 C 15.1875 -11.804688 14.867188 -13.265625 14.234375 -14.234375 C 13.597656 -15.203125 12.5625 -15.6875 11.125 -15.6875 C 9.695312 -15.6875 8.664062 -15.203125 8.03125 -14.234375 C 7.394531 -13.273438 7.078125 -11.816406 7.078125 -9.859375 Z M 20.65625 -9.859375 C 20.65625 -6.660156 19.8125 -4.160156 18.125 -2.359375 C 16.445312 -0.554688 14.101562 0.34375 11.09375 0.34375 C 9.207031 0.34375 7.539062 -0.0664062 6.09375 -0.890625 C 4.65625 -1.710938 3.546875 -2.894531 2.765625 -4.4375 C 1.992188 -5.988281 1.609375 -7.796875 1.609375 -9.859375 C 1.609375 -13.066406 2.445312 -15.5625 4.125 -17.34375 C 5.800781 -19.125 8.15625 -20.015625 11.1875 -20.015625 C 13.070312 -20.015625 14.734375 -19.601562 16.171875 -18.78125 C 17.617188 -17.957031 18.726562 -16.78125 19.5 -15.25 C 20.269531 -13.71875 20.65625 -11.921875 20.65625 -9.859375 Z M 20.65625 -9.859375 "/></g></g><g transform="translate(142.310348, 638.149407)"><g><path d="M 20.9375 0 L 15.578125 0 L 15.578125 -11.46875 C 15.578125 -12.882812 15.328125 -13.945312 14.828125 -14.65625 C 14.328125 -15.363281 13.523438 -15.71875 12.421875 -15.71875 C 10.921875 -15.71875 9.835938 -15.21875 9.171875 -14.21875 C 8.503906 -13.21875 8.171875 -11.554688 8.171875 -9.234375 L 8.171875 0 L 2.8125 0 L 2.8125 -19.640625 L 6.90625 -19.640625 L 7.625 -17.125 L 7.921875 -17.125 C 8.523438 -18.070312 9.347656 -18.789062 10.390625 -19.28125 C 11.441406 -19.769531 12.632812 -20.015625 13.96875 -20.015625 C 16.25 -20.015625 17.976562 -19.394531 19.15625 -18.15625 C 20.34375 -16.925781 20.9375 -15.144531 20.9375 -12.8125 Z M 20.9375 0 "/></g></g><g transform="translate(165.957588, 638.149407)"><g><path d="M 10.953125 -16.203125 C 9.804688 -16.203125 8.910156 -15.835938 8.265625 -15.109375 C 7.628906 -14.390625 7.265625 -13.367188 7.171875 -12.046875 L 14.6875 -12.046875 C 14.664062 -13.367188 14.320312 -14.390625 13.65625 -15.109375 C 12.988281 -15.835938 12.085938 -16.203125 10.953125 -16.203125 Z M 11.703125 0.34375 C 8.535156 0.34375 6.0625 -0.523438 4.28125 -2.265625 C 2.5 -4.015625 1.609375 -6.488281 1.609375 -9.6875 C 1.609375 -12.976562 2.429688 -15.519531 4.078125 -17.3125 C 5.722656 -19.113281 8 -20.015625 10.90625 -20.015625 C 13.6875 -20.015625 15.847656 -19.222656 17.390625 -17.640625 C 18.941406 -16.054688 19.71875 -13.875 19.71875 -11.09375 L 19.71875 -8.484375 L 7.046875 -8.484375 C 7.109375 -6.960938 7.554688 -5.773438 8.390625 -4.921875 C 9.234375 -4.066406 10.421875 -3.640625 11.953125 -3.640625 C 13.128906 -3.640625 14.242188 -3.757812 15.296875 -4 C 16.359375 -4.25 17.460938 -4.644531 18.609375 -5.1875 L 18.609375 -1.03125 C 17.671875 -0.5625 16.664062 -0.21875 15.59375 0 C 14.53125 0.226562 13.234375 0.34375 11.703125 0.34375 Z M 11.703125 0.34375 "/></g></g></g><g clip-path="url(#203ccc9001)"><path stroke-linecap="butt" transform="matrix(0.749591, 0.00000000000891402, -0.00000000000891402, 0.749591, 702.519194, 811.2736)" fill="none" stroke-linejoin="miter" d="M 0.000449419 33.700472 L 236.702581 33.700472 " stroke="#000000" stroke-width="8" stroke-opacity="1" stroke-miterlimit="4"/></g><g clip-path="url(#a898684998)"><path stroke-linecap="round" transform="matrix(0.749591, 0.00000000000891402, -0.00000000000891402, 0.749591, 702.519194, 811.2736)" fill="none" stroke-linejoin="round" d="M 220.704264 21.699128 L 236.702581 33.700472 L 220.704264 45.701815 " stroke="#000000" stroke-width="8" stroke-opacity="1" stroke-miterlimit="4"/></g><g fill="#000000" fill-opacity="1"><g transform="translate(758.293418, 849.652638)"><g><path d="M 18.390625 -7.140625 C 18.390625 -4.816406 17.554688 -2.988281 15.890625 -1.65625 C 14.222656 -0.320312 11.898438 0.34375 8.921875 0.34375 C 6.179688 0.34375 3.757812 -0.164062 1.65625 -1.1875 L 1.65625 -6.25 C 3.382812 -5.476562 4.847656 -4.929688 6.046875 -4.609375 C 7.253906 -4.296875 8.351562 -4.140625 9.34375 -4.140625 C 10.539062 -4.140625 11.457031 -4.367188 12.09375 -4.828125 C 12.738281 -5.285156 13.0625 -5.96875 13.0625 -6.875 C 13.0625 -7.375 12.921875 -7.816406 12.640625 -8.203125 C 12.359375 -8.597656 11.941406 -8.976562 11.390625 -9.34375 C 10.847656 -9.707031 9.738281 -10.289062 8.0625 -11.09375 C 6.488281 -11.820312 5.3125 -12.523438 4.53125 -13.203125 C 3.75 -13.890625 3.125 -14.679688 2.65625 -15.578125 C 2.1875 -16.484375 1.953125 -17.539062 1.953125 -18.75 C 1.953125 -21.019531 2.722656 -22.804688 4.265625 -24.109375 C 5.804688 -25.410156 7.929688 -26.0625 10.640625 -26.0625 C 11.984375 -26.0625 13.257812 -25.898438 14.46875 -25.578125 C 15.675781 -25.265625 16.941406 -24.820312 18.265625 -24.25 L 16.515625 -20.015625 C 15.140625 -20.578125 14.003906 -20.96875 13.109375 -21.1875 C 12.210938 -21.414062 11.332031 -21.53125 10.46875 -21.53125 C 9.4375 -21.53125 8.644531 -21.285156 8.09375 -20.796875 C 7.550781 -20.316406 7.28125 -19.691406 7.28125 -18.921875 C 7.28125 -18.441406 7.390625 -18.019531 7.609375 -17.65625 C 7.828125 -17.300781 8.179688 -16.957031 8.671875 -16.625 C 9.160156 -16.289062 10.3125 -15.691406 12.125 -14.828125 C 14.519531 -13.679688 16.160156 -12.53125 17.046875 -11.375 C 17.941406 -10.21875 18.390625 -8.804688 18.390625 -7.140625 Z M 18.390625 -7.140625 "/></g></g><g transform="translate(778.110719, 849.652638)"><g><path d="M 15.28125 0 L 14.25 -2.671875 L 14.109375 -2.671875 C 13.203125 -1.535156 12.269531 -0.75 11.3125 -0.3125 C 10.363281 0.125 9.125 0.34375 7.59375 0.34375 C 5.707031 0.34375 4.222656 -0.191406 3.140625 -1.265625 C 2.054688 -2.335938 1.515625 -3.875 1.515625 -5.875 C 1.515625 -7.957031 2.242188 -9.492188 3.703125 -10.484375 C 5.160156 -11.472656 7.359375 -12.019531 10.296875 -12.125 L 13.703125 -12.234375 L 13.703125 -13.09375 C 13.703125 -15.082031 12.679688 -16.078125 10.640625 -16.078125 C 9.078125 -16.078125 7.234375 -15.601562 5.109375 -14.65625 L 3.34375 -18.265625 C 5.601562 -19.453125 8.109375 -20.046875 10.859375 -20.046875 C 13.492188 -20.046875 15.515625 -19.472656 16.921875 -18.328125 C 18.328125 -17.179688 19.03125 -15.4375 19.03125 -13.09375 L 19.03125 0 Z M 13.703125 -9.09375 L 11.625 -9.03125 C 10.070312 -8.988281 8.914062 -8.707031 8.15625 -8.1875 C 7.394531 -7.675781 7.015625 -6.890625 7.015625 -5.828125 C 7.015625 -4.316406 7.878906 -3.5625 9.609375 -3.5625 C 10.847656 -3.5625 11.835938 -3.914062 12.578125 -4.625 C 13.328125 -5.34375 13.703125 -6.296875 13.703125 -7.484375 Z M 13.703125 -9.09375 "/></g></g><g transform="translate(799.84299, 849.652638)"><g><path d="M 2.578125 -24.71875 C 2.578125 -26.46875 3.550781 -27.34375 5.5 -27.34375 C 7.445312 -27.34375 8.421875 -26.46875 8.421875 -24.71875 C 8.421875 -23.882812 8.175781 -23.238281 7.6875 -22.78125 C 7.195312 -22.320312 6.46875 -22.09375 5.5 -22.09375 C 3.550781 -22.09375 2.578125 -22.96875 2.578125 -24.71875 Z M 8.171875 0 L 2.8125 0 L 2.8125 -19.640625 L 8.171875 -19.640625 Z M 8.171875 0 "/></g></g><g transform="translate(810.823321, 849.652638)"><g><path d="M 13.78125 -20.015625 C 14.5 -20.015625 15.097656 -19.960938 15.578125 -19.859375 L 15.1875 -14.828125 C 14.75 -14.941406 14.21875 -15 13.59375 -15 C 11.882812 -15 10.550781 -14.5625 9.59375 -13.6875 C 8.644531 -12.8125 8.171875 -11.582031 8.171875 -10 L 8.171875 0 L 2.8125 0 L 2.8125 -19.640625 L 6.875 -19.640625 L 7.65625 -16.34375 L 7.921875 -16.34375 C 8.535156 -17.445312 9.359375 -18.332031 10.390625 -19 C 11.429688 -19.675781 12.5625 -20.015625 13.78125 -20.015625 Z M 13.78125 -20.015625 "/></g></g></g><g clip-path="url(#c6c01e3f53)"><path stroke-linecap="butt" transform="matrix(0, 0.749591, -0.749591, 0, 489.493132, 986.796915)" fill="none" stroke-linejoin="miter" d="M -0.0000528801 33.701948 L 289.001461 33.701948 " stroke="#000000" stroke-width="8" stroke-opacity="1" stroke-miterlimit="4"/></g><g clip-path="url(#54541e4bb1)"><path stroke-linecap="round" transform="matrix(0, 0.749591, -0.749591, 0, 489.493132, 986.796915)" fill="none" stroke-linejoin="round" d="M 273.003145 21.700605 L 289.001461 33.701948 L 273.003145 45.69808 " stroke="#000000" stroke-width="8" stroke-opacity="1" stroke-miterlimit="4"/></g><g fill="#000000" fill-opacity="1"><g transform="translate(451.114166, 1058.722473)"><g><path d="M 13.59375 8.6875 L 13.59375 10.46875 C 13.59375 12.144531 13.921875 13.398438 14.578125 14.234375 C 15.242188 15.066406 16.210938 15.484375 17.484375 15.484375 C 18.753906 15.484375 19.691406 15.132812 20.296875 14.4375 C 20.910156 13.738281 21.21875 12.644531 21.21875 11.15625 L 21.21875 8.6875 Z M 17.671875 20.984375 C 14.910156 20.984375 12.796875 20.117188 11.328125 18.390625 C 9.867188 16.660156 9.140625 14.203125 9.140625 11.015625 L 9.140625 8.6875 L 0 8.6875 L 0 3.234375 L 25.6875 3.234375 L 25.6875 11.4375 C 25.6875 14.550781 25.015625 16.921875 23.671875 18.546875 C 22.335938 20.171875 20.335938 20.984375 17.671875 20.984375 Z M 17.671875 20.984375 "/></g></g><g transform="translate(451.114166, 1081.315602)"><g><path d="M 0 8.171875 L 0 2.8125 L 27.34375 2.8125 L 27.34375 8.171875 Z M 0 8.171875 "/></g></g><g transform="translate(451.114166, 1092.295933)"><g><path d="M 0 15.28125 L 2.671875 14.25 L 2.671875 14.109375 C 1.535156 13.203125 0.75 12.269531 0.3125 11.3125 C -0.125 10.363281 -0.34375 9.125 -0.34375 7.59375 C -0.34375 5.707031 0.191406 4.222656 1.265625 3.140625 C 2.335938 2.054688 3.875 1.515625 5.875 1.515625 C 7.957031 1.515625 9.492188 2.242188 10.484375 3.703125 C 11.472656 5.160156 12.019531 7.359375 12.125 10.296875 L 12.234375 13.703125 L 13.09375 13.703125 C 15.082031 13.703125 16.078125 12.679688 16.078125 10.640625 C 16.078125 9.078125 15.601562 7.234375 14.65625 5.109375 L 18.265625 3.34375 C 19.453125 5.601562 20.046875 8.109375 20.046875 10.859375 C 20.046875 13.492188 19.472656 15.515625 18.328125 16.921875 C 17.179688 18.328125 15.4375 19.03125 13.09375 19.03125 L 0 19.03125 Z M 9.09375 13.703125 L 9.03125 11.625 C 8.988281 10.070312 8.707031 8.914062 8.1875 8.15625 C 7.675781 7.394531 6.890625 7.015625 5.828125 7.015625 C 4.316406 7.015625 3.5625 7.878906 3.5625 9.609375 C 3.5625 10.847656 3.914062 11.835938 4.625 12.578125 C 5.34375 13.328125 6.296875 13.703125 7.484375 13.703125 Z M 9.09375 13.703125 "/></g></g><g transform="translate(451.114166, 1114.028203)"><g><path d="M 19.640625 0 L 19.640625 5.875 L 8.59375 9.578125 C 7.632812 9.890625 6.5 10.101562 5.1875 10.21875 L 5.1875 10.328125 C 6.394531 10.460938 7.53125 10.71875 8.59375 11.09375 L 19.640625 14.71875 L 19.640625 20.46875 L -2.515625 12.15625 C -4.566406 11.394531 -6.097656 10.304688 -7.109375 8.890625 C -8.128906 7.484375 -8.640625 5.835938 -8.640625 3.953125 C -8.640625 3.023438 -8.539062 2.117188 -8.34375 1.234375 L -4.09375 1.234375 C -4.25 1.878906 -4.328125 2.582031 -4.328125 3.34375 C -4.328125 4.289062 -4.035156 5.117188 -3.453125 5.828125 C -2.867188 6.535156 -1.992188 7.085938 -0.828125 7.484375 L 0.140625 7.796875 Z M 19.640625 0 "/></g></g></g></svg>