<svg xmlns="http://www.w3.org/2000/svg" xmlns:xlink="http://www.w3.org/1999/xlink" width="848" zoomAndPan="magnify" viewBox="0 0 636 1328.999943" height="1772" preserveAspectRatio="xMidYMid meet" version="1.0"><defs><filter x="0%" y="0%" width="100%" height="100%" id="d0c8e867a6"><feColorMatrix values="0 0 0 0 1 0 0 0 0 1 0 0 0 0 1 0 0 0 1 0" color-interpolation-filters="sRGB"/></filter><g/><mask id="b149ea9ec1"><g filter="url(#d0c8e867a6)"><rect x="-63.6" width="763.2" fill="#000000" y="-132.899994" height="1594.799932" fill-opacity="0.59"/></g></mask><clipPath id="a25facc008"><path d="M 0 0 L 636 0 L 636 1328.269531 L 0 1328.269531 Z M 0 0 " clip-rule="nonzero"/></clipPath><clipPath id="b349bcd884"><rect x="0" width="636" y="0" height="1329"/></clipPath><clipPath id="78ed4ad38c"><path d="M 132 36 L 445.378906 36 L 445.378906 139.382812 L 132 139.382812 Z M 132 36 " clip-rule="nonzero"/></clipPath><clipPath id="62745db6d3"><path d="M 183.691406 36 L 393.613281 36 C 422.160156 36 445.304688 59.144531 445.304688 87.691406 C 445.304688 116.238281 422.160156 139.382812 393.613281 139.382812 L 183.691406 139.382812 C 155.144531 139.382812 132 116.238281 132 87.691406 C 132 59.144531 155.144531 36 183.691406 36 Z M 183.691406 36 " clip-rule="nonzero"/></clipPath><clipPath id="b13790fb2a"><path d="M 132.015625 36 L 445.285156 36 L 445.285156 139.5 L 132.015625 139.5 Z M 132.015625 36 " clip-rule="nonzero"/></clipPath><clipPath id="ee5ffc6f38"><path d="M 183.703125 36 L 393.597656 36 C 422.144531 36 445.285156 59.140625 445.285156 87.683594 C 445.285156 116.230469 422.144531 139.371094 393.597656 139.371094 L 183.703125 139.371094 C 155.15625 139.371094 132.015625 116.230469 132.015625 87.683594 C 132.015625 59.140625 155.15625 36 183.703125 36 Z M 183.703125 36 " clip-rule="nonzero"/></clipPath><clipPath id="43c085ca2d"><path d="M 118.90625 235.125 L 458.65625 235.125 L 458.65625 358.320312 L 118.90625 358.320312 Z M 118.90625 235.125 " clip-rule="nonzero"/></clipPath><clipPath id="1b5414cdfa"><path d="M 136.90625 235.125 L 440.394531 235.125 C 450.335938 235.125 458.394531 243.183594 458.394531 253.125 L 458.394531 340.320312 C 458.394531 350.261719 450.335938 358.320312 440.394531 358.320312 L 136.90625 358.320312 C 126.964844 358.320312 118.90625 350.261719 118.90625 340.320312 L 118.90625 253.125 C 118.90625 243.183594 126.964844 235.125 136.90625 235.125 Z M 136.90625 235.125 " clip-rule="nonzero"/></clipPath><clipPath id="fc3d3e0f3a"><path d="M 118.914062 235.125 L 458.65625 235.125 L 458.65625 358.125 L 118.914062 358.125 Z M 118.914062 235.125 " clip-rule="nonzero"/></clipPath><clipPath id="b493ca1e31"><path d="M 136.914062 235.125 L 440.382812 235.125 C 450.320312 235.125 458.378906 243.183594 458.378906 253.125 L 458.378906 340.3125 C 458.378906 350.253906 450.320312 358.3125 440.382812 358.3125 L 136.914062 358.3125 C 126.972656 358.3125 118.914062 350.253906 118.914062 340.3125 L 118.914062 253.125 C 118.914062 243.183594 126.972656 235.125 136.914062 235.125 Z M 136.914062 235.125 " clip-rule="nonzero"/></clipPath><clipPath id="bb0bf1198a"><path d="M 108.074219 724.257812 L 469 724.257812 L 469 952.726562 L 108.074219 952.726562 Z M 108.074219 724.257812 " clip-rule="nonzero"/></clipPath><clipPath id="3accd5ea93"><path d="M 303.90625 729.164062 L 463.257812 828.9375 C 466.550781 831 468.546875 834.609375 468.546875 838.492188 C 468.546875 842.375 466.550781 845.984375 463.257812 848.042969 L 303.90625 947.816406 C 294.574219 953.660156 282.726562 953.660156 273.394531 947.816406 L 114.042969 848.042969 C 110.753906 845.984375 108.753906 842.375 108.753906 838.492188 C 108.753906 834.609375 110.753906 831 114.042969 828.9375 L 273.394531 729.164062 C 282.726562 723.324219 294.574219 723.324219 303.90625 729.164062 Z M 303.90625 729.164062 " clip-rule="nonzero"/></clipPath><clipPath id="2b505ffabb"><path d="M 108 724.703125 L 469 724.703125 L 469 953 L 108 953 Z M 108 724.703125 " clip-rule="nonzero"/></clipPath><clipPath id="6176252097"><path d="M 303.90625 729.164062 L 463.25 828.9375 C 466.542969 830.996094 468.539062 834.605469 468.539062 838.488281 C 468.539062 842.371094 466.542969 845.980469 463.25 848.039062 L 303.90625 947.8125 C 294.574219 953.652344 282.726562 953.652344 273.394531 947.8125 L 114.046875 848.039062 C 110.753906 845.980469 108.757812 842.371094 108.757812 838.488281 C 108.757812 834.605469 110.753906 830.996094 114.046875 828.9375 L 273.394531 729.164062 C 282.726562 723.324219 294.574219 723.324219 303.90625 729.164062 Z M 303.90625 729.164062 " clip-rule="nonzero"/></clipPath><clipPath id="ab6d6c614c"><path d="M 140.511719 454.320312 L 436.914062 454.320312 L 436.914062 615.765625 L 140.511719 615.765625 Z M 140.511719 454.320312 " clip-rule="nonzero"/></clipPath><clipPath id="228773466e"><path d="M 158.511719 454.320312 L 418.792969 454.320312 C 428.734375 454.320312 436.792969 462.378906 436.792969 472.320312 L 436.792969 597.765625 C 436.792969 607.707031 428.734375 615.765625 418.792969 615.765625 L 158.511719 615.765625 C 148.570312 615.765625 140.511719 607.707031 140.511719 597.765625 L 140.511719 472.320312 C 140.511719 462.378906 148.570312 454.320312 158.511719 454.320312 Z M 158.511719 454.320312 " clip-rule="nonzero"/></clipPath><clipPath id="68e38da297"><path d="M 140.515625 454.320312 L 436.761719 454.320312 L 436.761719 615.570312 L 140.515625 615.570312 Z M 140.515625 454.320312 " clip-rule="nonzero"/></clipPath><clipPath id="951bd62e00"><path d="M 158.515625 454.320312 L 418.78125 454.320312 C 428.722656 454.320312 436.78125 462.378906 436.78125 472.320312 L 436.78125 597.757812 C 436.78125 607.699219 428.722656 615.757812 418.78125 615.757812 L 158.515625 615.757812 C 148.574219 615.757812 140.515625 607.699219 140.515625 597.757812 L 140.515625 472.320312 C 140.515625 462.378906 148.574219 454.320312 158.515625 454.320312 Z M 158.515625 454.320312 " clip-rule="nonzero"/></clipPath><clipPath id="3973309ba1"><path d="M 405 520 L 549 520 L 549 854 L 405 854 Z M 405 520 " clip-rule="nonzero"/></clipPath><clipPath id="be9a5c3be2"><path d="M 405.8125 520.042969 L 623.21875 520.042969 L 611.21875 645.613281 L 417.8125 645.613281 L 417.8125 696.164062 L 611.21875 696.164062 L 623.21875 853.492188 L 405.8125 853.492188 Z M 623.21875 520.042969 L 623.21875 853.492188 L 611.21875 696.164062 L 611.21875 645.613281 Z M 623.21875 520.042969 " clip-rule="nonzero"/></clipPath><clipPath id="ba9b274129"><path d="M 436 523 L 455 523 L 455 548 L 436 548 Z M 436 523 " clip-rule="nonzero"/></clipPath><clipPath id="665484ecac"><path d="M 405.8125 520.042969 L 623.21875 520.042969 L 611.21875 645.613281 L 417.8125 645.613281 L 417.8125 696.164062 L 611.21875 696.164062 L 623.21875 853.492188 L 405.8125 853.492188 Z M 623.21875 520.042969 L 623.21875 853.492188 L 611.21875 696.164062 L 611.21875 645.613281 Z M 623.21875 520.042969 " clip-rule="nonzero"/></clipPath><clipPath id="5bde42c219"><path d="M 132 1176.371094 L 445.378906 1176.371094 L 445.378906 1279.753906 L 132 1279.753906 Z M 132 1176.371094 " clip-rule="nonzero"/></clipPath><clipPath id="154ddda01b"><path d="M 183.691406 1176.371094 L 393.613281 1176.371094 C 422.160156 1176.371094 445.304688 1199.511719 445.304688 1228.0625 C 445.304688 1256.609375 422.160156 1279.753906 393.613281 1279.753906 L 183.691406 1279.753906 C 155.144531 1279.753906 132 1256.609375 132 1228.0625 C 132 1199.511719 155.144531 1176.371094 183.691406 1176.371094 Z M 183.691406 1176.371094 " clip-rule="nonzero"/></clipPath><clipPath id="d62b5cb4aa"><path d="M 132.015625 1176.371094 L 445.285156 1176.371094 L 445.285156 1279.871094 L 132.015625 1279.871094 Z M 132.015625 1176.371094 " clip-rule="nonzero"/></clipPath><clipPath id="d52e05b720"><path d="M 183.703125 1176.371094 L 393.597656 1176.371094 C 422.144531 1176.371094 445.285156 1199.511719 445.285156 1228.054688 C 445.285156 1256.601562 422.144531 1279.742188 393.597656 1279.742188 L 183.703125 1279.742188 C 155.15625 1279.742188 132.015625 1256.601562 132.015625 1228.054688 C 132.015625 1199.511719 155.15625 1176.371094 183.703125 1176.371094 Z M 183.703125 1176.371094 " clip-rule="nonzero"/></clipPath><clipPath id="bf4ab64a9e"><path d="M 285.648438 952.199219 L 291.648438 952.199219 L 291.648438 987.214844 L 285.648438 987.214844 Z M 285.648438 1141.351562 L 291.648438 1141.351562 L 291.648438 1158.371094 L 285.648438 1158.371094 Z M 285 1158.371094 L 292 1158.371094 L 292 1176.371094 L 285 1176.371094 Z M 285 1158.371094 " clip-rule="nonzero"/></clipPath><clipPath id="3bc976548f"><path d="M 285.648438 1158 L 291.648438 1158 L 291.648438 1158.371094 L 285.648438 1158.371094 Z M 276.648438 1158.371094 L 300.648438 1158.371094 L 300.648438 1176.371094 L 276.648438 1176.371094 Z M 276.648438 1158.371094 " clip-rule="nonzero"/></clipPath></defs><g mask="url(#b149ea9ec1)"><g transform="matrix(1, 0, 0, 1, 0, 0.000000000000081316)"><g clip-path="url(#b349bcd884)"><g clip-path="url(#a25facc008)"><path fill="#e4c7e6" d="M 0 0 L 636 0 L 636 1328.183594 L 0 1328.183594 Z M 0 0 " fill-opacity="1" fill-rule="nonzero"/></g></g></g></g><g clip-path="url(#78ed4ad38c)"><g clip-path="url(#62745db6d3)"><path fill="#ffccd2" d="M 132 36 L 445.378906 36 L 445.378906 139.382812 L 132 139.382812 Z M 132 36 " fill-opacity="1" fill-rule="nonzero"/></g></g><g clip-path="url(#b13790fb2a)"><g clip-path="url(#ee5ffc6f38)"><path stroke-linecap="butt" transform="matrix(0.75, 0, 0, 0.75, 132.01632, 35.999977)" fill="none" stroke-linejoin="miter" d="M 68.915741 0.0000307254 L 348.775122 0.0000307254 C 386.837623 0.0000307254 417.69179 30.854198 417.69179 68.91149 C 417.69179 106.973991 386.837623 137.828159 348.775122 137.828159 L 68.915741 137.828159 C 30.853241 137.828159 -0.000926768 106.973991 -0.000926768 68.91149 C -0.000926768 30.854198 30.853241 0.0000307254 68.915741 0.0000307254 Z M 68.915741 0.0000307254 " stroke="#000000" stroke-width="8" stroke-opacity="1" stroke-miterlimit="4"/></g></g><g fill="#232122" fill-opacity="1"><g transform="translate(238.664056, 101.249971)"><g><path d="M 8.460938 -26.28125 L 2.449219 -26.28125 L 2.449219 0 L 8.460938 0 Z M 8.460938 -26.28125 "/></g></g></g><g fill="#232122" fill-opacity="1"><g transform="translate(249.572083, 101.249971)"><g><path d="M 14.003906 -19.546875 C 10.621094 -19.546875 7.992188 -17.675781 6.984375 -13.5 L 5.21875 -19.078125 L 2.339844 -19.078125 L 2.339844 0 L 8.136719 0 L 8.136719 -9.253906 C 8.136719 -12.851562 9.757812 -14.472656 12.097656 -14.472656 C 14.363281 -14.472656 15.480469 -13.355469 15.480469 -10.152344 L 15.480469 0 L 21.203125 0 L 21.203125 -10.980469 C 21.203125 -16.632812 18.289062 -19.546875 14.003906 -19.546875 Z M 14.003906 -19.546875 "/></g></g></g><g fill="#232122" fill-opacity="1"><g transform="translate(272.684122, 101.249971)"><g><path d="M 8.425781 -24.625 C 8.425781 -22.753906 7.199219 -21.5625 5.21875 -21.5625 C 3.203125 -21.5625 1.980469 -22.753906 1.980469 -24.625 C 1.980469 -26.460938 3.203125 -27.683594 5.21875 -27.683594 C 7.199219 -27.683594 8.425781 -26.460938 8.425781 -24.625 Z M 8.101562 0 L 8.101562 -19.078125 L 2.339844 -19.078125 L 2.339844 0 Z M 8.101562 0 "/></g></g></g><g fill="#232122" fill-opacity="1"><g transform="translate(283.124143, 101.249971)"><g><path d="M 1.117188 -9.179688 C 1.117188 -3.347656 4.96875 0.46875 11.339844 0.46875 C 17.242188 0.46875 20.664062 -2.628906 21.238281 -7.632812 L 15.335938 -7.632812 C 14.867188 -5.4375 13.570312 -4.390625 11.269531 -4.390625 C 8.566406 -4.390625 6.910156 -6.046875 6.910156 -9.539062 C 6.910156 -13.03125 8.566406 -14.6875 11.269531 -14.6875 C 13.570312 -14.6875 14.867188 -13.644531 15.300781 -11.449219 L 21.203125 -11.449219 C 20.628906 -16.453125 17.207031 -19.546875 11.339844 -19.546875 C 4.96875 -19.546875 1.117188 -15.730469 1.117188 -9.898438 Z M 1.117188 -9.179688 "/></g></g></g><g fill="#232122" fill-opacity="1"><g transform="translate(305.444183, 101.249971)"><g><path d="M 8.425781 -24.625 C 8.425781 -22.753906 7.199219 -21.5625 5.21875 -21.5625 C 3.203125 -21.5625 1.980469 -22.753906 1.980469 -24.625 C 1.980469 -26.460938 3.203125 -27.683594 5.21875 -27.683594 C 7.199219 -27.683594 8.425781 -26.460938 8.425781 -24.625 Z M 8.101562 0 L 8.101562 -19.078125 L 2.339844 -19.078125 L 2.339844 0 Z M 8.101562 0 "/></g></g></g><g fill="#232122" fill-opacity="1"><g transform="translate(315.884203, 101.249971)"><g><path d="M 11.375 0.46875 C 17.785156 0.46875 21.601562 -3.347656 21.601562 -9.144531 L 21.601562 -9.9375 C 21.601562 -15.730469 17.785156 -19.546875 11.375 -19.546875 C 4.96875 -19.546875 1.117188 -15.730469 1.117188 -9.9375 L 1.117188 -9.144531 C 1.117188 -3.347656 4.96875 0.46875 11.375 0.46875 Z M 11.375 -4.355469 C 8.566406 -4.355469 6.910156 -6.046875 6.910156 -9.574219 C 6.910156 -13.03125 8.566406 -14.722656 11.375 -14.722656 C 14.148438 -14.722656 15.839844 -13.03125 15.839844 -9.574219 C 15.839844 -6.046875 14.148438 -4.355469 11.375 -4.355469 Z M 11.375 -4.355469 "/></g></g></g><path stroke-linecap="butt" transform="matrix(0.000000001309, 0.75, -0.75, 0.000000001309, 291.651493, 139.382707)" fill="none" stroke-linejoin="miter" d="M 0.000141174 3.998866 L 123.656402 3.998866 " stroke="#000000" stroke-width="8" stroke-opacity="1" stroke-miterlimit="4"/><path stroke-linecap="round" transform="matrix(0.000000001309, 0.75, -0.75, 0.000000001309, 291.651493, 139.382707)" fill="none" stroke-linejoin="round" d="M 107.6564 -8.001135 L 123.656402 3.998866 L 107.6564 15.998867 " stroke="#000000" stroke-width="8" stroke-opacity="1" stroke-miterlimit="4"/><g clip-path="url(#43c085ca2d)"><g clip-path="url(#1b5414cdfa)"><path fill="#d398d8" d="M 118.90625 235.125 L 458.175781 235.125 L 458.175781 358.320312 L 118.90625 358.320312 Z M 118.90625 235.125 " fill-opacity="1" fill-rule="nonzero"/></g></g><g clip-path="url(#fc3d3e0f3a)"><g clip-path="url(#b493ca1e31)"><path stroke-linecap="butt" transform="matrix(0.75, 0, 0, 0.75, 118.914306, 235.12496)" fill="none" stroke-linejoin="miter" d="M 23.999676 0.000053175 L 428.624684 0.000053175 C 441.874684 0.000053175 452.619476 10.744845 452.619476 24.000054 L 452.619476 140.250056 C 452.619476 153.505265 441.874684 164.250057 428.624684 164.250057 L 23.999676 164.250057 C 10.744467 164.250057 -0.000324645 153.505265 -0.000324645 140.250056 L -0.000324645 24.000054 C -0.000324645 10.744845 10.744467 0.000053175 23.999676 0.000053175 Z M 23.999676 0.000053175 " stroke="#000000" stroke-width="4" stroke-opacity="1" stroke-miterlimit="4"/></g></g><g fill="#000000" fill-opacity="1"><g transform="translate(159.453978, 289.874955)"><g><path d="M 7.519531 -23.355469 L 2.175781 -23.355469 L 2.175781 0 L 7.519531 0 Z M 7.519531 -23.355469 "/></g></g></g><g fill="#000000" fill-opacity="1"><g transform="translate(169.147592, 289.874955)"><g><path d="M 12.445312 -17.375 C 9.4375 -17.375 7.101562 -15.710938 6.207031 -12 L 4.640625 -16.957031 L 2.078125 -16.957031 L 2.078125 0 L 7.230469 0 L 7.230469 -8.222656 C 7.230469 -11.421875 8.671875 -12.863281 10.75 -12.863281 C 12.765625 -12.863281 13.757812 -11.871094 13.757812 -9.023438 L 13.757812 0 L 18.84375 0 L 18.84375 -9.757812 C 18.84375 -14.78125 16.253906 -17.375 12.445312 -17.375 Z M 12.445312 -17.375 "/></g></g></g><g fill="#000000" fill-opacity="1"><g transform="translate(189.686542, 289.874955)"><g><path d="M 7.488281 -21.882812 C 7.488281 -20.222656 6.398438 -19.164062 4.640625 -19.164062 C 2.847656 -19.164062 1.757812 -20.222656 1.757812 -21.882812 C 1.757812 -23.515625 2.847656 -24.605469 4.640625 -24.605469 C 6.398438 -24.605469 7.488281 -23.515625 7.488281 -21.882812 Z M 7.199219 0 L 7.199219 -16.957031 L 2.078125 -16.957031 L 2.078125 0 Z M 7.199219 0 "/></g></g></g><g fill="#000000" fill-opacity="1"><g transform="translate(198.964266, 289.874955)"><g><path d="M 0.992188 -8.160156 C 0.992188 -2.976562 4.414062 0.414062 10.078125 0.414062 C 15.324219 0.414062 18.363281 -2.335938 18.878906 -6.78125 L 13.628906 -6.78125 C 13.214844 -4.832031 12.0625 -3.902344 10.015625 -3.902344 C 7.613281 -3.902344 6.144531 -5.375 6.144531 -8.480469 C 6.144531 -11.582031 7.613281 -13.054688 10.015625 -13.054688 C 12.0625 -13.054688 13.214844 -12.125 13.597656 -10.175781 L 18.84375 -10.175781 C 18.332031 -14.621094 15.292969 -17.375 10.078125 -17.375 C 4.414062 -17.375 0.992188 -13.980469 0.992188 -8.796875 Z M 0.992188 -8.160156 "/></g></g></g><g fill="#000000" fill-opacity="1"><g transform="translate(218.799393, 289.874955)"><g><path d="M 7.488281 -21.882812 C 7.488281 -20.222656 6.398438 -19.164062 4.640625 -19.164062 C 2.847656 -19.164062 1.757812 -20.222656 1.757812 -21.882812 C 1.757812 -23.515625 2.847656 -24.605469 4.640625 -24.605469 C 6.398438 -24.605469 7.488281 -23.515625 7.488281 -21.882812 Z M 7.199219 0 L 7.199219 -16.957031 L 2.078125 -16.957031 L 2.078125 0 Z M 7.199219 0 "/></g></g></g><g fill="#000000" fill-opacity="1"><g transform="translate(228.077117, 289.874955)"><g><path d="M 9.886719 -17.375 C 4.511719 -17.375 2.015625 -14.8125 1.535156 -11.101562 L 6.6875 -11.101562 C 6.976562 -12.476562 7.839844 -13.34375 9.855469 -13.34375 C 11.804688 -13.34375 12.734375 -12.605469 12.988281 -10.78125 L 10.046875 -10.367188 C 3.871094 -9.46875 1.152344 -7.421875 1.152344 -3.96875 C 1.152344 -1.535156 3.136719 0.414062 6.621094 0.414062 C 10.367188 0.414062 13.085938 -1.472656 14.140625 -4.671875 L 15.582031 0 L 18.109375 0 L 18.109375 -9.246094 C 18.109375 -14.6875 15.390625 -17.375 9.886719 -17.375 Z M 8.351562 -3.550781 C 7.007812 -3.550781 6.367188 -4.191406 6.367188 -5.023438 C 6.367188 -6.269531 7.871094 -7.230469 11.421875 -7.773438 L 13.148438 -8 C 13.148438 -5.597656 11.070312 -3.550781 8.351562 -3.550781 Z M 8.351562 -3.550781 "/></g></g></g><g fill="#000000" fill-opacity="1"><g transform="translate(247.816263, 289.874955)"><g><path d="M 11.292969 -17.375 C 9.054688 -17.375 7.039062 -15.902344 6.207031 -11.839844 L 4.640625 -16.957031 L 2.078125 -16.957031 L 2.078125 0 L 7.230469 0 L 7.230469 -6.816406 C 7.230469 -10.527344 8.351562 -11.902344 10.941406 -11.902344 C 11.964844 -11.902344 12.765625 -11.804688 13.40625 -11.742188 L 13.40625 -17.085938 C 12.988281 -17.214844 12.285156 -17.375 11.292969 -17.375 Z M 11.292969 -17.375 "/></g></g></g><g fill="#000000" fill-opacity="1"><g transform="translate(261.796822, 289.874955)"><g/></g></g><g fill="#000000" fill-opacity="1"><g transform="translate(271.45845, 289.874955)"><g><path d="M 8.894531 -6.878906 L 5.023438 -16.957031 L -0.222656 -16.957031 L 6.6875 0 L 11.039062 0 L 17.980469 -16.957031 L 12.765625 -16.957031 Z M 8.894531 -6.878906 "/></g></g></g><g fill="#000000" fill-opacity="1"><g transform="translate(289.214083, 289.874955)"><g><path d="M 9.886719 -17.375 C 4.511719 -17.375 2.015625 -14.8125 1.535156 -11.101562 L 6.6875 -11.101562 C 6.976562 -12.476562 7.839844 -13.34375 9.855469 -13.34375 C 11.804688 -13.34375 12.734375 -12.605469 12.988281 -10.78125 L 10.046875 -10.367188 C 3.871094 -9.46875 1.152344 -7.421875 1.152344 -3.96875 C 1.152344 -1.535156 3.136719 0.414062 6.621094 0.414062 C 10.367188 0.414062 13.085938 -1.472656 14.140625 -4.671875 L 15.582031 0 L 18.109375 0 L 18.109375 -9.246094 C 18.109375 -14.6875 15.390625 -17.375 9.886719 -17.375 Z M 8.351562 -3.550781 C 7.007812 -3.550781 6.367188 -4.191406 6.367188 -5.023438 C 6.367188 -6.269531 7.871094 -7.230469 11.421875 -7.773438 L 13.148438 -8 C 13.148438 -5.597656 11.070312 -3.550781 8.351562 -3.550781 Z M 8.351562 -3.550781 "/></g></g></g><g fill="#000000" fill-opacity="1"><g transform="translate(308.953228, 289.874955)"><g><path d="M 11.292969 -17.375 C 9.054688 -17.375 7.039062 -15.902344 6.207031 -11.839844 L 4.640625 -16.957031 L 2.078125 -16.957031 L 2.078125 0 L 7.230469 0 L 7.230469 -6.816406 C 7.230469 -10.527344 8.351562 -11.902344 10.941406 -11.902344 C 11.964844 -11.902344 12.765625 -11.804688 13.40625 -11.742188 L 13.40625 -17.085938 C 12.988281 -17.214844 12.285156 -17.375 11.292969 -17.375 Z M 11.292969 -17.375 "/></g></g></g><g fill="#000000" fill-opacity="1"><g transform="translate(322.933787, 289.874955)"><g><path d="M 7.488281 -21.882812 C 7.488281 -20.222656 6.398438 -19.164062 4.640625 -19.164062 C 2.847656 -19.164062 1.757812 -20.222656 1.757812 -21.882812 C 1.757812 -23.515625 2.847656 -24.605469 4.640625 -24.605469 C 6.398438 -24.605469 7.488281 -23.515625 7.488281 -21.882812 Z M 7.199219 0 L 7.199219 -16.957031 L 2.078125 -16.957031 L 2.078125 0 Z M 7.199219 0 "/></g></g></g><g fill="#000000" fill-opacity="1"><g transform="translate(332.211512, 289.874955)"><g><path d="M 9.886719 -17.375 C 4.511719 -17.375 2.015625 -14.8125 1.535156 -11.101562 L 6.6875 -11.101562 C 6.976562 -12.476562 7.839844 -13.34375 9.855469 -13.34375 C 11.804688 -13.34375 12.734375 -12.605469 12.988281 -10.78125 L 10.046875 -10.367188 C 3.871094 -9.46875 1.152344 -7.421875 1.152344 -3.96875 C 1.152344 -1.535156 3.136719 0.414062 6.621094 0.414062 C 10.367188 0.414062 13.085938 -1.472656 14.140625 -4.671875 L 15.582031 0 L 18.109375 0 L 18.109375 -9.246094 C 18.109375 -14.6875 15.390625 -17.375 9.886719 -17.375 Z M 8.351562 -3.550781 C 7.007812 -3.550781 6.367188 -4.191406 6.367188 -5.023438 C 6.367188 -6.269531 7.871094 -7.230469 11.421875 -7.773438 L 13.148438 -8 C 13.148438 -5.597656 11.070312 -3.550781 8.351562 -3.550781 Z M 8.351562 -3.550781 "/></g></g></g><g fill="#000000" fill-opacity="1"><g transform="translate(351.950657, 289.874955)"><g><path d="M 8.894531 -6.878906 L 5.023438 -16.957031 L -0.222656 -16.957031 L 6.6875 0 L 11.039062 0 L 17.980469 -16.957031 L 12.765625 -16.957031 Z M 8.894531 -6.878906 "/></g></g></g><g fill="#000000" fill-opacity="1"><g transform="translate(369.706279, 289.874955)"><g><path d="M 18.878906 -9.503906 C 18.878906 -14.078125 15.582031 -17.375 10.140625 -17.375 C 4.414062 -17.375 0.992188 -13.980469 0.992188 -8.796875 L 0.992188 -8.160156 C 0.992188 -2.976562 4.414062 0.414062 10.046875 0.414062 C 15.390625 0.414062 18.078125 -2.429688 18.589844 -5.664062 L 13.277344 -5.664062 C 12.796875 -4.480469 11.933594 -3.617188 9.789062 -3.617188 C 7.613281 -3.617188 6.269531 -4.703125 5.984375 -7.359375 L 18.75 -7.359375 C 18.84375 -8.0625 18.878906 -8.605469 18.878906 -9.503906 Z M 10.015625 -13.46875 C 12.191406 -13.46875 13.5 -12.445312 13.757812 -10.175781 L 6.015625 -10.175781 C 6.398438 -12.476562 7.773438 -13.46875 10.015625 -13.46875 Z M 10.015625 -13.46875 "/></g></g></g><g fill="#000000" fill-opacity="1"><g transform="translate(389.605402, 289.874955)"><g><path d="M 7.488281 -21.882812 C 7.488281 -20.222656 6.398438 -19.164062 4.640625 -19.164062 C 2.847656 -19.164062 1.757812 -20.222656 1.757812 -21.882812 C 1.757812 -23.515625 2.847656 -24.605469 4.640625 -24.605469 C 6.398438 -24.605469 7.488281 -23.515625 7.488281 -21.882812 Z M 7.199219 0 L 7.199219 -16.957031 L 2.078125 -16.957031 L 2.078125 0 Z M 7.199219 0 "/></g></g></g><g fill="#000000" fill-opacity="1"><g transform="translate(398.883126, 289.874955)"><g><path d="M 0.734375 -5.695312 C 1.121094 -2.113281 3.488281 0.414062 9.695312 0.414062 C 15.484375 0.414062 18.078125 -2.175781 18.078125 -4.800781 C 18.078125 -7.488281 16.382812 -9.375 10.78125 -10.046875 C 6.558594 -10.558594 5.984375 -11.167969 5.984375 -12.03125 C 5.984375 -12.765625 6.71875 -13.566406 9.117188 -13.566406 C 11.613281 -13.566406 12.445312 -12.734375 12.671875 -11.328125 L 17.691406 -11.328125 C 17.339844 -14.75 14.878906 -17.375 9.054688 -17.375 C 3.582031 -17.375 1.054688 -14.878906 1.054688 -12.15625 C 1.054688 -9.40625 2.71875 -7.679688 8.480469 -6.976562 C 12.542969 -6.464844 13.117188 -5.855469 13.117188 -4.992188 C 13.117188 -4.222656 12.316406 -3.421875 9.695312 -3.421875 C 6.976562 -3.421875 6.046875 -4.351562 5.757812 -5.695312 Z M 0.734375 -5.695312 "/></g></g></g><g fill="#000000" fill-opacity="1"><g transform="translate(153.301634, 328.124952)"><g><path d="M 14.046875 -13.726562 C 12.894531 -16.09375 10.75 -17.375 8.285156 -17.375 C 4.289062 -17.375 0.992188 -14.078125 0.992188 -8.796875 L 0.992188 -8.160156 C 0.992188 -2.878906 4.289062 0.414062 8.285156 0.414062 C 11.519531 0.414062 14.140625 -1.535156 15.003906 -4.992188 L 16.605469 0 L 19.132812 0 L 19.132812 -23.355469 L 14.046875 -23.355469 Z M 10.078125 -4 C 7.613281 -4 6.144531 -5.472656 6.144531 -8.445312 C 6.144531 -11.484375 7.613281 -12.957031 10.078125 -12.957031 C 12.476562 -12.957031 14.046875 -11.421875 14.046875 -8.445312 C 14.046875 -5.535156 12.476562 -4 10.078125 -4 Z M 10.078125 -4 "/></g></g></g><g fill="#000000" fill-opacity="1"><g transform="translate(174.512422, 328.124952)"><g><path d="M 18.878906 -9.503906 C 18.878906 -14.078125 15.582031 -17.375 10.140625 -17.375 C 4.414062 -17.375 0.992188 -13.980469 0.992188 -8.796875 L 0.992188 -8.160156 C 0.992188 -2.976562 4.414062 0.414062 10.046875 0.414062 C 15.390625 0.414062 18.078125 -2.429688 18.589844 -5.664062 L 13.277344 -5.664062 C 12.796875 -4.480469 11.933594 -3.617188 9.789062 -3.617188 C 7.613281 -3.617188 6.269531 -4.703125 5.984375 -7.359375 L 18.75 -7.359375 C 18.84375 -8.0625 18.878906 -8.605469 18.878906 -9.503906 Z M 10.015625 -13.46875 C 12.191406 -13.46875 13.5 -12.445312 13.757812 -10.175781 L 6.015625 -10.175781 C 6.398438 -12.476562 7.773438 -13.46875 10.015625 -13.46875 Z M 10.015625 -13.46875 "/></g></g></g><g fill="#000000" fill-opacity="1"><g transform="translate(194.411532, 328.124952)"><g/></g></g><g fill="#000000" fill-opacity="1"><g transform="translate(204.07316, 328.124952)"><g><path d="M 13.277344 -8.734375 C 13.277344 -5.535156 11.839844 -4.09375 9.789062 -4.09375 C 7.742188 -4.09375 6.78125 -5.085938 6.78125 -7.933594 L 6.78125 -16.957031 L 1.695312 -16.957031 L 1.695312 -7.199219 C 1.695312 -2.175781 4.289062 0.414062 8.0625 0.414062 C 11.039062 0.414062 13.375 -1.246094 14.269531 -4.925781 L 15.835938 0 L 18.398438 0 L 18.398438 -16.957031 L 13.277344 -16.957031 Z M 13.277344 -8.734375 "/></g></g></g><g fill="#000000" fill-opacity="1"><g transform="translate(224.548126, 328.124952)"><g><path d="M 23.644531 -17.277344 C 21.210938 -17.277344 19.070312 -15.871094 17.980469 -12.957031 C 17.085938 -15.902344 14.941406 -17.375 12.285156 -17.375 C 9.375 -17.375 7.070312 -15.742188 6.175781 -12.03125 L 4.640625 -16.957031 L 2.078125 -16.957031 L 2.078125 0 L 7.230469 0 L 7.230469 -8.222656 C 7.230469 -11.421875 8.671875 -12.863281 10.527344 -12.863281 C 12.351562 -12.863281 13.34375 -11.871094 13.34375 -9.023438 L 13.34375 0 L 18.429688 0 L 18.429688 -8.222656 C 18.429688 -11.390625 19.933594 -12.863281 21.757812 -12.863281 C 23.582031 -12.863281 24.570312 -11.871094 24.570312 -9.117188 L 24.570312 0 L 29.660156 0 L 29.660156 -9.503906 C 29.660156 -14.71875 27.101562 -17.277344 23.644531 -17.277344 Z M 23.644531 -17.277344 "/></g></g></g><g fill="#000000" fill-opacity="1"><g transform="translate(255.900415, 328.124952)"><g/></g></g><g fill="#000000" fill-opacity="1"><g transform="translate(265.562043, 328.124952)"><g><path d="M 12.445312 -17.375 C 9.4375 -17.375 7.101562 -15.710938 6.207031 -12 L 4.640625 -16.957031 L 2.078125 -16.957031 L 2.078125 0 L 7.230469 0 L 7.230469 -8.222656 C 7.230469 -11.421875 8.671875 -12.863281 10.75 -12.863281 C 12.765625 -12.863281 13.757812 -11.871094 13.757812 -9.023438 L 13.757812 0 L 18.84375 0 L 18.84375 -9.757812 C 18.84375 -14.78125 16.253906 -17.375 12.445312 -17.375 Z M 12.445312 -17.375 "/></g></g></g><g fill="#000000" fill-opacity="1"><g transform="translate(286.100993, 328.124952)"><g><path d="M 10.109375 0.414062 C 15.804688 0.414062 19.195312 -2.976562 19.195312 -8.125 L 19.195312 -8.832031 C 19.195312 -13.980469 15.804688 -17.375 10.109375 -17.375 C 4.414062 -17.375 0.992188 -13.980469 0.992188 -8.832031 L 0.992188 -8.125 C 0.992188 -2.976562 4.414062 0.414062 10.109375 0.414062 Z M 10.109375 -3.871094 C 7.613281 -3.871094 6.144531 -5.375 6.144531 -8.511719 C 6.144531 -11.582031 7.613281 -13.085938 10.109375 -13.085938 C 12.574219 -13.085938 14.078125 -11.582031 14.078125 -8.511719 C 14.078125 -5.375 12.574219 -3.871094 10.109375 -3.871094 Z M 10.109375 -3.871094 "/></g></g></g><g fill="#000000" fill-opacity="1"><g transform="translate(306.320024, 328.124952)"><g><path d="M 8.894531 -6.878906 L 5.023438 -16.957031 L -0.222656 -16.957031 L 6.6875 0 L 11.039062 0 L 17.980469 -16.957031 L 12.765625 -16.957031 Z M 8.894531 -6.878906 "/></g></g></g><g fill="#000000" fill-opacity="1"><g transform="translate(324.075656, 328.124952)"><g><path d="M 10.109375 0.414062 C 15.804688 0.414062 19.195312 -2.976562 19.195312 -8.125 L 19.195312 -8.832031 C 19.195312 -13.980469 15.804688 -17.375 10.109375 -17.375 C 4.414062 -17.375 0.992188 -13.980469 0.992188 -8.832031 L 0.992188 -8.125 C 0.992188 -2.976562 4.414062 0.414062 10.109375 0.414062 Z M 10.109375 -3.871094 C 7.613281 -3.871094 6.144531 -5.375 6.144531 -8.511719 C 6.144531 -11.582031 7.613281 -13.085938 10.109375 -13.085938 C 12.574219 -13.085938 14.078125 -11.582031 14.078125 -8.511719 C 14.078125 -5.375 12.574219 -3.871094 10.109375 -3.871094 Z M 10.109375 -3.871094 "/></g></g></g><g fill="#000000" fill-opacity="1"><g transform="translate(344.294687, 328.124952)"><g/></g></g><g fill="#000000" fill-opacity="1"><g transform="translate(353.956326, 328.124952)"><g><path d="M 7.679688 -21.882812 C 7.679688 -20.222656 6.589844 -19.164062 4.832031 -19.164062 C 3.039062 -19.164062 1.953125 -20.222656 1.953125 -21.882812 C 1.953125 -23.515625 3.039062 -24.605469 4.832031 -24.605469 C 6.589844 -24.605469 7.679688 -23.515625 7.679688 -21.882812 Z M 2.304688 -16.957031 L 2.304688 0 C 2.304688 1.757812 1.632812 2.429688 0.128906 2.429688 C -0.574219 2.429688 -1.28125 2.367188 -1.917969 2.273438 L -1.917969 6.398438 C -1.152344 6.589844 -0.128906 6.78125 1.054688 6.78125 C 5.277344 6.78125 7.421875 4.640625 7.421875 0.0976562 L 7.421875 -16.957031 Z M 2.304688 -16.957031 "/></g></g></g><g fill="#000000" fill-opacity="1"><g transform="translate(363.457989, 328.124952)"><g><path d="M 10.109375 0.414062 C 15.804688 0.414062 19.195312 -2.976562 19.195312 -8.125 L 19.195312 -8.832031 C 19.195312 -13.980469 15.804688 -17.375 10.109375 -17.375 C 4.414062 -17.375 0.992188 -13.980469 0.992188 -8.832031 L 0.992188 -8.125 C 0.992188 -2.976562 4.414062 0.414062 10.109375 0.414062 Z M 10.109375 -3.871094 C 7.613281 -3.871094 6.144531 -5.375 6.144531 -8.511719 C 6.144531 -11.582031 7.613281 -13.085938 10.109375 -13.085938 C 12.574219 -13.085938 14.078125 -11.582031 14.078125 -8.511719 C 14.078125 -5.375 12.574219 -3.871094 10.109375 -3.871094 Z M 10.109375 -3.871094 "/></g></g></g><g fill="#000000" fill-opacity="1"><g transform="translate(383.67702, 328.124952)"><g><path d="M 19.996094 0.542969 C 19.996094 -2.335938 18.207031 -4.222656 13.660156 -4.222656 L 7.679688 -4.222656 C 6.046875 -4.222656 5.632812 -4.574219 5.632812 -5.214844 C 5.632812 -5.855469 6.046875 -6.269531 7.582031 -6.269531 L 10.015625 -6.269531 C 16.253906 -6.269531 18.652344 -8.671875 18.652344 -11.710938 L 18.652344 -11.871094 C 18.652344 -14.332031 17.179688 -16.316406 13.566406 -17.054688 C 13.917969 -17.886719 14.78125 -18.398438 16.414062 -18.398438 C 17.214844 -18.398438 18.046875 -18.300781 18.589844 -18.207031 L 18.589844 -22.714844 C 18.140625 -22.84375 17.628906 -22.972656 16.796875 -22.972656 C 14.207031 -22.972656 11.964844 -20.894531 11.710938 -17.308594 C 11.167969 -17.339844 10.621094 -17.375 10.015625 -17.375 C 3.808594 -17.375 1.40625 -14.972656 1.40625 -11.871094 L 1.40625 -11.742188 C 1.40625 -9.789062 2.367188 -8.125 4.671875 -7.136719 C 2.304688 -6.558594 1.3125 -5.183594 1.3125 -3.550781 C 1.3125 -1.886719 2.589844 -0.449219 4.992188 -0.0625 C 2.785156 0.351562 1.726562 1.535156 1.726562 3.101562 C 1.726562 4.992188 3.261719 6.78125 9.917969 6.78125 C 17.40625 6.78125 19.996094 4.191406 19.996094 0.542969 Z M 10.015625 -14.109375 C 12.734375 -14.109375 13.660156 -13.148438 13.660156 -11.804688 C 13.660156 -10.496094 12.734375 -9.535156 10.015625 -9.535156 C 7.328125 -9.535156 6.398438 -10.496094 6.398438 -11.804688 C 6.398438 -13.148438 7.328125 -14.109375 10.015625 -14.109375 Z M 10.527344 3.457031 C 6.78125 3.457031 6.078125 2.625 6.078125 1.601562 C 6.078125 0.542969 6.75 -0.257812 11.230469 -0.257812 C 14.910156 -0.257812 15.550781 0.449219 15.550781 1.40625 C 15.550781 2.429688 14.558594 3.457031 10.527344 3.457031 Z M 10.527344 3.457031 "/></g></g></g><g fill="#000000" fill-opacity="1"><g transform="translate(403.768082, 328.124952)"><g><path d="M 10.109375 0.414062 C 15.804688 0.414062 19.195312 -2.976562 19.195312 -8.125 L 19.195312 -8.832031 C 19.195312 -13.980469 15.804688 -17.375 10.109375 -17.375 C 4.414062 -17.375 0.992188 -13.980469 0.992188 -8.832031 L 0.992188 -8.125 C 0.992188 -2.976562 4.414062 0.414062 10.109375 0.414062 Z M 10.109375 -3.871094 C 7.613281 -3.871094 6.144531 -5.375 6.144531 -8.511719 C 6.144531 -11.582031 7.613281 -13.085938 10.109375 -13.085938 C 12.574219 -13.085938 14.078125 -11.582031 14.078125 -8.511719 C 14.078125 -5.375 12.574219 -3.871094 10.109375 -3.871094 Z M 10.109375 -3.871094 "/></g></g></g><path stroke-linecap="butt" transform="matrix(0, 0.75, -0.75, 0, 291.651582, 358.320771)" fill="none" stroke-linejoin="miter" d="M -0.000610669 3.998984 L 123.9994 3.998984 " stroke="#000000" stroke-width="8" stroke-opacity="1" stroke-miterlimit="4"/><path stroke-linecap="round" transform="matrix(0, 0.75, -0.75, 0, 291.651582, 358.320771)" fill="none" stroke-linejoin="round" d="M 107.999398 -8.001017 L 123.9994 3.998984 L 107.999398 15.998985 " stroke="#000000" stroke-width="8" stroke-opacity="1" stroke-miterlimit="4"/><g clip-path="url(#bb0bf1198a)"><g clip-path="url(#3accd5ea93)"><path fill="#e152cb" d="M 98.789062 719.613281 L 478.640625 719.613281 L 478.640625 957.371094 L 98.789062 957.371094 Z M 98.789062 719.613281 " fill-opacity="1" fill-rule="nonzero"/></g></g><g clip-path="url(#2b505ffabb)"><g clip-path="url(#6176252097)"><path stroke-linecap="butt" transform="matrix(0.75, 0, 0, 0.75, 98.790548, 719.613255)" fill="none" stroke-linejoin="miter" d="M 273.487626 12.734411 L 485.945978 145.765672 C 490.336603 148.510464 492.998061 153.322964 492.998061 158.500048 C 492.998061 163.677132 490.336603 168.489632 485.945978 171.234424 L 273.487626 304.265686 C 261.044917 312.052145 245.24804 312.052145 232.805331 304.265686 L 20.341771 171.234424 C 15.951146 168.489632 13.289688 163.677132 13.289688 158.500048 C 13.289688 153.322964 15.951146 148.510464 20.341771 145.765672 L 232.805331 12.734411 C 245.24804 4.947952 261.044917 4.947952 273.487626 12.734411 Z M 273.487626 12.734411 " stroke="#000000" stroke-width="8" stroke-opacity="1" stroke-miterlimit="4"/></g></g><g fill="#000000" fill-opacity="1"><g transform="translate(208.721305, 850.863244)"><g><path d="M 18.207031 0 L 18.207031 -4.734375 L 7.488281 -4.734375 L 7.488281 -23.355469 L 2.144531 -23.355469 L 2.144531 0 Z M 18.207031 0 "/></g></g></g><g fill="#000000" fill-opacity="1"><g transform="translate(227.436708, 850.863244)"><g><path d="M 18.878906 -9.503906 C 18.878906 -14.078125 15.582031 -17.375 10.140625 -17.375 C 4.414062 -17.375 0.992188 -13.980469 0.992188 -8.796875 L 0.992188 -8.160156 C 0.992188 -2.976562 4.414062 0.414062 10.046875 0.414062 C 15.390625 0.414062 18.078125 -2.429688 18.589844 -5.664062 L 13.277344 -5.664062 C 12.796875 -4.480469 11.933594 -3.617188 9.789062 -3.617188 C 7.613281 -3.617188 6.269531 -4.703125 5.984375 -7.359375 L 18.75 -7.359375 C 18.84375 -8.0625 18.878906 -8.605469 18.878906 -9.503906 Z M 10.015625 -13.46875 C 12.191406 -13.46875 13.5 -12.445312 13.757812 -10.175781 L 6.015625 -10.175781 C 6.398438 -12.476562 7.773438 -13.46875 10.015625 -13.46875 Z M 10.015625 -13.46875 "/></g></g></g><g fill="#000000" fill-opacity="1"><g transform="translate(247.335819, 850.863244)"><g><path d="M 11.292969 -17.375 C 9.054688 -17.375 7.039062 -15.902344 6.207031 -11.839844 L 4.640625 -16.957031 L 2.078125 -16.957031 L 2.078125 0 L 7.230469 0 L 7.230469 -6.816406 C 7.230469 -10.527344 8.351562 -11.902344 10.941406 -11.902344 C 11.964844 -11.902344 12.765625 -11.804688 13.40625 -11.742188 L 13.40625 -17.085938 C 12.988281 -17.214844 12.285156 -17.375 11.292969 -17.375 Z M 11.292969 -17.375 "/></g></g></g><g fill="#000000" fill-opacity="1"><g transform="translate(261.316378, 850.863244)"><g/></g></g><g fill="#000000" fill-opacity="1"><g transform="translate(270.978006, 850.863244)"><g><path d="M 12.957031 -17.375 C 10.460938 -17.375 8.351562 -16.09375 7.199219 -13.726562 L 7.199219 -23.355469 L 2.078125 -23.355469 L 2.078125 0 L 4.640625 0 L 6.207031 -4.992188 C 7.101562 -1.535156 9.695312 0.414062 12.957031 0.414062 C 16.925781 0.414062 20.222656 -2.878906 20.222656 -8.160156 L 20.222656 -8.796875 C 20.222656 -14.078125 16.925781 -17.375 12.957031 -17.375 Z M 11.167969 -4 C 8.734375 -4 7.199219 -5.535156 7.199219 -8.445312 C 7.199219 -11.421875 8.734375 -12.957031 11.167969 -12.957031 C 13.597656 -12.957031 15.101562 -11.484375 15.101562 -8.445312 C 15.101562 -5.472656 13.597656 -4 11.167969 -4 Z M 11.167969 -4 "/></g></g></g><g fill="#000000" fill-opacity="1"><g transform="translate(292.188793, 850.863244)"><g><path d="M 10.109375 0.414062 C 15.804688 0.414062 19.195312 -2.976562 19.195312 -8.125 L 19.195312 -8.832031 C 19.195312 -13.980469 15.804688 -17.375 10.109375 -17.375 C 4.414062 -17.375 0.992188 -13.980469 0.992188 -8.832031 L 0.992188 -8.125 C 0.992188 -2.976562 4.414062 0.414062 10.109375 0.414062 Z M 10.109375 -3.871094 C 7.613281 -3.871094 6.144531 -5.375 6.144531 -8.511719 C 6.144531 -11.582031 7.613281 -13.085938 10.109375 -13.085938 C 12.574219 -13.085938 14.078125 -11.582031 14.078125 -8.511719 C 14.078125 -5.375 12.574219 -3.871094 10.109375 -3.871094 Z M 10.109375 -3.871094 "/></g></g></g><g fill="#000000" fill-opacity="1"><g transform="translate(312.407824, 850.863244)"><g><path d="M 14.941406 -16.957031 L 9.117188 -16.957031 L 9.117188 -21.980469 L 6.109375 -21.980469 L 4.191406 -16.957031 L 0.640625 -16.957031 L 0.640625 -12.671875 L 4.03125 -12.671875 L 4.03125 -6.304688 C 4.03125 -1.695312 6.175781 0.414062 11.007812 0.414062 C 12.863281 0.414062 14.171875 0.191406 14.972656 0 L 14.972656 -4.253906 C 14.207031 -4.128906 13.183594 -3.96875 11.964844 -3.96875 C 9.757812 -3.96875 9.117188 -4.640625 9.117188 -7.007812 L 9.117188 -12.671875 L 14.941406 -12.671875 Z M 14.941406 -16.957031 "/></g></g></g><g fill="#000000" fill-opacity="1"><g transform="translate(328.595845, 850.863244)"><g><path d="M 3.519531 -19.261719 C 3.519531 -23.324219 4.894531 -24.699219 7.167969 -24.699219 C 9.789062 -24.699219 11.453125 -22.042969 12.574219 -22.042969 C 13.277344 -22.042969 13.660156 -22.429688 13.660156 -24.570312 L 16.476562 -24.570312 C 16.476562 -20.507812 15.132812 -19.132812 12.863281 -19.132812 C 10.175781 -19.132812 8.511719 -21.820312 7.453125 -21.820312 C 6.75 -21.820312 6.367188 -21.40625 6.367188 -19.261719 Z M 9.886719 -17.375 C 4.511719 -17.375 2.015625 -14.8125 1.535156 -11.101562 L 6.6875 -11.101562 C 6.976562 -12.476562 7.839844 -13.34375 9.855469 -13.34375 C 11.804688 -13.34375 12.734375 -12.605469 12.988281 -10.78125 L 10.046875 -10.367188 C 3.871094 -9.46875 1.152344 -7.421875 1.152344 -3.96875 C 1.152344 -1.535156 3.136719 0.414062 6.621094 0.414062 C 10.367188 0.414062 13.085938 -1.472656 14.140625 -4.671875 L 15.582031 0 L 18.109375 0 L 18.109375 -9.246094 C 18.109375 -14.6875 15.390625 -17.375 9.886719 -17.375 Z M 8.351562 -3.550781 C 7.007812 -3.550781 6.367188 -4.191406 6.367188 -5.023438 C 6.367188 -6.269531 7.871094 -7.230469 11.421875 -7.773438 L 13.148438 -8 C 13.148438 -5.597656 11.070312 -3.550781 8.351562 -3.550781 Z M 8.351562 -3.550781 "/></g></g></g><g fill="#000000" fill-opacity="1"><g transform="translate(348.334991, 850.863244)"><g><path d="M 10.109375 0.414062 C 15.804688 0.414062 19.195312 -2.976562 19.195312 -8.125 L 19.195312 -8.832031 C 19.195312 -13.980469 15.804688 -17.375 10.109375 -17.375 C 4.414062 -17.375 0.992188 -13.980469 0.992188 -8.832031 L 0.992188 -8.125 C 0.992188 -2.976562 4.414062 0.414062 10.109375 0.414062 Z M 10.109375 -3.871094 C 7.613281 -3.871094 6.144531 -5.375 6.144531 -8.511719 C 6.144531 -11.582031 7.613281 -13.085938 10.109375 -13.085938 C 12.574219 -13.085938 14.078125 -11.582031 14.078125 -8.511719 C 14.078125 -5.375 12.574219 -3.871094 10.109375 -3.871094 Z M 10.109375 -3.871094 "/></g></g></g><g clip-path="url(#ab6d6c614c)"><g clip-path="url(#228773466e)"><path fill="#d398d8" d="M 140.511719 454.320312 L 436.914062 454.320312 L 436.914062 615.765625 L 140.511719 615.765625 Z M 140.511719 454.320312 " fill-opacity="1" fill-rule="nonzero"/></g></g><g clip-path="url(#68e38da297)"><g clip-path="url(#951bd62e00)"><path stroke-linecap="butt" transform="matrix(0.75, 0, 0, 0.75, 140.514847, 454.320758)" fill="none" stroke-linejoin="miter" d="M 24.00104 -0.000593446 L 371.021903 -0.000593446 C 384.277112 -0.000593446 395.021905 10.744199 395.021905 23.999409 L 395.021905 191.249423 C 395.021905 204.504632 384.277112 215.249425 371.021903 215.249425 L 24.00104 215.249425 C 10.74583 215.249425 0.00103792 204.504632 0.00103792 191.249423 L 0.00103792 23.999409 C 0.00103792 10.744199 10.74583 -0.000593446 24.00104 -0.000593446 Z M 24.00104 -0.000593446 " stroke="#000000" stroke-width="4" stroke-opacity="1" stroke-miterlimit="4"/></g></g><g fill="#000000" fill-opacity="1"><g transform="translate(193.655565, 509.070753)"><g><path d="M 20.316406 0 L 20.316406 -4.574219 L 7.421875 -4.574219 L 7.421875 -9.566406 L 18.621094 -9.566406 L 18.621094 -14.078125 L 7.421875 -14.078125 L 7.421875 -18.8125 L 19.773438 -18.8125 L 19.773438 -23.355469 L 2.144531 -23.355469 L 2.144531 0 Z M 20.316406 0 "/></g></g></g><g fill="#000000" fill-opacity="1"><g transform="translate(214.834354, 509.070753)"><g><path d="M 12.445312 -17.375 C 9.4375 -17.375 7.101562 -15.710938 6.207031 -12 L 4.640625 -16.957031 L 2.078125 -16.957031 L 2.078125 0 L 7.230469 0 L 7.230469 -8.222656 C 7.230469 -11.421875 8.671875 -12.863281 10.75 -12.863281 C 12.765625 -12.863281 13.757812 -11.871094 13.757812 -9.023438 L 13.757812 0 L 18.84375 0 L 18.84375 -9.757812 C 18.84375 -14.78125 16.253906 -17.375 12.445312 -17.375 Z M 12.445312 -17.375 "/></g></g></g><g fill="#000000" fill-opacity="1"><g transform="translate(235.373304, 509.070753)"><g><path d="M 15.003906 -11.964844 C 14.140625 -15.421875 11.519531 -17.375 8.285156 -17.375 C 4.289062 -17.375 0.992188 -14.078125 0.992188 -8.796875 L 0.992188 -8.160156 C 0.992188 -2.878906 4.289062 0.414062 8.285156 0.414062 C 10.75 0.414062 12.894531 -0.863281 14.046875 -3.230469 L 14.046875 6.398438 L 19.132812 6.398438 L 19.132812 -16.957031 L 16.605469 -16.957031 Z M 10.078125 -4 C 7.613281 -4 6.144531 -5.472656 6.144531 -8.511719 C 6.144531 -11.484375 7.613281 -12.957031 10.078125 -12.957031 C 12.476562 -12.957031 14.046875 -11.421875 14.046875 -8.511719 C 14.046875 -5.535156 12.476562 -4 10.078125 -4 Z M 10.078125 -4 "/></g></g></g><g fill="#000000" fill-opacity="1"><g transform="translate(256.584091, 509.070753)"><g><path d="M 13.277344 -8.734375 C 13.277344 -5.535156 11.839844 -4.09375 9.789062 -4.09375 C 7.742188 -4.09375 6.78125 -5.085938 6.78125 -7.933594 L 6.78125 -16.957031 L 1.695312 -16.957031 L 1.695312 -7.199219 C 1.695312 -2.175781 4.289062 0.414062 8.0625 0.414062 C 11.039062 0.414062 13.375 -1.246094 14.269531 -4.925781 L 15.835938 0 L 18.398438 0 L 18.398438 -16.957031 L 13.277344 -16.957031 Z M 13.277344 -8.734375 "/></g></g></g><g fill="#000000" fill-opacity="1"><g transform="translate(277.059057, 509.070753)"><g><path d="M 9.886719 -17.375 C 4.511719 -17.375 2.015625 -14.8125 1.535156 -11.101562 L 6.6875 -11.101562 C 6.976562 -12.476562 7.839844 -13.34375 9.855469 -13.34375 C 11.804688 -13.34375 12.734375 -12.605469 12.988281 -10.78125 L 10.046875 -10.367188 C 3.871094 -9.46875 1.152344 -7.421875 1.152344 -3.96875 C 1.152344 -1.535156 3.136719 0.414062 6.621094 0.414062 C 10.367188 0.414062 13.085938 -1.472656 14.140625 -4.671875 L 15.582031 0 L 18.109375 0 L 18.109375 -9.246094 C 18.109375 -14.6875 15.390625 -17.375 9.886719 -17.375 Z M 8.351562 -3.550781 C 7.007812 -3.550781 6.367188 -4.191406 6.367188 -5.023438 C 6.367188 -6.269531 7.871094 -7.230469 11.421875 -7.773438 L 13.148438 -8 C 13.148438 -5.597656 11.070312 -3.550781 8.351562 -3.550781 Z M 8.351562 -3.550781 "/></g></g></g><g fill="#000000" fill-opacity="1"><g transform="translate(296.798203, 509.070753)"><g><path d="M 12.445312 -17.375 C 9.4375 -17.375 7.101562 -15.710938 6.207031 -12 L 4.640625 -16.957031 L 2.078125 -16.957031 L 2.078125 0 L 7.230469 0 L 7.230469 -8.222656 C 7.230469 -11.421875 8.671875 -12.863281 10.75 -12.863281 C 12.765625 -12.863281 13.757812 -11.871094 13.757812 -9.023438 L 13.757812 0 L 18.84375 0 L 18.84375 -9.757812 C 18.84375 -14.78125 16.253906 -17.375 12.445312 -17.375 Z M 12.445312 -17.375 "/></g></g></g><g fill="#000000" fill-opacity="1"><g transform="translate(317.337153, 509.070753)"><g><path d="M 14.941406 -16.957031 L 9.117188 -16.957031 L 9.117188 -21.980469 L 6.109375 -21.980469 L 4.191406 -16.957031 L 0.640625 -16.957031 L 0.640625 -12.671875 L 4.03125 -12.671875 L 4.03125 -6.304688 C 4.03125 -1.695312 6.175781 0.414062 11.007812 0.414062 C 12.863281 0.414062 14.171875 0.191406 14.972656 0 L 14.972656 -4.253906 C 14.207031 -4.128906 13.183594 -3.96875 11.964844 -3.96875 C 9.757812 -3.96875 9.117188 -4.640625 9.117188 -7.007812 L 9.117188 -12.671875 L 14.941406 -12.671875 Z M 14.941406 -16.957031 "/></g></g></g><g fill="#000000" fill-opacity="1"><g transform="translate(333.525174, 509.070753)"><g><path d="M 10.109375 0.414062 C 15.804688 0.414062 19.195312 -2.976562 19.195312 -8.125 L 19.195312 -8.832031 C 19.195312 -13.980469 15.804688 -17.375 10.109375 -17.375 C 4.414062 -17.375 0.992188 -13.980469 0.992188 -8.832031 L 0.992188 -8.125 C 0.992188 -2.976562 4.414062 0.414062 10.109375 0.414062 Z M 10.109375 -3.871094 C 7.613281 -3.871094 6.144531 -5.375 6.144531 -8.511719 C 6.144531 -11.582031 7.613281 -13.085938 10.109375 -13.085938 C 12.574219 -13.085938 14.078125 -11.582031 14.078125 -8.511719 C 14.078125 -5.375 12.574219 -3.871094 10.109375 -3.871094 Z M 10.109375 -3.871094 "/></g></g></g><g fill="#000000" fill-opacity="1"><g transform="translate(353.744204, 509.070753)"><g/></g></g><g fill="#000000" fill-opacity="1"><g transform="translate(363.405832, 509.070753)"><g><path d="M 10.109375 0.414062 C 15.804688 0.414062 19.195312 -2.976562 19.195312 -8.125 L 19.195312 -8.832031 C 19.195312 -13.980469 15.804688 -17.375 10.109375 -17.375 C 4.414062 -17.375 0.992188 -13.980469 0.992188 -8.832031 L 0.992188 -8.125 C 0.992188 -2.976562 4.414062 0.414062 10.109375 0.414062 Z M 10.109375 -3.871094 C 7.613281 -3.871094 6.144531 -5.375 6.144531 -8.511719 C 6.144531 -11.582031 7.613281 -13.085938 10.109375 -13.085938 C 12.574219 -13.085938 14.078125 -11.582031 14.078125 -8.511719 C 14.078125 -5.375 12.574219 -3.871094 10.109375 -3.871094 Z M 10.109375 -3.871094 "/></g></g></g><g fill="#000000" fill-opacity="1"><g transform="translate(162.69463, 547.32075)"><g><path d="M 12.957031 -17.375 C 10.460938 -17.375 8.351562 -16.09375 7.199219 -13.726562 L 7.199219 -23.355469 L 2.078125 -23.355469 L 2.078125 0 L 4.640625 0 L 6.207031 -4.992188 C 7.101562 -1.535156 9.695312 0.414062 12.957031 0.414062 C 16.925781 0.414062 20.222656 -2.878906 20.222656 -8.160156 L 20.222656 -8.796875 C 20.222656 -14.078125 16.925781 -17.375 12.957031 -17.375 Z M 11.167969 -4 C 8.734375 -4 7.199219 -5.535156 7.199219 -8.445312 C 7.199219 -11.421875 8.734375 -12.957031 11.167969 -12.957031 C 13.597656 -12.957031 15.101562 -11.484375 15.101562 -8.445312 C 15.101562 -5.472656 13.597656 -4 11.167969 -4 Z M 11.167969 -4 "/></g></g></g><g fill="#000000" fill-opacity="1"><g transform="translate(183.905417, 547.32075)"><g><path d="M 10.109375 0.414062 C 15.804688 0.414062 19.195312 -2.976562 19.195312 -8.125 L 19.195312 -8.832031 C 19.195312 -13.980469 15.804688 -17.375 10.109375 -17.375 C 4.414062 -17.375 0.992188 -13.980469 0.992188 -8.832031 L 0.992188 -8.125 C 0.992188 -2.976562 4.414062 0.414062 10.109375 0.414062 Z M 10.109375 -3.871094 C 7.613281 -3.871094 6.144531 -5.375 6.144531 -8.511719 C 6.144531 -11.582031 7.613281 -13.085938 10.109375 -13.085938 C 12.574219 -13.085938 14.078125 -11.582031 14.078125 -8.511719 C 14.078125 -5.375 12.574219 -3.871094 10.109375 -3.871094 Z M 10.109375 -3.871094 "/></g></g></g><g fill="#000000" fill-opacity="1"><g transform="translate(204.124448, 547.32075)"><g><path d="M 14.941406 -16.957031 L 9.117188 -16.957031 L 9.117188 -21.980469 L 6.109375 -21.980469 L 4.191406 -16.957031 L 0.640625 -16.957031 L 0.640625 -12.671875 L 4.03125 -12.671875 L 4.03125 -6.304688 C 4.03125 -1.695312 6.175781 0.414062 11.007812 0.414062 C 12.863281 0.414062 14.171875 0.191406 14.972656 0 L 14.972656 -4.253906 C 14.207031 -4.128906 13.183594 -3.96875 11.964844 -3.96875 C 9.757812 -3.96875 9.117188 -4.640625 9.117188 -7.007812 L 9.117188 -12.671875 L 14.941406 -12.671875 Z M 14.941406 -16.957031 "/></g></g></g><g fill="#000000" fill-opacity="1"><g transform="translate(220.312469, 547.32075)"><g><path d="M 3.519531 -19.261719 C 3.519531 -23.324219 4.894531 -24.699219 7.167969 -24.699219 C 9.789062 -24.699219 11.453125 -22.042969 12.574219 -22.042969 C 13.277344 -22.042969 13.660156 -22.429688 13.660156 -24.570312 L 16.476562 -24.570312 C 16.476562 -20.507812 15.132812 -19.132812 12.863281 -19.132812 C 10.175781 -19.132812 8.511719 -21.820312 7.453125 -21.820312 C 6.75 -21.820312 6.367188 -21.40625 6.367188 -19.261719 Z M 9.886719 -17.375 C 4.511719 -17.375 2.015625 -14.8125 1.535156 -11.101562 L 6.6875 -11.101562 C 6.976562 -12.476562 7.839844 -13.34375 9.855469 -13.34375 C 11.804688 -13.34375 12.734375 -12.605469 12.988281 -10.78125 L 10.046875 -10.367188 C 3.871094 -9.46875 1.152344 -7.421875 1.152344 -3.96875 C 1.152344 -1.535156 3.136719 0.414062 6.621094 0.414062 C 10.367188 0.414062 13.085938 -1.472656 14.140625 -4.671875 L 15.582031 0 L 18.109375 0 L 18.109375 -9.246094 C 18.109375 -14.6875 15.390625 -17.375 9.886719 -17.375 Z M 8.351562 -3.550781 C 7.007812 -3.550781 6.367188 -4.191406 6.367188 -5.023438 C 6.367188 -6.269531 7.871094 -7.230469 11.421875 -7.773438 L 13.148438 -8 C 13.148438 -5.597656 11.070312 -3.550781 8.351562 -3.550781 Z M 8.351562 -3.550781 "/></g></g></g><g fill="#000000" fill-opacity="1"><g transform="translate(240.051614, 547.32075)"><g><path d="M 10.109375 0.414062 C 15.804688 0.414062 19.195312 -2.976562 19.195312 -8.125 L 19.195312 -8.832031 C 19.195312 -13.980469 15.804688 -17.375 10.109375 -17.375 C 4.414062 -17.375 0.992188 -13.980469 0.992188 -8.832031 L 0.992188 -8.125 C 0.992188 -2.976562 4.414062 0.414062 10.109375 0.414062 Z M 10.109375 -3.871094 C 7.613281 -3.871094 6.144531 -5.375 6.144531 -8.511719 C 6.144531 -11.582031 7.613281 -13.085938 10.109375 -13.085938 C 12.574219 -13.085938 14.078125 -11.582031 14.078125 -8.511719 C 14.078125 -5.375 12.574219 -3.871094 10.109375 -3.871094 Z M 10.109375 -3.871094 "/></g></g></g><g fill="#000000" fill-opacity="1"><g transform="translate(260.270645, 547.32075)"><g/></g></g><g fill="#000000" fill-opacity="1"><g transform="translate(269.932273, 547.32075)"><g><path d="M 7.488281 -21.882812 C 7.488281 -20.222656 6.398438 -19.164062 4.640625 -19.164062 C 2.847656 -19.164062 1.757812 -20.222656 1.757812 -21.882812 C 1.757812 -23.515625 2.847656 -24.605469 4.640625 -24.605469 C 6.398438 -24.605469 7.488281 -23.515625 7.488281 -21.882812 Z M 7.199219 0 L 7.199219 -16.957031 L 2.078125 -16.957031 L 2.078125 0 Z M 7.199219 0 "/></g></g></g><g fill="#000000" fill-opacity="1"><g transform="translate(279.209997, 547.32075)"><g><path d="M 12.445312 -17.375 C 9.4375 -17.375 7.101562 -15.710938 6.207031 -12 L 4.640625 -16.957031 L 2.078125 -16.957031 L 2.078125 0 L 7.230469 0 L 7.230469 -8.222656 C 7.230469 -11.421875 8.671875 -12.863281 10.75 -12.863281 C 12.765625 -12.863281 13.757812 -11.871094 13.757812 -9.023438 L 13.757812 0 L 18.84375 0 L 18.84375 -9.757812 C 18.84375 -14.78125 16.253906 -17.375 12.445312 -17.375 Z M 12.445312 -17.375 "/></g></g></g><g fill="#000000" fill-opacity="1"><g transform="translate(299.748947, 547.32075)"><g><path d="M 7.488281 -21.882812 C 7.488281 -20.222656 6.398438 -19.164062 4.640625 -19.164062 C 2.847656 -19.164062 1.757812 -20.222656 1.757812 -21.882812 C 1.757812 -23.515625 2.847656 -24.605469 4.640625 -24.605469 C 6.398438 -24.605469 7.488281 -23.515625 7.488281 -21.882812 Z M 7.199219 0 L 7.199219 -16.957031 L 2.078125 -16.957031 L 2.078125 0 Z M 7.199219 0 "/></g></g></g><g fill="#000000" fill-opacity="1"><g transform="translate(309.026672, 547.32075)"><g><path d="M 0.992188 -8.160156 C 0.992188 -2.976562 4.414062 0.414062 10.078125 0.414062 C 15.324219 0.414062 18.363281 -2.335938 18.878906 -6.78125 L 13.628906 -6.78125 C 13.214844 -4.832031 12.0625 -3.902344 10.015625 -3.902344 C 7.613281 -3.902344 6.144531 -5.375 6.144531 -8.480469 C 6.144531 -11.582031 7.613281 -13.054688 10.015625 -13.054688 C 12.0625 -13.054688 13.214844 -12.125 13.597656 -10.175781 L 18.84375 -10.175781 C 18.332031 -14.621094 15.292969 -17.375 10.078125 -17.375 C 4.414062 -17.375 0.992188 -13.980469 0.992188 -8.796875 Z M 0.992188 -8.160156 "/></g></g></g><g fill="#000000" fill-opacity="1"><g transform="translate(328.861799, 547.32075)"><g><path d="M 7.488281 -21.882812 C 7.488281 -20.222656 6.398438 -19.164062 4.640625 -19.164062 C 2.847656 -19.164062 1.757812 -20.222656 1.757812 -21.882812 C 1.757812 -23.515625 2.847656 -24.605469 4.640625 -24.605469 C 6.398438 -24.605469 7.488281 -23.515625 7.488281 -21.882812 Z M 7.199219 0 L 7.199219 -16.957031 L 2.078125 -16.957031 L 2.078125 0 Z M 7.199219 0 "/></g></g></g><g fill="#000000" fill-opacity="1"><g transform="translate(338.139523, 547.32075)"><g><path d="M 9.886719 -17.375 C 4.511719 -17.375 2.015625 -14.8125 1.535156 -11.101562 L 6.6875 -11.101562 C 6.976562 -12.476562 7.839844 -13.34375 9.855469 -13.34375 C 11.804688 -13.34375 12.734375 -12.605469 12.988281 -10.78125 L 10.046875 -10.367188 C 3.871094 -9.46875 1.152344 -7.421875 1.152344 -3.96875 C 1.152344 -1.535156 3.136719 0.414062 6.621094 0.414062 C 10.367188 0.414062 13.085938 -1.472656 14.140625 -4.671875 L 15.582031 0 L 18.109375 0 L 18.109375 -9.246094 C 18.109375 -14.6875 15.390625 -17.375 9.886719 -17.375 Z M 8.351562 -3.550781 C 7.007812 -3.550781 6.367188 -4.191406 6.367188 -5.023438 C 6.367188 -6.269531 7.871094 -7.230469 11.421875 -7.773438 L 13.148438 -8 C 13.148438 -5.597656 11.070312 -3.550781 8.351562 -3.550781 Z M 8.351562 -3.550781 "/></g></g></g><g fill="#000000" fill-opacity="1"><g transform="translate(357.87868, 547.32075)"><g><path d="M 11.292969 -17.375 C 9.054688 -17.375 7.039062 -15.902344 6.207031 -11.839844 L 4.640625 -16.957031 L 2.078125 -16.957031 L 2.078125 0 L 7.230469 0 L 7.230469 -6.816406 C 7.230469 -10.527344 8.351562 -11.902344 10.941406 -11.902344 C 11.964844 -11.902344 12.765625 -11.804688 13.40625 -11.742188 L 13.40625 -17.085938 C 12.988281 -17.214844 12.285156 -17.375 11.292969 -17.375 Z M 11.292969 -17.375 "/></g></g></g><g fill="#000000" fill-opacity="1"><g transform="translate(371.859239, 547.32075)"><g/></g></g><g fill="#000000" fill-opacity="1"><g transform="translate(381.520867, 547.32075)"><g><path d="M 7.613281 -16.957031 L 7.613281 -23.355469 L 2.144531 -23.355469 L 2.144531 -16.957031 L 2.71875 -7.007812 L 7.039062 -7.007812 Z M 8 -2.527344 C 8 -0.769531 6.816406 0.414062 4.960938 0.414062 C 3.136719 0.414062 1.953125 -0.769531 1.953125 -2.527344 C 1.953125 -4.289062 3.136719 -5.472656 4.960938 -5.472656 C 6.816406 -5.472656 8 -4.289062 8 -2.527344 Z M 8 -2.527344 "/></g></g></g><g fill="#000000" fill-opacity="1"><g transform="translate(391.470428, 547.32075)"><g><path d="M 3.359375 -13.628906 L 19.804688 -13.628906 L 19.804688 -18.046875 L 3.359375 -18.046875 Z M 3.359375 -5.3125 L 19.804688 -5.3125 L 19.804688 -9.726562 L 3.359375 -9.726562 Z M 3.359375 -5.3125 "/></g></g></g><g fill="#000000" fill-opacity="1"><g transform="translate(282.530561, 585.570746)"><g><path d="M 10.046875 -23.355469 L 6.144531 -23.355469 C 5.023438 -19.835938 3.742188 -19.675781 1.757812 -19.515625 L 0.480469 -19.421875 L 0.480469 -15.199219 L 4.734375 -15.199219 L 4.734375 0 L 10.046875 0 Z M 10.046875 -23.355469 "/></g></g></g><path stroke-linecap="butt" transform="matrix(0.000000001309, 0.75, -0.75, 0.000000001309, 291.647039, 615.771144)" fill="none" stroke-linejoin="miter" d="M -0.00215025 3.998135 L 141.357237 3.998135 " stroke="#000000" stroke-width="8" stroke-opacity="1" stroke-miterlimit="4"/><path stroke-linecap="round" transform="matrix(0.000000001309, 0.75, -0.75, 0.000000001309, 291.647039, 615.771144)" fill="none" stroke-linejoin="round" d="M 125.357235 -8.001866 L 141.357237 3.998135 L 125.357235 15.998136 " stroke="#000000" stroke-width="8" stroke-opacity="1" stroke-miterlimit="4"/><g clip-path="url(#3973309ba1)"><g clip-path="url(#be9a5c3be2)"><path stroke-linecap="butt" transform="matrix(0.75, 0, 0, 0.75, 417.81233, 532.043671)" fill="none" stroke-linejoin="miter" d="M 67.646065 408.598057 L 104.937735 408.598057 C 118.192945 408.598057 128.937737 397.853264 128.937737 384.598055 L 128.937737 27.999066 C 128.937737 14.743857 118.192945 3.999064 104.937735 3.999064 L 29.30752 3.999064 " stroke="#000000" stroke-width="8" stroke-opacity="1" stroke-miterlimit="4"/></g></g><g clip-path="url(#ba9b274129)"><g clip-path="url(#665484ecac)"><path stroke-linecap="round" transform="matrix(0.75, 0, 0, 0.75, 417.81233, 532.043671)" fill="none" stroke-linejoin="round" d="M 45.307522 15.999065 L 29.30752 3.999064 L 45.307522 -8.000937 " stroke="#000000" stroke-width="8" stroke-opacity="1" stroke-miterlimit="4"/></g></g><g fill="#000000" fill-opacity="1"><g transform="translate(421.93733, 683.693658)"><g><path d="M 3.234375 0 L 3.234375 -25.703125 L 8.6875 -25.703125 L 8.6875 0 Z M 3.234375 0 "/></g></g><g transform="translate(433.855298, 683.693658)"><g><path d="M 20.953125 0 L 15.59375 0 L 15.59375 -11.484375 C 15.59375 -12.898438 15.335938 -13.960938 14.828125 -14.671875 C 14.328125 -15.378906 13.523438 -15.734375 12.421875 -15.734375 C 10.921875 -15.734375 9.835938 -15.234375 9.171875 -14.234375 C 8.503906 -13.234375 8.171875 -11.570312 8.171875 -9.25 L 8.171875 0 L 2.8125 0 L 2.8125 -19.65625 L 6.90625 -19.65625 L 7.625 -17.140625 L 7.921875 -17.140625 C 8.523438 -18.085938 9.347656 -18.800781 10.390625 -19.28125 C 11.441406 -19.769531 12.632812 -20.015625 13.96875 -20.015625 C 16.257812 -20.015625 17.992188 -19.394531 19.171875 -18.15625 C 20.359375 -16.925781 20.953125 -15.144531 20.953125 -12.8125 Z M 20.953125 0 "/></g></g><g transform="translate(457.515452, 683.693658)"><g><path d="M 2.578125 -24.734375 C 2.578125 -26.484375 3.550781 -27.359375 5.5 -27.359375 C 7.445312 -27.359375 8.421875 -26.484375 8.421875 -24.734375 C 8.421875 -23.898438 8.175781 -23.25 7.6875 -22.78125 C 7.207031 -22.320312 6.476562 -22.09375 5.5 -22.09375 C 3.550781 -22.09375 2.578125 -22.972656 2.578125 -24.734375 Z M 8.171875 0 L 2.8125 0 L 2.8125 -19.65625 L 8.171875 -19.65625 Z M 8.171875 0 "/></g></g><g transform="translate(468.501779, 683.693658)"><g><path d="M 10.796875 0.359375 C 4.679688 0.359375 1.625 -3 1.625 -9.71875 C 1.625 -13.0625 2.453125 -15.613281 4.109375 -17.375 C 5.773438 -19.132812 8.160156 -20.015625 11.265625 -20.015625 C 13.535156 -20.015625 15.578125 -19.570312 17.390625 -18.6875 L 15.796875 -14.53125 C 14.953125 -14.875 14.164062 -15.15625 13.4375 -15.375 C 12.71875 -15.59375 11.992188 -15.703125 11.265625 -15.703125 C 8.472656 -15.703125 7.078125 -13.71875 7.078125 -9.75 C 7.078125 -5.90625 8.472656 -3.984375 11.265625 -3.984375 C 12.296875 -3.984375 13.25 -4.117188 14.125 -4.390625 C 15.007812 -4.671875 15.890625 -5.109375 16.765625 -5.703125 L 16.765625 -1.109375 C 15.898438 -0.554688 15.023438 -0.175781 14.140625 0.03125 C 13.253906 0.25 12.140625 0.359375 10.796875 0.359375 Z M 10.796875 0.359375 "/></g></g><g transform="translate(487.011543, 683.693658)"><g><path d="M 2.578125 -24.734375 C 2.578125 -26.484375 3.550781 -27.359375 5.5 -27.359375 C 7.445312 -27.359375 8.421875 -26.484375 8.421875 -24.734375 C 8.421875 -23.898438 8.175781 -23.25 7.6875 -22.78125 C 7.207031 -22.320312 6.476562 -22.09375 5.5 -22.09375 C 3.550781 -22.09375 2.578125 -22.972656 2.578125 -24.734375 Z M 8.171875 0 L 2.8125 0 L 2.8125 -19.65625 L 8.171875 -19.65625 Z M 8.171875 0 "/></g></g><g transform="translate(497.99787, 683.693658)"><g><path d="M 15.296875 0 L 14.25 -2.671875 L 14.109375 -2.671875 C 13.210938 -1.535156 12.285156 -0.742188 11.328125 -0.296875 C 10.367188 0.140625 9.125 0.359375 7.59375 0.359375 C 5.707031 0.359375 4.222656 -0.179688 3.140625 -1.265625 C 2.054688 -2.347656 1.515625 -3.882812 1.515625 -5.875 C 1.515625 -7.957031 2.242188 -9.492188 3.703125 -10.484375 C 5.160156 -11.472656 7.359375 -12.019531 10.296875 -12.125 L 13.71875 -12.234375 L 13.71875 -13.09375 C 13.71875 -15.082031 12.695312 -16.078125 10.65625 -16.078125 C 9.082031 -16.078125 7.234375 -15.601562 5.109375 -14.65625 L 3.34375 -18.28125 C 5.601562 -19.46875 8.109375 -20.0625 10.859375 -20.0625 C 13.492188 -20.0625 15.515625 -19.484375 16.921875 -18.328125 C 18.328125 -17.179688 19.03125 -15.4375 19.03125 -13.09375 L 19.03125 0 Z M 13.71875 -9.109375 L 11.640625 -9.03125 C 10.078125 -8.988281 8.914062 -8.707031 8.15625 -8.1875 C 7.394531 -7.675781 7.015625 -6.894531 7.015625 -5.84375 C 7.015625 -4.320312 7.878906 -3.5625 9.609375 -3.5625 C 10.859375 -3.5625 11.851562 -3.921875 12.59375 -4.640625 C 13.34375 -5.359375 13.71875 -6.304688 13.71875 -7.484375 Z M 13.71875 -9.109375 "/></g></g><g transform="translate(519.742009, 683.693658)"><g><path d="M 13.78125 -20.015625 C 14.507812 -20.015625 15.113281 -19.960938 15.59375 -19.859375 L 15.1875 -14.84375 C 14.75 -14.957031 14.222656 -15.015625 13.609375 -15.015625 C 11.898438 -15.015625 10.566406 -14.570312 9.609375 -13.6875 C 8.648438 -12.8125 8.171875 -11.582031 8.171875 -10 L 8.171875 0 L 2.8125 0 L 2.8125 -19.65625 L 6.875 -19.65625 L 7.671875 -16.34375 L 7.921875 -16.34375 C 8.535156 -17.445312 9.359375 -18.332031 10.390625 -19 C 11.429688 -19.675781 12.5625 -20.015625 13.78125 -20.015625 Z M 13.78125 -20.015625 "/></g></g><g transform="translate(536.089664, 683.693658)"><g/></g><g transform="translate(545.441226, 683.693658)"><g><path d="M 1.546875 -14.15625 L 1.546875 -18 L 19 -18 L 19 -14.15625 Z M 1.546875 -7.34375 L 1.546875 -11.203125 L 19 -11.203125 L 19 -7.34375 Z M 1.546875 -7.34375 "/></g></g><g transform="translate(565.990052, 683.693658)"><g><path d="M 1.546875 -14.15625 L 1.546875 -18 L 19 -18 L 19 -14.15625 Z M 1.546875 -7.34375 L 1.546875 -11.203125 L 19 -11.203125 L 19 -7.34375 Z M 1.546875 -7.34375 "/></g></g><g transform="translate(586.538879, 683.693658)"><g><path d="M 19.265625 -12.84375 C 19.265625 -8.363281 18.53125 -5.039062 17.0625 -2.875 C 15.59375 -0.71875 13.328125 0.359375 10.265625 0.359375 C 7.296875 0.359375 5.054688 -0.753906 3.546875 -2.984375 C 2.046875 -5.210938 1.296875 -8.5 1.296875 -12.84375 C 1.296875 -17.382812 2.03125 -20.726562 3.5 -22.875 C 4.96875 -25.03125 7.222656 -26.109375 10.265625 -26.109375 C 13.234375 -26.109375 15.472656 -24.984375 16.984375 -22.734375 C 18.503906 -20.484375 19.265625 -17.1875 19.265625 -12.84375 Z M 6.703125 -12.84375 C 6.703125 -9.695312 6.972656 -7.441406 7.515625 -6.078125 C 8.054688 -4.710938 8.972656 -4.03125 10.265625 -4.03125 C 11.535156 -4.03125 12.453125 -4.71875 13.015625 -6.09375 C 13.578125 -7.476562 13.859375 -9.726562 13.859375 -12.84375 C 13.859375 -16 13.570312 -18.265625 13 -19.640625 C 12.425781 -21.015625 11.515625 -21.703125 10.265625 -21.703125 C 8.984375 -21.703125 8.066406 -21.015625 7.515625 -19.640625 C 6.972656 -18.265625 6.703125 -16 6.703125 -12.84375 Z M 6.703125 -12.84375 "/></g></g></g><g clip-path="url(#5bde42c219)"><g clip-path="url(#154ddda01b)"><path fill="#ffccd2" d="M 132 1176.371094 L 445.378906 1176.371094 L 445.378906 1279.753906 L 132 1279.753906 Z M 132 1176.371094 " fill-opacity="1" fill-rule="nonzero"/></g></g><g clip-path="url(#d62b5cb4aa)"><g clip-path="url(#d52e05b720)"><path stroke-linecap="butt" transform="matrix(0.75, 0, 0, 0.75, 132.01632, 1176.369961)" fill="none" stroke-linejoin="miter" d="M 68.915741 0.00151096 L 348.775122 0.00151096 C 386.837623 0.00151096 417.69179 30.855678 417.69179 68.912971 C 417.69179 106.975471 386.837623 137.829639 348.775122 137.829639 L 68.915741 137.829639 C 30.853241 137.829639 -0.000926768 106.975471 -0.000926768 68.912971 C -0.000926768 30.855678 30.853241 0.00151096 68.915741 0.00151096 Z M 68.915741 0.00151096 " stroke="#000000" stroke-width="8" stroke-opacity="1" stroke-miterlimit="4"/></g></g><g fill="#232122" fill-opacity="1"><g transform="translate(165.070312, 1241.619955)"><g><path d="M 8.460938 -26.28125 L 2.449219 -26.28125 L 2.449219 0 L 8.460938 0 Z M 8.460938 -26.28125 "/></g></g></g><g fill="#232122" fill-opacity="1"><g transform="translate(175.978339, 1241.619955)"><g><path d="M 14.003906 -19.546875 C 10.621094 -19.546875 7.992188 -17.675781 6.984375 -13.5 L 5.21875 -19.078125 L 2.339844 -19.078125 L 2.339844 0 L 8.136719 0 L 8.136719 -9.253906 C 8.136719 -12.851562 9.757812 -14.472656 12.097656 -14.472656 C 14.363281 -14.472656 15.480469 -13.355469 15.480469 -10.152344 L 15.480469 0 L 21.203125 0 L 21.203125 -10.980469 C 21.203125 -16.632812 18.289062 -19.546875 14.003906 -19.546875 Z M 14.003906 -19.546875 "/></g></g></g><g fill="#232122" fill-opacity="1"><g transform="translate(199.090378, 1241.619955)"><g><path d="M 3.023438 -21.671875 L 5.796875 -27.828125 L 11.410156 -27.828125 L 7.019531 -21.671875 Z M 8.101562 0 L 8.101562 -19.078125 L 2.339844 -19.078125 L 2.339844 0 Z M 8.101562 0 "/></g></g></g><g fill="#232122" fill-opacity="1"><g transform="translate(209.530399, 1241.619955)"><g><path d="M 1.117188 -9.179688 C 1.117188 -3.347656 4.96875 0.46875 11.339844 0.46875 C 17.242188 0.46875 20.664062 -2.628906 21.238281 -7.632812 L 15.335938 -7.632812 C 14.867188 -5.4375 13.570312 -4.390625 11.269531 -4.390625 C 8.566406 -4.390625 6.910156 -6.046875 6.910156 -9.539062 C 6.910156 -13.03125 8.566406 -14.6875 11.269531 -14.6875 C 13.570312 -14.6875 14.867188 -13.644531 15.300781 -11.449219 L 21.203125 -11.449219 C 20.628906 -16.453125 17.207031 -19.546875 11.339844 -19.546875 C 4.96875 -19.546875 1.117188 -15.730469 1.117188 -9.898438 Z M 1.117188 -9.179688 "/></g></g></g><g fill="#232122" fill-opacity="1"><g transform="translate(231.850439, 1241.619955)"><g><path d="M 8.425781 -24.625 C 8.425781 -22.753906 7.199219 -21.5625 5.21875 -21.5625 C 3.203125 -21.5625 1.980469 -22.753906 1.980469 -24.625 C 1.980469 -26.460938 3.203125 -27.683594 5.21875 -27.683594 C 7.199219 -27.683594 8.425781 -26.460938 8.425781 -24.625 Z M 8.101562 0 L 8.101562 -19.078125 L 2.339844 -19.078125 L 2.339844 0 Z M 8.101562 0 "/></g></g></g><g fill="#232122" fill-opacity="1"><g transform="translate(242.29046, 1241.619955)"><g><path d="M 11.375 0.46875 C 17.785156 0.46875 21.601562 -3.347656 21.601562 -9.144531 L 21.601562 -9.9375 C 21.601562 -15.730469 17.785156 -19.546875 11.375 -19.546875 C 4.96875 -19.546875 1.117188 -15.730469 1.117188 -9.9375 L 1.117188 -9.144531 C 1.117188 -3.347656 4.96875 0.46875 11.375 0.46875 Z M 11.375 -4.355469 C 8.566406 -4.355469 6.910156 -6.046875 6.910156 -9.574219 C 6.910156 -13.03125 8.566406 -14.722656 11.375 -14.722656 C 14.148438 -14.722656 15.839844 -13.03125 15.839844 -9.574219 C 15.839844 -6.046875 14.148438 -4.355469 11.375 -4.355469 Z M 11.375 -4.355469 "/></g></g></g><g fill="#232122" fill-opacity="1"><g transform="translate(265.042503, 1241.619955)"><g/></g></g><g fill="#232122" fill-opacity="1"><g transform="translate(275.914526, 1241.619955)"><g><path d="M 15.804688 -15.445312 C 14.507812 -18.109375 12.097656 -19.546875 9.324219 -19.546875 C 4.824219 -19.546875 1.117188 -15.839844 1.117188 -9.898438 L 1.117188 -9.179688 C 1.117188 -3.238281 4.824219 0.46875 9.324219 0.46875 C 12.960938 0.46875 15.910156 -1.726562 16.882812 -5.617188 L 18.683594 0 L 21.527344 0 L 21.527344 -26.28125 L 15.804688 -26.28125 Z M 11.339844 -4.5 C 8.566406 -4.5 6.910156 -6.15625 6.910156 -9.503906 C 6.910156 -12.925781 8.566406 -14.578125 11.339844 -14.578125 C 14.039062 -14.578125 15.804688 -12.851562 15.804688 -9.503906 C 15.804688 -6.226562 14.039062 -4.5 11.339844 -4.5 Z M 11.339844 -4.5 "/></g></g></g><g fill="#232122" fill-opacity="1"><g transform="translate(299.782574, 1241.619955)"><g><path d="M 11.375 0.46875 C 17.785156 0.46875 21.601562 -3.347656 21.601562 -9.144531 L 21.601562 -9.9375 C 21.601562 -15.730469 17.785156 -19.546875 11.375 -19.546875 C 4.96875 -19.546875 1.117188 -15.730469 1.117188 -9.9375 L 1.117188 -9.144531 C 1.117188 -3.347656 4.96875 0.46875 11.375 0.46875 Z M 11.375 -4.355469 C 8.566406 -4.355469 6.910156 -6.046875 6.910156 -9.574219 C 6.910156 -13.03125 8.566406 -14.722656 11.375 -14.722656 C 14.148438 -14.722656 15.839844 -13.03125 15.839844 -9.574219 C 15.839844 -6.046875 14.148438 -4.355469 11.375 -4.355469 Z M 11.375 -4.355469 "/></g></g></g><g fill="#232122" fill-opacity="1"><g transform="translate(322.534617, 1241.619955)"><g/></g></g><g fill="#232122" fill-opacity="1"><g transform="translate(333.40664, 1241.619955)"><g><path d="M 8.640625 -24.625 C 8.640625 -22.753906 7.414062 -21.5625 5.4375 -21.5625 C 3.421875 -21.5625 2.195312 -22.753906 2.195312 -24.625 C 2.195312 -26.460938 3.421875 -27.683594 5.4375 -27.683594 C 7.414062 -27.683594 8.640625 -26.460938 8.640625 -24.625 Z M 2.59375 -19.078125 L 2.59375 0 C 2.59375 1.980469 1.835938 2.734375 0.144531 2.734375 C -0.648438 2.734375 -1.441406 2.664062 -2.160156 2.554688 L -2.160156 7.199219 C -1.296875 7.414062 -0.144531 7.632812 1.1875 7.632812 C 5.941406 7.632812 8.351562 5.21875 8.351562 0.109375 L 8.351562 -19.078125 Z M 2.59375 -19.078125 "/></g></g></g><g fill="#232122" fill-opacity="1"><g transform="translate(344.09866, 1241.619955)"><g><path d="M 11.375 0.46875 C 17.785156 0.46875 21.601562 -3.347656 21.601562 -9.144531 L 21.601562 -9.9375 C 21.601562 -15.730469 17.785156 -19.546875 11.375 -19.546875 C 4.96875 -19.546875 1.117188 -15.730469 1.117188 -9.9375 L 1.117188 -9.144531 C 1.117188 -3.347656 4.96875 0.46875 11.375 0.46875 Z M 11.375 -4.355469 C 8.566406 -4.355469 6.910156 -6.046875 6.910156 -9.574219 C 6.910156 -13.03125 8.566406 -14.722656 11.375 -14.722656 C 14.148438 -14.722656 15.839844 -13.03125 15.839844 -9.574219 C 15.839844 -6.046875 14.148438 -4.355469 11.375 -4.355469 Z M 11.375 -4.355469 "/></g></g></g><g fill="#232122" fill-opacity="1"><g transform="translate(366.850691, 1241.619955)"><g><path d="M 22.5 0.613281 C 22.5 -2.628906 20.484375 -4.753906 15.371094 -4.753906 L 8.640625 -4.753906 C 6.804688 -4.753906 6.335938 -5.148438 6.335938 -5.867188 C 6.335938 -6.589844 6.804688 -7.054688 8.53125 -7.054688 L 11.269531 -7.054688 C 18.289062 -7.054688 20.988281 -9.757812 20.988281 -13.175781 L 20.988281 -13.355469 C 20.988281 -16.128906 19.332031 -18.359375 15.265625 -19.1875 C 15.660156 -20.125 16.632812 -20.699219 18.46875 -20.699219 C 19.367188 -20.699219 20.304688 -20.59375 20.914062 -20.484375 L 20.914062 -25.558594 C 20.410156 -25.703125 19.835938 -25.847656 18.898438 -25.847656 C 15.984375 -25.847656 13.464844 -23.507812 13.175781 -19.476562 C 12.5625 -19.511719 11.953125 -19.546875 11.269531 -19.546875 C 4.285156 -19.546875 1.585938 -16.847656 1.585938 -13.355469 L 1.585938 -13.210938 C 1.585938 -11.015625 2.664062 -9.144531 5.257812 -8.027344 C 2.59375 -7.378906 1.476562 -5.832031 1.476562 -3.996094 C 1.476562 -2.125 2.914062 -0.503906 5.617188 -0.0703125 C 3.132812 0.394531 1.945312 1.726562 1.945312 3.492188 C 1.945312 5.617188 3.671875 7.632812 11.160156 7.632812 C 19.585938 7.632812 22.5 4.714844 22.5 0.613281 Z M 11.269531 -15.875 C 14.328125 -15.875 15.371094 -14.796875 15.371094 -13.285156 C 15.371094 -11.808594 14.328125 -10.726562 11.269531 -10.726562 C 8.242188 -10.726562 7.199219 -11.808594 7.199219 -13.285156 C 7.199219 -14.796875 8.242188 -15.875 11.269531 -15.875 Z M 11.84375 3.886719 C 7.632812 3.886719 6.839844 2.953125 6.839844 1.800781 C 6.839844 0.613281 7.597656 -0.289062 12.636719 -0.289062 C 16.777344 -0.289062 17.496094 0.503906 17.496094 1.585938 C 17.496094 2.734375 16.378906 3.886719 11.84375 3.886719 Z M 11.84375 3.886719 "/></g></g></g><g fill="#232122" fill-opacity="1"><g transform="translate(389.458721, 1241.619955)"><g><path d="M 11.375 0.46875 C 17.785156 0.46875 21.601562 -3.347656 21.601562 -9.144531 L 21.601562 -9.9375 C 21.601562 -15.730469 17.785156 -19.546875 11.375 -19.546875 C 4.96875 -19.546875 1.117188 -15.730469 1.117188 -9.9375 L 1.117188 -9.144531 C 1.117188 -3.347656 4.96875 0.46875 11.375 0.46875 Z M 11.375 -4.355469 C 8.566406 -4.355469 6.910156 -6.046875 6.910156 -9.574219 C 6.910156 -13.03125 8.566406 -14.722656 11.375 -14.722656 C 14.148438 -14.722656 15.839844 -13.03125 15.839844 -9.574219 C 15.839844 -6.046875 14.148438 -4.355469 11.375 -4.355469 Z M 11.375 -4.355469 "/></g></g></g><g clip-path="url(#bf4ab64a9e)"><path stroke-linecap="butt" transform="matrix(0.000000001309, 0.75, -0.75, 0.000000001309, 308.449264, 952.199731)" fill="none" stroke-linejoin="miter" d="M -0.000683694 26.401105 L 294.895175 26.401105 " stroke="#000000" stroke-width="8" stroke-opacity="1" stroke-miterlimit="4"/></g><g clip-path="url(#3bc976548f)"><path stroke-linecap="round" transform="matrix(0.000000001309, 0.75, -0.75, 0.000000001309, 308.449264, 952.199731)" fill="none" stroke-linejoin="round" d="M 278.895173 14.401104 L 294.895175 26.401105 L 278.895173 38.401106 " stroke="#000000" stroke-width="8" stroke-opacity="1" stroke-miterlimit="4"/></g><g fill="#000000" fill-opacity="1"><g transform="translate(278.899296, 991.340281)"><g><path d="M 0 2.421875 L 19.28125 2.421875 L 19.28125 6.515625 L 0 6.515625 Z M 0 2.421875 "/></g></g><g transform="translate(278.899296, 1000.278757)"><g><path d="M 0 15.71875 L 0 11.6875 L 8.609375 11.6875 C 9.671875 11.6875 10.46875 11.5 11 11.125 C 11.53125 10.75 11.796875 10.148438 11.796875 9.328125 C 11.796875 8.203125 11.421875 7.382812 10.671875 6.875 C 9.921875 6.375 8.675781 6.125 6.9375 6.125 L 0 6.125 L 0 2.109375 L 14.734375 2.109375 L 14.734375 5.1875 L 12.859375 5.71875 L 12.859375 5.953125 C 13.566406 6.398438 14.101562 7.015625 14.46875 7.796875 C 14.832031 8.585938 15.015625 9.484375 15.015625 10.484375 C 15.015625 12.191406 14.550781 13.488281 13.625 14.375 C 12.695312 15.269531 11.359375 15.71875 9.609375 15.71875 Z M 0 15.71875 "/></g></g><g transform="translate(278.899296, 1018.023873)"><g><path d="M 18.546875 1.9375 C 19.859375 1.9375 20.515625 2.664062 20.515625 4.125 C 20.515625 5.582031 19.859375 6.3125 18.546875 6.3125 C 17.921875 6.3125 17.4375 6.128906 17.09375 5.765625 C 16.75 5.398438 16.578125 4.851562 16.578125 4.125 C 16.578125 2.664062 17.234375 1.9375 18.546875 1.9375 Z M 0 6.125 L 0 2.109375 L 14.734375 2.109375 L 14.734375 6.125 Z M 0 6.125 "/></g></g><g transform="translate(278.899296, 1026.263618)"><g><path d="M -0.265625 8.09375 C -0.265625 3.507812 2.253906 1.21875 7.296875 1.21875 C 9.796875 1.21875 11.707031 1.835938 13.03125 3.078125 C 14.351562 4.328125 15.015625 6.117188 15.015625 8.453125 C 15.015625 10.160156 14.679688 11.6875 14.015625 13.03125 L 10.90625 11.859375 C 11.15625 11.222656 11.359375 10.628906 11.515625 10.078125 C 11.679688 9.535156 11.765625 8.992188 11.765625 8.453125 C 11.765625 6.359375 10.28125 5.3125 7.3125 5.3125 C 4.4375 5.3125 3 6.359375 3 8.453125 C 3 9.222656 3.097656 9.9375 3.296875 10.59375 C 3.503906 11.257812 3.828125 11.921875 4.265625 12.578125 L 0.828125 12.578125 C 0.421875 11.929688 0.140625 11.273438 -0.015625 10.609375 C -0.179688 9.941406 -0.265625 9.101562 -0.265625 8.09375 Z M -0.265625 8.09375 "/></g></g><g transform="translate(278.899296, 1040.145941)"><g><path d="M 18.546875 1.9375 C 19.859375 1.9375 20.515625 2.664062 20.515625 4.125 C 20.515625 5.582031 19.859375 6.3125 18.546875 6.3125 C 17.921875 6.3125 17.4375 6.128906 17.09375 5.765625 C 16.75 5.398438 16.578125 4.851562 16.578125 4.125 C 16.578125 2.664062 17.234375 1.9375 18.546875 1.9375 Z M 0 6.125 L 0 2.109375 L 14.734375 2.109375 L 14.734375 6.125 Z M 0 6.125 "/></g></g><g transform="translate(278.899296, 1048.385687)"><g><path d="M 0 11.46875 L 2 10.6875 L 2 10.59375 C 1.144531 9.914062 0.550781 9.21875 0.21875 8.5 C -0.101562 7.78125 -0.265625 6.847656 -0.265625 5.703125 C -0.265625 4.285156 0.132812 3.171875 0.9375 2.359375 C 1.75 1.546875 2.90625 1.140625 4.40625 1.140625 C 5.96875 1.140625 7.117188 1.6875 7.859375 2.78125 C 8.609375 3.875 9.019531 5.519531 9.09375 7.71875 L 9.171875 10.28125 L 9.828125 10.28125 C 11.316406 10.28125 12.0625 9.515625 12.0625 7.984375 C 12.0625 6.804688 11.707031 5.425781 11 3.84375 L 13.71875 2.5 C 14.601562 4.195312 15.046875 6.078125 15.046875 8.140625 C 15.046875 10.117188 14.613281 11.632812 13.75 12.6875 C 12.882812 13.75 11.578125 14.28125 9.828125 14.28125 L 0 14.28125 Z M 6.828125 10.28125 L 6.78125 8.734375 C 6.738281 7.554688 6.523438 6.679688 6.140625 6.109375 C 5.753906 5.546875 5.164062 5.265625 4.375 5.265625 C 3.238281 5.265625 2.671875 5.914062 2.671875 7.21875 C 2.671875 8.144531 2.9375 8.882812 3.46875 9.4375 C 4.007812 10 4.722656 10.28125 5.609375 10.28125 Z M 6.828125 10.28125 "/></g></g><g transform="translate(278.899296, 1064.693791)"><g><path d="M 15.015625 10.34375 C 15.015625 10.882812 14.972656 11.332031 14.890625 11.6875 L 11.125 11.390625 C 11.21875 11.066406 11.265625 10.671875 11.265625 10.203125 C 11.265625 8.921875 10.929688 7.921875 10.265625 7.203125 C 9.609375 6.484375 8.6875 6.125 7.5 6.125 L 0 6.125 L 0 2.109375 L 14.734375 2.109375 L 14.734375 5.15625 L 12.265625 5.75 L 12.265625 5.953125 C 13.085938 6.398438 13.75 7.015625 14.25 7.796875 C 14.757812 8.578125 15.015625 9.425781 15.015625 10.34375 Z M 15.015625 10.34375 "/></g></g><g transform="translate(278.899296, 1076.954532)"><g/></g><g transform="translate(278.899296, 1083.968203)"><g><path d="M 10.609375 1.15625 L 13.5 1.15625 L 13.5 14.25 L 10.609375 14.25 Z M 5.515625 1.15625 L 8.390625 1.15625 L 8.390625 14.25 L 5.515625 14.25 Z M 5.515625 1.15625 "/></g></g><g transform="translate(278.899296, 1099.379823)"><g><path d="M 10.609375 1.15625 L 13.5 1.15625 L 13.5 14.25 L 10.609375 14.25 Z M 5.515625 1.15625 L 8.390625 1.15625 L 8.390625 14.25 L 5.515625 14.25 Z M 5.515625 1.15625 "/></g></g><g transform="translate(278.899296, 1114.791443)"><g/></g><g transform="translate(278.899296, 1121.805114)"><g><path d="M 0 11.15625 L 0 7.078125 L 11.15625 7.078125 L 12.984375 7.125 L 14.984375 7.1875 C 14.304688 6.507812 13.863281 6.039062 13.65625 5.78125 L 11.875 3.5625 L 14.328125 1.59375 L 19.28125 7.8125 L 19.28125 11.15625 Z M 0 11.15625 "/></g></g></g></svg>